<?xml version="1.0" standalone="no"?>
<!DOCTYPE svg PUBLIC "-//W3C//DTD SVG 1.1//EN" "http://www.w3.org/Graphics/SVG/1.1/DTD/svg11.dtd" >
<svg xmlns="http://www.w3.org/2000/svg" xmlns:xlink="http://www.w3.org/1999/xlink" version="1.1">
<metadata></metadata>
<defs>
<font id="champagne__limousines_thickRg" horiz-adv-x="1170" >
<font-face units-per-em="2048" ascent="1638" descent="-410" />
<missing-glyph horiz-adv-x="508" />
<glyph horiz-adv-x="0" />
<glyph unicode="&#xd;" horiz-adv-x="508" />
<glyph unicode=" "  horiz-adv-x="508" />
<glyph unicode="&#x09;" horiz-adv-x="508" />
<glyph unicode="&#xa0;" horiz-adv-x="508" />
<glyph unicode="!" horiz-adv-x="352" d="M55 110q0 50 36 85t86 35q49 0 84.5 -35t35.5 -85q0 -51 -35.5 -86t-84.5 -35q-50 0 -86 35t-36 86zM90 325v1073h169v-1073h-169z" />
<glyph unicode="&#x22;" horiz-adv-x="570" d="M55 812v584h169v-584h-169zM347 812v584h168v-584h-168z" />
<glyph unicode="#" horiz-adv-x="1095" d="M8 426l21 169h262l19 153h-262l21 169h262l53 425h170l-53 -425h153l52 425h170l-52 -425h262l-21 -169h-262l-20 -153h264l-21 -169h-264l-52 -426h-170l52 426h-152l-53 -426h-170l53 426h-262zM461 595h152l20 153h-153z" />
<glyph unicode="$" horiz-adv-x="1114" d="M176 441l161 60q15 -138 70 -192q53 -54 72 -56v489q-63 27 -124 88q-84 83 -84 203q0 116 84 200q70 72 124 78v138h169v-142q47 -9 112 -73q46 -45 80 -149l-150 -61q-28 74 -42 110v-283q91 -35 178 -123q112 -110 112 -267q0 -158 -112 -268q-94 -95 -178 -105v-119 h-169v117q-91 7 -190 107q-88 88 -113 248zM437 1033q0 -51 42 -102v211q-42 -59 -42 -109zM648 257q11 2 62 52q62 63 62 152q0 88 -63 151q-53 55 -61 58v-413z" />
<glyph unicode="%" horiz-adv-x="1092" d="M66 848q0 98 69 167.5t167 69.5t167 -69.5t69 -167.5q0 -97 -69 -166t-167 -69t-167 69t-69 166zM76 80l802 1145l138 -96l-802 -1145zM233 848q0 -29 20 -49t49 -20q28 0 48.5 20.5t20.5 48.5q0 29 -20.5 49.5t-48.5 20.5q-29 0 -49 -20t-20 -50zM554 360q0 98 69 167 t167 69t167 -69t69 -167t-69 -167t-167 -69t-167 69t-69 167zM721 360q0 -29 20 -49t49 -20q28 0 49 20.5t21 48.5q0 29 -21 49.5t-49 20.5q-29 0 -49 -20.5t-20 -49.5z" />
<glyph unicode="&#x26;" horiz-adv-x="998" d="M55 419q0 179 126 306q55 55 122 96l-78 125q-49 85 -49 166q0 107 84 208q95 94 228 94q135 0 229.5 -95t94.5 -227q0 -135 -91 -227q-71 -71 -176 -116l210 -333q2 15 4 31l163 -59q-13 -90 -47 -161l68 -131l-115 -90l-62 81q-117 -103 -278 -103q-180 0 -306.5 127.5 t-126.5 307.5zM221 419q0 -110 78.5 -188t188.5 -78t187 77l-282 450q-52 -32 -94 -74q-78 -78 -78 -187zM342 1108q0 -35 24 -77l89 -140l6 2q87 40 136 89q45 45 45 110q0 64 -45 109t-109 45t-109 -45q-20 -19 -33 -65q-4 -14 -4 -28z" />
<glyph unicode="'" horiz-adv-x="279" d="M55 812v584h169v-584h-169z" />
<glyph unicode="(" horiz-adv-x="736" d="M55 683q0 405 206 643q65 75 152 136h269q-216 -130 -305 -250q-129 -175 -129 -530t129 -530q89 -120 305 -250h-269q-87 61 -152 137q-206 237 -206 644z" />
<glyph unicode=")" horiz-adv-x="736" d="M55 -98q216 130 305 250q129 175 129 530t-129 530q-89 120 -305 250h269q88 -61 152 -136q206 -238 206 -643q0 -407 -206 -644q-64 -76 -152 -137h-269z" />
<glyph unicode="*" horiz-adv-x="726" d="M75 1006l140 98l-140 97l97 140l107 -75v130h168v-129l106 74l97 -140l-140 -97l140 -98l-97 -140l-106 75v-129h-168v129l-107 -75z" />
<glyph unicode="+" horiz-adv-x="1095" d="M85 445v169h378v378h169v-378h378v-169h-378v-378h-169v378h-378z" />
<glyph unicode="," horiz-adv-x="456" d="M0 -179l109 410h249l-197 -410h-161z" />
<glyph unicode="-" horiz-adv-x="652" d="M48 445v169h556v-169h-556z" />
<glyph unicode="." horiz-adv-x="352" d="M55 110q0 50 36 85t86 35q49 0 84.5 -35t35.5 -85q0 -51 -35.5 -86t-84.5 -35q-50 0 -86 35t-36 86z" />
<glyph unicode="/" horiz-adv-x="718" d="M-52 0l633 1398h189l-634 -1398h-188z" />
<glyph unicode="0" horiz-adv-x="1089" d="M50 688q0 324 143 517t353 193q209 0 351 -193.5t142 -516.5q0 -324 -142 -517.5t-351 -193.5q-210 0 -353 193.5t-143 517.5zM223 688q0 -262 97 -399.5t225 -137.5t224.5 137.5t96.5 399.5q0 261 -96.5 398.5t-224.5 137.5t-225 -137.5t-97 -398.5z" />
<glyph unicode="1" horiz-adv-x="1111" d="M185 0v169h289v947l-89 -58l-137 100l395 286v-1275h283v-169h-741z" />
<glyph unicode="2" horiz-adv-x="1148" d="M170 0q559 853 595 916.5t36 114.5q0 26 -6 53q-19 82 -88 125q-50 30 -103 30q-24 0 -48 -5q-80 -19 -124 -89q-25 -39 -37 -123l-168 24q11 119 57 190q84 132 233 166q45 10 88 10q104 0 196 -58q131 -82 165 -231q12 -54 12 -102q0 -89 -47 -174t-438 -678h485v-169 h-808z" />
<glyph unicode="3" horiz-adv-x="1105" d="M116 390l168 61q17 -153 83 -219q77 -76 185 -76q111 0 188 76.5t77 186.5t-77.5 194t-235.5 114l-104 3v167q115 1 154 16.5t85.5 65t46.5 113.5q0 63 -44.5 107.5t-107.5 44.5t-108 -44q-25 -26 -54 -104l-157 62q35 112 88 163q96 95 231 95q136 0 231 -95.5 t95 -228.5q0 -135 -107 -266q236 -158 236 -407q0 -181 -128 -309t-309 -128q-180 0 -308 129q-101 102 -128 279z" />
<glyph unicode="4" horiz-adv-x="1138" d="M136 335l743 1244v-1075h124v-169h-124v-335h-169v335h-574zM431 504h279v468z" />
<glyph unicode="5" horiz-adv-x="1109" d="M85 223l120 130q94 -138 208 -173q53 -16 101 -16q80 0 156 40q123 66 164 200q17 52 17 102q0 79 -42 155q-66 123 -201 171q-58 20 -129 20q-96 0 -241 -45l-103 90l157 435v66h503v-169h-360l-75 -208l3 -4q57 10 110 10q98 0 188 -31q201 -69 300 -254 q62 -116 62 -237q0 -76 -23 -152q-62 -202 -248 -302q-114 -60 -235 -60q-76 0 -155 24q-162 50 -277 208z" />
<glyph unicode="6" horiz-adv-x="1104" d="M142 391v16q9 207 124 441.5t263 451.5q26 39 62 98h208q-70 -119 -104 -168q-165 -236 -270 -456l127 28q170 0 289.5 -120t119.5 -291q0 -168 -119.5 -288.5t-289.5 -120.5q-169 0 -289.5 120t-120.5 289zM315 391q0 -97 69.5 -165.5t167.5 -68.5q97 0 166.5 68.5 t69.5 165.5q0 99 -69.5 168t-166.5 69q-98 0 -167.5 -69t-69.5 -168z" />
<glyph unicode="7" horiz-adv-x="1100" d="M118 1229v169h864q-6 -275 -176.5 -519t-274.5 -462t-114 -417h-172q11 255 125.5 489.5t259 446.5t161.5 293h-673z" />
<glyph unicode="8" horiz-adv-x="1094" d="M77 419q0 179 124 313l92 94q-87 131 -87 266q0 133 94.5 228.5t231.5 95.5h30q135 0 230.5 -95.5t95.5 -228.5q0 -135 -89 -266l92 -94q125 -134 125 -313q0 -181 -127.5 -309t-308.5 -128q-18 0 -33 1q-15 -1 -34 -1q-180 0 -308 128t-128 309zM249 419 q0 -110 77 -186.5t187 -76.5q15 0 32 1h4q16 -1 31 -1q109 0 186 76.5t77 186.5t-75 193q-76 83 -221 112q-146 -29 -222 -112t-76 -193zM379 1092q0 -64 46.5 -113.5t83.5 -64.5q20 -7 38 -10q17 3 36 10q38 15 84.5 64.5t46.5 113.5q0 63 -44.5 107.5t-107.5 44.5 q-4 0 -11 -1h-9q-6 1 -10 1q-63 0 -108 -44.5t-45 -107.5z" />
<glyph unicode="9" horiz-adv-x="1104" d="M142 1007q0 169 119.5 289.5t289.5 120.5q169 0 289.5 -120.5t120.5 -289.5v-16q-9 -206 -124 -440.5t-263 -452.5q-26 -38 -62 -98h-208q69 120 104 168q165 237 270 458l-127 -30q-170 0 -289.5 120t-119.5 291zM315 1007q0 -98 69.5 -167.5t166.5 -69.5 q98 0 167.5 69.5t69.5 167.5t-69.5 166.5t-167.5 68.5q-97 0 -166.5 -68.5t-69.5 -166.5z" />
<glyph unicode=":" horiz-adv-x="352" d="M55 110q0 50 36 85t86 35q49 0 84.5 -35t35.5 -85q0 -51 -35.5 -86t-84.5 -35q-50 0 -86 35t-36 86zM55 678q0 50 36 85.5t86 35.5q49 0 84.5 -35.5t35.5 -85.5q0 -51 -35.5 -86t-84.5 -35q-50 0 -86 35t-36 86z" />
<glyph unicode=";" horiz-adv-x="413" d="M0 -179l109 410h249l-197 -410h-161zM44 678q0 50 36 85.5t85 35.5t85 -35.5t36 -85.5q0 -51 -36 -86t-85 -35t-85 35t-36 86z" />
<glyph unicode="&#x3c;" horiz-adv-x="1159" d="M89 621l981 468v-191l-600 -277l600 -277v-191z" />
<glyph unicode="=" horiz-adv-x="1095" d="M85 576v169h925v-169h-925zM89 315v169h917v-169h-917z" />
<glyph unicode="&#x3e;" horiz-adv-x="1159" d="M89 153v191l600 277l-600 277v191l981 -468z" />
<glyph unicode="?" horiz-adv-x="856" d="M50 1036q0 98 72 202q88 128 243 155q35 6 70 6q113 0 211 -67q127 -90 154 -246q6 -34 6 -68q0 -111 -67 -212q-56 -78 -192 -186q-79 -71 -101 -104q-26 -36 -26 -78q0 -13 2 -26l-168 -30q-5 29 -5 58q0 94 57 174q44 64 166 162q97 88 126 129q38 54 38 115 q0 18 -3 37q-15 84 -85 133q-56 38 -117 38q-18 0 -37 -3q-81 -15 -130 -84q-40 -57 -40 -112q0 -13 15 -88l-177 12q-12 59 -12 83zM250 110q0 50 36 85t86 35q49 0 84.5 -35t35.5 -85q0 -51 -35.5 -86t-84.5 -35q-50 0 -86 35t-36 86z" />
<glyph unicode="@" horiz-adv-x="1326" d="M55 530q0 251 179 430t430 179q252 0 429.5 -179t177.5 -430q0 -118 -86.5 -252.5t-203.5 -134.5q-15 0 -30 3q-105 22 -114 74q-30 -32 -173 -32q-142 0 -243.5 101t-101.5 242q0 143 101.5 244t243.5 101q143 0 173 -32v21h122q-124 112 -295 112q-185 0 -315.5 -131.5 t-130.5 -315.5t130.5 -314.5t315.5 -130.5q126 0 212 53l115 -121q-161 -94 -327 -94q-251 0 -430 178t-179 429zM486 531q0 -74 52.5 -126.5t127.5 -52.5q74 0 127 52q36 37 46 79v97q-10 43 -46 79q-53 53 -127 53q-75 0 -127.5 -52.5t-52.5 -128.5zM999 304q14 7 60 73 q52 73 52 153q0 170 -112 295v-521z" />
<glyph unicode="A" d="M65 0l522 1432l519 -1432h-179l-149 411h-384l-149 -411h-180zM456 579h260l-130 359z" />
<glyph unicode="B" horiz-adv-x="1060" d="M112 0v1398h437q131 0 223 -92t92 -223q0 -130 -77 -206q17 -2 83 -70q138 -138 138 -334t-138 -335q-116 -115 -284 -138h-474zM281 169h254q125 0 213 89t88 215q0 125 -88.5 214.5t-212.5 89.5h-254v-608zM281 946h282q61 6 88 34q42 42 42 103t-42.5 104t-102.5 43 h-267v-284z" />
<glyph unicode="C" horiz-adv-x="1371" d="M74 699q0 295 209 505t506 210q276 0 520 -223l-128 -113q-186 165 -392 165q-225 0 -385 -159.5t-160 -384.5q0 -226 160 -385t385 -159q206 0 392 164l128 -113q-244 -222 -520 -222q-297 0 -506 209t-209 506z" />
<glyph unicode="D" horiz-adv-x="1205" d="M112 0v1398h289q342 -2 533 -193q209 -211 209 -506q0 -297 -210 -506q-190 -191 -532 -193h-289zM281 171h119q262 0 410 143q159 159 159 385q0 225 -159 385q-148 142 -410 142h-119v-1055z" />
<glyph unicode="E" horiz-adv-x="971" d="M112 0v1398h747v-169h-578v-445h578v-170h-578v-445h578v-169h-747z" />
<glyph unicode="F" horiz-adv-x="830" d="M112 0v1398h666v-169h-497v-445h497v-170h-497v-614h-169z" />
<glyph unicode="G" horiz-adv-x="1383" d="M74 699q0 295 209 505t506 210q276 0 520 -223l-128 -113q-186 165 -392 165q-225 0 -385 -159.5t-160 -384.5q0 -226 160 -385t385 -159q193 0 322 104v422h169v-491q-214 -206 -491 -206q-297 0 -506 209t-209 506z" />
<glyph unicode="H" horiz-adv-x="1098" d="M94 0v1398h169v-614h572v614h169v-1398h-169v614h-572v-614h-169z" />
<glyph unicode="I" horiz-adv-x="413" d="M122 0v1398h169v-1398h-169z" />
<glyph unicode="J" horiz-adv-x="382" d="M-61 -90q96 0 128 32q31 31 31 90v1366h170v-1375q0 -119 -81.5 -201t-247.5 -82v170z" />
<glyph unicode="K" horiz-adv-x="1068" d="M112 0v1398h169v-519l363 519h206l-371 -537l603 -861h-206l-502 717l-93 -132v-585h-169z" />
<glyph unicode="L" horiz-adv-x="830" d="M112 0v1398h169v-1229h497v-169h-666z" />
<glyph unicode="M" horiz-adv-x="1439" d="M94 0v1552l625 -1083l626 1085v-1554h-170v920l-457 -790l-455 788v-918h-169z" />
<glyph unicode="N" horiz-adv-x="1184" d="M109 0v1520l797 -1117v995h169v-1526l-797 1119v-991h-169z" />
<glyph unicode="O" horiz-adv-x="1556" d="M62 701q0 296 210 506t506 210q297 0 506.5 -210t209.5 -506q0 -297 -209.5 -507t-506.5 -210q-296 0 -506 210t-210 507zM232 701q0 -226 160.5 -386t385.5 -160q226 0 386 160t160 386q0 225 -160 385t-386 160q-225 0 -385.5 -160t-160.5 -385z" />
<glyph unicode="P" horiz-adv-x="993" d="M112 0v1398h393q168 -23 284 -138q138 -139 138 -334q0 -197 -138.5 -336t-333.5 -139h-174v-451h-169zM281 622h174q125 0 214 88.5t89 215.5q0 125 -89 213.5t-214 88.5h-174v-606z" />
<glyph unicode="Q" horiz-adv-x="1556" d="M62 701q0 296 210 506t506 210q297 0 506.5 -210t209.5 -506q0 -297 -209 -506q-152 -152 -223 -162l57 -26q62 -34 84 -40q11 -3 22 -3q16 0 33 10q25 14 33 43q3 9 7 60h170q-6 -78 -14 -106q-28 -95 -113 -143q-54 -33 -116 -33q-33 0 -67 11q-55 14 -149 74 q-77 41 -106 49q-18 5 -34 5q-29 0 -55 -15q-43 -25 -56 -73q-2 -6 -7 -52h-170q8 75 14 100l70 91q-186 2 -393 210q-210 209 -210 506zM232 701q0 -226 160.5 -386t385.5 -160q226 0 386 160t160 386q0 225 -160 385t-386 160q-225 0 -385.5 -160t-160.5 -385z" />
<glyph unicode="R" horiz-adv-x="1011" d="M112 0v1398h393q168 -23 284 -138q138 -139 138 -334q0 -197 -138 -335q-96 -96 -155 -111l311 -480h-204l-289 450l3 1h-174v-451h-169zM281 622h174q125 0 214 88.5t89 215.5q0 125 -89 213.5t-214 88.5h-174v-606z" />
<glyph unicode="S" horiz-adv-x="977" d="M55 388l163 59q16 -150 83 -216q78 -78 188 -78t188.5 78t78.5 188q0 109 -78 187q-75 75 -181 118q-149 49 -240.5 141t-91.5 227q0 132 94.5 227t229.5 95q133 0 229 -95q53 -51 88 -159l-154 -60q-28 76 -54 101q-45 45 -109 45t-109 -45t-45 -109q0 -65 45 -110 q49 -49 136 -89q165 -53 280 -168q126 -127 126 -306q0 -180 -126.5 -307.5t-306.5 -127.5t-306 129q-103 101 -128 275z" />
<glyph unicode="T" horiz-adv-x="892" d="M32 1229v169h828v-169h-330v-1229h-168v1229h-330z" />
<glyph unicode="U" d="M112 461v937h169v-937q0 -124 89.5 -213.5t214.5 -89.5q126 0 215 89.5t89 213.5v937h169v-987q-23 -168 -138 -284q-139 -138 -335 -138t-334.5 138.5t-138.5 333.5z" />
<glyph unicode="V" d="M68 1398h179l338 -926l337 926h179l-516 -1421z" />
<glyph unicode="W" horiz-adv-x="1653" d="M59 1398h175l237 -893l355 883l355 -879l238 889h175l-380 -1419l-387 957l-387 -959z" />
<glyph unicode="X" horiz-adv-x="1106" d="M15 0l440 764l-366 634h194l269 -467l270 467h194l-367 -634l442 -764h-194l-345 595l-344 -595h-193z" />
<glyph unicode="Y" horiz-adv-x="1199" d="M32 1398h194l373 -646l374 646h194l-483 -836v-562h-169v562z" />
<glyph unicode="Z" horiz-adv-x="1169" d="M84 0l709 1229h-674v169h966l-710 -1229h675v-169h-966z" />
<glyph unicode="[" horiz-adv-x="458" d="M55 -110v1630h348v-169h-179v-1292h179v-169h-348z" />
<glyph unicode="\" horiz-adv-x="718" d="M-52 1398h189l633 -1398h-188z" />
<glyph unicode="]" horiz-adv-x="458" d="M55 59h179v1292h-179v169h348v-1630h-348v169z" />
<glyph unicode="^" horiz-adv-x="949" d="M98 868l307 530h140l306 -530h-196l-180 312l-181 -312h-196z" />
<glyph unicode="_" horiz-adv-x="820" d="M-45 71h910v-169h-910v169z" />
<glyph unicode="`" horiz-adv-x="665" d="M75 1297h299l216 -248h-191z" />
<glyph unicode="a" horiz-adv-x="1142" d="M74 472q0 206 145.5 350.5t349.5 144.5q206 0 315 -111v39h169v-895h-169v90q-109 -113 -315 -113q-204 0 -349.5 145.5t-145.5 349.5zM247 472q0 -133 94 -227t228 -94q133 0 227 95q71 70 88 158v136q-17 89 -88 159q-94 95 -227 95t-227.5 -94.5t-94.5 -227.5z" />
<glyph unicode="b" horiz-adv-x="1151" d="M99 0v1398h169v-542q110 111 315 111t349.5 -144.5t144.5 -350.5q0 -204 -144.5 -349.5t-349.5 -145.5t-315 108v-85h-169zM268 400q17 -85 87 -154q94 -95 228 -95q133 0 227 94t94 227t-94 227.5t-227 94.5q-134 0 -228 -95q-70 -69 -87 -156v-143z" />
<glyph unicode="c" horiz-adv-x="1039" d="M52 473q0 205 145.5 349.5t349.5 144.5q206 0 350 -145q30 -29 91 -112l-169 -62q-33 40 -45 53q-94 93 -227 93t-227 -94t-94 -227q0 -134 94 -228t227 -94t227 95q12 12 45 51l169 -62q-61 -83 -91 -112q-144 -146 -350 -146q-204 0 -349.5 145.5t-145.5 350.5z" />
<glyph unicode="d" horiz-adv-x="1142" d="M86 472q0 206 144.5 350.5t349.5 144.5t315 -111v542h169v-1398h-169v85q-110 -108 -315 -108t-349.5 145.5t-144.5 349.5zM259 472q0 -133 94 -227t227 -94q134 0 228 95q70 69 87 154v143q-17 87 -87 156q-94 95 -228 95q-133 0 -227 -94.5t-94 -227.5z" />
<glyph unicode="e" horiz-adv-x="1063" d="M52 472q0 206 145.5 350.5t349.5 144.5q206 0 350 -145q130 -130 130 -357h-805q3 -126 97 -220t228 -94q133 0 227 95q17 16 54 61l165 -58q-47 -79 -96 -126q-144 -146 -350 -146q-204 0 -349.5 145.5t-145.5 349.5zM260 636h571q-3 10 -57 63q-94 95 -227 95t-228 -94 q-57 -58 -59 -64z" />
<glyph unicode="f" horiz-adv-x="456" d="M22 726v169h81v170q7 110 84 189q82 75 187 75q54 0 158 -36l-56 -159q-72 31 -95 31q-39 0 -76 -33q-31 -31 -33 -75v-162h164v-169h-164v-726h-169v726h-81z" />
<glyph unicode="g" horiz-adv-x="1103" d="M52 472q0 206 145.5 350t349.5 144q205 0 312 -106l3 35h169v-668q0 -201 -142 -342q-145 -146 -350 -146t-350 146q-30 29 -91 112l169 62q32 -38 45 -51q94 -95 227 -95q132 0 310 148q-100 -77 -302 -84q-204 0 -349.5 145.5t-145.5 349.5zM225 472 q0 -133 94.5 -227.5t227.5 -94.5t227 95q69 68 87 154v144q-18 87 -87 156q-94 95 -227 95t-227.5 -94.5t-94.5 -227.5z" />
<glyph unicode="h" horiz-adv-x="902" d="M94 0v1398h169v-479q25 24 175 24q161 0 264 -102.5t106 -256.5v-584h-170v576q0 82 -59.5 140t-140.5 58t-140 -58q-27 -25 -35 -43v-673h-169z" />
<glyph unicode="i" horiz-adv-x="400" d="M79 1058q0 50 36 85t86 35q49 0 84.5 -35t35.5 -85q0 -51 -35.5 -86t-84.5 -35q-50 0 -86 35t-36 86zM116 0v895h168v-895h-168z" />
<glyph unicode="j" horiz-adv-x="362" d="M-11 -22q99 11 99 68v849h168v-847q0 -216 -267 -237v167zM51 1058q0 50 35.5 85t85.5 35q49 0 85 -35t36 -85q0 -51 -36 -86t-85 -35q-50 0 -85.5 35t-35.5 86z" />
<glyph unicode="k" horiz-adv-x="721" d="M99 0v1235h169v-527l152 187h217l-240 -296l339 -599h-201l-267 439v-439h-169z" />
<glyph unicode="l" horiz-adv-x="389" d="M110 0v1398h169v-1398h-169z" />
<glyph unicode="m" horiz-adv-x="1169" d="M99 0v895h109v-12q61 59 176 59q118 0 200 -83q83 83 201 83q119 0 202 -83q78 -81 83 -193v-666h-170l-1 713q-66 60 -114 60t-82.5 -34t-34.5 -86v-653h-168v653h1q-3 54 -35 86q-35 34 -82 34q-48 0 -82 -34q-30 -30 -34 -70v-669h-169z" />
<glyph unicode="n" horiz-adv-x="921" d="M99 0v895h169q32 48 185 48q161 0 264 -102.5t105 -257.5v-583h-168v576q0 82 -59.5 140t-141.5 58q-81 0 -141 -57q-33 -33 -44 -58v-659h-169z" />
<glyph unicode="o" horiz-adv-x="1133" d="M72 472q0 206 145.5 350.5t349.5 144.5q206 0 350 -145t144 -350q0 -204 -144 -349.5t-350 -145.5q-204 0 -349.5 145.5t-145.5 349.5zM245 472q0 -133 94 -227t228 -94q133 0 227 94t94 227t-94 227.5t-227 94.5t-227.5 -94.5t-94.5 -227.5z" />
<glyph unicode="p" horiz-adv-x="1130" d="M91 -503v1398h169v-85q110 108 315 108t349.5 -145.5t144.5 -349.5q0 -206 -144.5 -350.5t-349.5 -144.5t-315 111v-542h-169zM260 352q17 -87 87 -156q94 -95 228 -95q133 0 227 94.5t94 227.5t-94 227t-227 94q-134 0 -228 -95q-70 -69 -87 -154v-143z" />
<glyph unicode="q" horiz-adv-x="1127" d="M59 423q0 204 144.5 349.5t349.5 145.5t315 -108v85h169v-1398h-169v542q-110 -111 -315 -111t-349.5 144.5t-144.5 350.5zM232 423q0 -133 94 -227.5t227 -94.5q134 0 228 95q70 69 87 156v143q-17 85 -87 154q-94 95 -228 95q-133 0 -227 -94t-94 -227z" />
<glyph unicode="r" horiz-adv-x="503" d="M77 0v895h169v-145q47 124 164 161l92 -162q-110 -22 -162 -74q-90 -90 -94 -215v-460h-169z" />
<glyph unicode="s" horiz-adv-x="699" d="M55 306l168 43q0 -113 34.5 -147t82.5 -34q47 0 82 34t35 84q0 47 -35 81q-22 22 -96 69q-97 53 -138 94q-70 70 -70 169t70 170t169 71t166 -67q64 -65 64 -150v-36l-150 -61q-15 107 -32.5 125.5t-47.5 18.5q-29 0 -50 -21t-21 -50t22 -50q16 -18 75 -55 q109 -59 158 -108q83 -84 83 -200q0 -120 -83 -203.5t-201 -83.5q-119 0 -202 83.5t-83 223.5z" />
<glyph unicode="t" horiz-adv-x="559" d="M32 726v169h163v340h169v-340h163v-169h-163v-726h-169v726h-163z" />
<glyph unicode="u" horiz-adv-x="920" d="M87 349v547h169v-540q0 -82 60 -140q59 -59 148 -59q81 0 140.5 58.5t59.5 140.5v540h169v-547q-3 -156 -105 -258q-103 -102 -263 -102q-170 0 -272.5 102t-105.5 258z" />
<glyph unicode="v" horiz-adv-x="961" d="M12 895h191l277 -599l277 599h192l-469 -980z" />
<glyph unicode="w" horiz-adv-x="1206" d="M12 895h181l187 -514l140 384l83 232l85 -232l140 -384l186 514h180l-282 -778l-85 -231l-83 231l-140 383l-140 -383l-85 -231l-83 231z" />
<glyph unicode="x" horiz-adv-x="777" d="M12 0l42 72l251 394l-248 429h195l137 -235l135 235h195l-245 -429l291 -466h-196l-180 312l-181 -312h-196z" />
<glyph unicode="y" horiz-adv-x="870" d="M15 895h188l232 -493l233 493h187l-559 -1199h-188l233 500z" />
<glyph unicode="z" horiz-adv-x="830" d="M62 0l413 715h-378v168h670l-414 -714h410v-169h-701z" />
<glyph unicode="{" horiz-adv-x="702" d="M55 608v190q59 -6 65 -6q37 0 74 22q71 40 92 116q13 48 13 102q0 30 -4 60q-12 58 -12 112q0 59 15 112q29 108 130 164q64 36 134 36q19 0 85 -11v-168q-74 9 -84 9q-26 0 -51 -14q-38 -20 -49 -61q-9 -36 -9 -81q0 -22 1 -41q14 -60 14 -123q0 -72 -20 -142 q-40 -143 -108 -181q68 -38 108 -182q20 -69 20 -141q0 -62 -14 -122q-1 -19 -1 -42q0 -46 9 -81q11 -40 49 -61q26 -14 53 -14q9 0 82 9v-170q-67 -9 -85 -9q-70 0 -134 36q-101 57 -130 165q-15 53 -15 112q0 54 12 112q4 30 4 59q0 54 -13 102q-21 76 -92 116 q-37 22 -74 22q-6 0 -65 -6z" />
<glyph unicode="|" horiz-adv-x="279" d="M55 -114v1634h169v-1634h-169z" />
<glyph unicode="}" horiz-adv-x="702" d="M55 69q73 -9 82 -9q27 0 53 14q39 21 49 61q9 35 9 81v42q-14 60 -14 122q0 72 19 141q40 144 108 182q-68 38 -108 181q-19 70 -19 142q0 63 14 123v41q0 45 -9 81q-11 41 -48 61q-26 14 -52 14q-10 0 -84 -9v168q66 11 86 11q69 0 134 -36q100 -56 129 -164 q15 -53 15 -112q0 -54 -12 -112q-4 -30 -4 -60q0 -54 13 -102q22 -76 92 -116q38 -22 74 -22q6 0 65 6v-190q-59 6 -65 6q-36 0 -74 -22q-71 -40 -92 -116q-13 -48 -13 -102q0 -29 4 -59q12 -58 12 -112q0 -59 -15 -112q-29 -108 -129 -165q-65 -36 -134 -36q-19 0 -86 9 v170z" />
<glyph unicode="~" horiz-adv-x="1086" d="M75 583q4 90 23 137q46 111 157 148q28 9 61 9q98 0 250 -87q142 -83 199 -83q5 0 8 1q40 12 57 53q9 23 9 102l172 -28q-6 -89 -25 -137q-46 -111 -156 -148q-28 -8 -60 -8q-99 0 -251 86q-143 82 -199 82h-10q-38 -12 -54 -54q-10 -23 -10 -101z" />
<glyph unicode="&#xa1;" horiz-adv-x="352" d="M55 774q0 51 35.5 86t84.5 35q50 0 86 -35t36 -86q0 -50 -36 -85t-86 -35q-49 0 -84.5 35t-35.5 85zM93 -514v1073h169v-1073h-169z" />
<glyph unicode="&#xa2;" horiz-adv-x="1139" d="M176 912q0 170 121 291q92 91 174 106v140h168v-127q119 0 238 -120q23 -24 86 -105l-164 -61q-33 40 -41 49q-70 69 -119 69v-484q49 1 119 71q9 9 41 48l163 -59q-61 -83 -85 -108q-119 -119 -238 -120v-126h-168v139q-83 14 -174 107q-121 120 -121 290zM344 912 q0 -100 71 -171q51 -51 56 -52v446q-6 -1 -56 -51q-71 -71 -71 -172z" />
<glyph unicode="&#xa3;" horiz-adv-x="1129" d="M124 69q134 118 157 147q77 91 77 207q0 15 -1 28h-191v170h155q-4 12 -40 82q-95 155 -107 298q-2 18 -2 36q0 130 85 234q97 114 251 129h34q130 0 234 -86q116 -98 130 -249q2 -21 2 -41q0 -60 -38 -151l-158 52q25 73 25 108q0 10 -1 18q-7 81 -69 133 q-56 46 -124 46q-10 0 -19 -1q-82 -7 -133 -68q-46 -56 -46 -124v-21q8 -83 58 -189q73 -116 95 -206h171v-170h-142q1 -11 1 -22q0 -184 -55 -238l69 -8q63 0 126 -14q76 -17 143 -17q59 0 161 26l32 -168q-117 -28 -193 -28q-77 0 -159 19q-75 17 -130 17q-48 0 -80 -12 q-82 -30 -192 -85z" />
<glyph unicode="&#xa4;" horiz-adv-x="1142" d="M132 660l117 117q-56 68 -56 203t56 203l-117 116l121 120l115 -116q68 55 203 55t202 -55l117 116l120 -120l-116 -116q56 -68 56 -203t-56 -203l116 -117l-120 -119l-116 116q-68 -55 -203 -55t-203 56l-115 -117zM362 980q0 -72 41 -125q9 -11 21 -22q11 -12 22 -21 q53 -41 125 -41t125 41q12 9 24 20q10 10 18 23q42 53 42 125q0 71 -42 126q-9 13 -18 23q-10 9 -23 18q-55 42 -126 42q-72 0 -125 -42q-13 -9 -22 -18q-12 -12 -21 -24q-41 -54 -41 -125z" />
<glyph unicode="&#xa5;" horiz-adv-x="1199" d="M32 1398h194l373 -646l374 646h194l-377 -653h272v-169h-370l-8 -14v-78h374v-169h-374v-315h-169v315h-374v169h374v78l-8 14h-370v169h272z" />
<glyph unicode="&#xa6;" horiz-adv-x="279" d="M55 -305v757h169v-757h-169zM55 641v757h169v-757h-169z" />
<glyph unicode="&#xa7;" horiz-adv-x="1164" d="M140 882q0 181 117 299q1 157 95.5 252t229.5 95q133 0 229 -94q53 -51 88 -158l-154 -62q-28 77 -54 102q-45 45 -109 45t-109.5 -45t-45.5 -110q0 -64 45 -109q50 -49 137 -90q165 -53 280 -167q126 -127 126 -306q0 -181 -117 -299q-1 -157 -95.5 -252t-228.5 -95 t-229 94q-54 51 -87 160l152 59q28 -75 54 -102q45 -44 110 -44q64 0 109.5 45t45.5 110q0 64 -46 109q-49 49 -137 90q-164 53 -279 168q-127 126 -127 305zM308 882q0 -110 78 -188q73 -73 180 -117q148 -50 237 -138l45 95q0 109 -78 187q-74 74 -181 118 q-148 50 -236 138z" />
<glyph unicode="&#xa8;" horiz-adv-x="736" d="M75 1094q0 50 36 85t86 35q49 0 84.5 -35t35.5 -85q0 -52 -35.5 -87t-84.5 -35q-50 0 -86 35t-36 87zM419 1094q0 50 36 85t86 35q49 0 84.5 -35t35.5 -85q0 -52 -35.5 -87t-84.5 -35q-50 0 -86 35t-36 87z" />
<glyph unicode="&#xa9;" horiz-adv-x="1087" d="M0 539q0 225 159 384t384 159t384 -159t159 -384t-159 -384.5t-384 -159.5t-384 159.5t-159 384.5zM167 539q0 -156 110 -266.5t266 -110.5q157 0 266.5 110.5t109.5 266.5t-109.5 266.5t-266.5 110.5q-156 0 -266 -110.5t-110 -266.5zM228 539q0 134 95.5 228.5 t229.5 94.5t230 -95q18 -20 80 -102l-159 -59q-33 38 -40 46q-46 45 -111 45q-66 0 -113 -46t-47 -112t47 -113t113 -47q65 0 111 47q7 7 39 47l159 -61q-62 -83 -80 -102q-95 -95 -229 -95t-229.5 95t-95.5 229z" />
<glyph unicode="&#xaa;" horiz-adv-x="809" d="M74 1101q0 124 96 210.5t231 86.5q136 0 208 -67v24h111v-537h-111v54q-72 -68 -208 -68q-135 0 -231 87.5t-96 209.5zM170 466v169h455v-169h-455zM188 1101q0 -80 62 -136.5t151 -56.5q87 0 150 57q46 42 58 95v82q-12 53 -58 95q-63 57 -150 57q-88 0 -150.5 -56.5 t-62.5 -136.5z" />
<glyph unicode="&#xab;" horiz-adv-x="874" d="M55 439l478 513v-244l-250 -269l250 -267v-246zM335 439l484 512v-243l-250 -269l250 -267v-244z" />
<glyph unicode="&#xac;" horiz-adv-x="1103" d="M135 539v169h833v-481h-170v312h-663z" />
<glyph unicode="&#xad;" horiz-adv-x="652" d="M48 445v169h556v-169h-556z" />
<glyph unicode="&#xae;" horiz-adv-x="1086" d="M0 539q0 225 159 384t384 159t384 -159t159 -384t-159 -384.5t-384 -159.5t-384 159.5t-159 384.5zM167 539q0 -156 110 -266q52 -53 114 -80v600h183q77 -11 129 -63q62 -62 62 -150q0 -89 -62 -151l-41 -43l100 -155q25 19 48 42q109 110 109 266t-109.5 266.5 t-266.5 110.5q-156 0 -266 -110.5t-110 -266.5zM507 165l36 -3q72 0 114 18l-118 186h-32v-201zM507 482h45q40 0 68.5 28.5t28.5 69.5q0 40 -28.5 68.5t-68.5 28.5h-45v-195z" />
<glyph unicode="&#xaf;" horiz-adv-x="726" d="M75 1081v169h576v-169h-576z" />
<glyph unicode="&#xb0;" horiz-adv-x="455" d="M44 1163q0 74 53.5 128.5t129.5 54.5t130 -54.5t54 -128.5q0 -77 -54 -130.5t-130 -53.5t-129.5 53.5t-53.5 130.5zM200 1163q0 -12 8 -20.5t19 -8.5t19.5 8.5t8.5 20.5q0 11 -8 19t-20 8q-11 0 -19 -8t-8 -19z" />
<glyph unicode="&#xb1;" horiz-adv-x="1095" d="M85 0v169h378v276h-378v169h378v378h169v-378h378v-169h-378v-276h378v-169h-925z" />
<glyph unicode="&#xb2;" horiz-adv-x="530" d="M5 642q320 488 335 514.5t15 41.5q0 7 -2 17q-6 25 -26 38q-14 8 -30 8q-8 0 -15 -1q-23 -6 -37 -28q-8 -11 -17 -85l-163 23q10 108 38 152q51 80 141 101q28 6 53 6q65 0 120 -35q80 -50 100 -141q8 -31 8 -60q0 -56 -26.5 -103.5t-181.5 -281.5h208v-166h-520z" />
<glyph unicode="&#xb3;" horiz-adv-x="532" d="M5 906l163 58q13 -112 36 -135q27 -27 64 -27q38 0 64.5 26.5t26.5 65.5t-28 70t-91 43l-89 4v161q90 1 102 6t26.5 20.5t14.5 31.5q0 15 -10 25.5t-25 10.5q-14 0 -25 -11q-7 -7 -34 -76l-150 61q31 100 65 133q60 59 144 59t143.5 -59.5t59.5 -142.5q0 -82 -64 -160 q129 -71 129 -176q0 -108 -75.5 -183.5t-183.5 -75.5q-106 0 -183 75q-60 62 -80 196z" />
<glyph unicode="&#xb4;" horiz-adv-x="665" d="M75 1059l216 248h299l-325 -248h-190z" />
<glyph unicode="&#xb5;" horiz-adv-x="964" d="M78 -305v1200h169v-632q8 -18 35 -45q58 -56 140 -56t142 58q38 38 49 79v596h168v-895h-168v58q-30 -65 -191 -65q-150 0 -175 24v-322h-169z" />
<glyph unicode="&#xb6;" horiz-adv-x="1293" d="M77 999q0 196 138 335q116 115 284 138h21v1h696v-169h-119v-1609h-169v1609h-114v-1609h-188v831h-76q-196 0 -334.5 138.5t-138.5 334.5z" />
<glyph unicode="&#xb7;" horiz-adv-x="316" d="M55 699q0 43 30.5 72.5t73.5 29.5q41 0 71.5 -29.5t30.5 -72.5t-30.5 -72.5t-71.5 -29.5q-43 0 -73.5 29.5t-30.5 72.5z" />
<glyph unicode="&#xb8;" horiz-adv-x="522" d="M54 -258l109 61q25 -14 59 -14q35 0 59 14t24 34t-25.5 36t-83.5 23l-82 2v63l92 50h193l-132 -63q162 -17 192 -111q0 -56 -69 -95t-168 -39q-97 0 -168 39z" />
<glyph unicode="&#xb9;" horiz-adv-x="461" d="M5 635v165h145v355l-142 100l307 221v-676h141v-165h-451z" />
<glyph unicode="&#xba;" horiz-adv-x="797" d="M72 1101q0 124 96 210.5t231 86.5q136 0 231 -87t95 -210q0 -122 -95 -209.5t-231 -87.5q-135 0 -231 87.5t-96 209.5zM171 466v169h455v-169h-455zM186 1101q0 -80 62 -136.5t151 -56.5q87 0 149.5 56.5t62.5 136.5t-62.5 136.5t-149.5 56.5q-88 0 -150.5 -56.5 t-62.5 -136.5z" />
<glyph unicode="&#xbb;" horiz-adv-x="874" d="M55 -72v244l249 267l-249 269v243l484 -512zM341 -74v246l249 267l-249 269v244l478 -513z" />
<glyph unicode="&#xbc;" horiz-adv-x="1648" d="M5 0l1397 1398h241l-1400 -1398h-238zM166 635v165h145v358l-5 -3l-136 100l307 221v-676h141v-165h-452zM784 168l484 808v-643h62v-165h-62v-168h-165v168h-319zM1074 333h29v47z" />
<glyph unicode="&#xbd;" horiz-adv-x="1648" d="M5 0l1397 1398h241l-1400 -1398h-238zM166 635v165h145v358l-5 -3l-136 100l307 221v-676h141v-165h-452zM887 0q320 488 335 514.5t15 41.5q0 7 -2 17q-6 25 -26 37q-15 10 -30 10q-6 0 -14 -2q-25 -6 -38 -26q-8 -13 -17 -86l-163 23q9 108 38 152q51 79 140 100 q28 7 54 7q65 0 121 -37q79 -50 99 -139q7 -31 7 -61q0 -55 -26.5 -102.5t-180.5 -282.5h207v-166h-519z" />
<glyph unicode="&#xbe;" horiz-adv-x="1648" d="M5 0l1397 1398h241l-1400 -1398h-238zM187 878l163 59q13 -113 36 -136q27 -26 64 -26q38 0 65 26.5t27 64.5q0 39 -28.5 70t-91.5 43l-89 4v161q90 2 102.5 6.5t26.5 20t14 31.5t-10 26t-25 10q-14 0 -25 -11q-7 -6 -34 -75l-150 60q31 100 65 134q60 59 144 59 t144 -59.5t60 -143.5q0 -82 -65 -160q92 -30 129 -176q0 -107 -75.5 -183t-183.5 -76q-106 0 -183 76q-60 61 -80 195zM784 168l484 808v-643h62v-165h-62v-168h-165v168h-319zM1074 333h29v47z" />
<glyph unicode="&#xbf;" horiz-adv-x="856" d="M50 -134q0 111 67 212q56 78 192 186q79 71 101 104q26 36 26 78q0 13 -2 26l168 30q5 -29 5 -58q0 -94 -57 -174q-44 -64 -166 -162q-97 -88 -126 -129q-38 -54 -38 -115q0 -18 3 -37q15 -84 85 -133q56 -38 117 -38q18 0 37 3q81 15 130 84q40 57 40 112q0 13 -15 88 l177 -12q12 -59 12 -83q0 -98 -72 -202q-88 -128 -243 -155q-35 -6 -70 -6q-113 0 -211 67q-127 90 -154 246q-6 34 -6 68zM364 774q0 51 35.5 86t84.5 35q50 0 86 -35t36 -86q0 -50 -36 -85t-86 -35q-49 0 -84.5 35t-35.5 85z" />
<glyph unicode="&#xc0;" d="M65 0l522 1432l519 -1432h-179l-149 411h-384l-149 -411h-180zM242 1800h299l216 -248h-191zM456 579h260l-130 359z" />
<glyph unicode="&#xc1;" d="M65 0l522 1432l519 -1432h-179l-149 411h-384l-149 -411h-180zM414 1562l216 248h299l-325 -248h-190zM456 579h260l-130 359z" />
<glyph unicode="&#xc2;" d="M65 0l522 1432l519 -1432h-179l-149 411h-384l-149 -411h-180zM238 1544l279 286h125l292 -286h-218l-135 103l-127 -103h-216zM456 579h260l-130 359z" />
<glyph unicode="&#xc3;" d="M65 0l522 1432l519 -1432h-179l-149 411h-384l-149 -411h-180zM241 1552q3 74 17 112q33 91 115 121q21 7 45 7q72 0 185 -71q104 -68 146 -68q4 0 6 1q30 10 42 43q7 19 7 84l127 -23q-5 -73 -19 -112q-34 -90 -115 -120q-21 -7 -44 -7q-73 0 -185 70q-106 67 -147 67 h-7q-28 -10 -40 -44q-7 -19 -7 -82zM456 579h260l-130 359z" />
<glyph unicode="&#xc4;" d="M65 0l522 1432l519 -1432h-179l-149 411h-384l-149 -411h-180zM293 1597q0 50 36 85t86 35q49 0 84.5 -35t35.5 -85q0 -52 -35.5 -87t-84.5 -35q-50 0 -86 35t-36 87zM456 579h260l-130 359zM637 1597q0 50 36 85t86 35q49 0 84.5 -35t35.5 -85q0 -52 -35.5 -87 t-84.5 -35q-50 0 -86 35t-36 87z" />
<glyph unicode="&#xc5;" d="M65 0l522 1432l519 -1432h-179l-149 411h-384l-149 -411h-180zM410 1656q0 72 51.5 123.5t124.5 51.5t124 -51.5t51 -123.5q0 -73 -51 -124t-124 -51t-124.5 51t-51.5 124zM456 579h260l-130 359zM515 1656q0 -29 21 -49.5t50 -20.5t49.5 20.5t20.5 49.5t-20.5 49.5 t-49.5 20.5t-50 -20.5t-21 -49.5z" />
<glyph unicode="&#xc6;" horiz-adv-x="1458" d="M55 0l608 1398h740v-169h-578v-445h578v-170h-578v-445h578v-169h-746v499h-198l-222 -499h-182zM528 668h129v299z" />
<glyph unicode="&#xc7;" horiz-adv-x="1371" d="M74 699q0 295 209 505t506 210q276 0 520 -223l-128 -113q-186 165 -392 165q-225 0 -385 -159.5t-160 -384.5q0 -226 160 -385t385 -159q206 0 392 164l128 -113q-244 -222 -520 -222h-11l-76 -36q162 -17 192 -111q0 -56 -69 -95t-168 -39q-97 0 -168 39l109 61 q25 -14 59 -14q35 0 59 14t24 34t-25.5 36t-83.5 23l-82 2v63l75 41q-193 43 -341 191q-209 209 -209 506z" />
<glyph unicode="&#xc8;" horiz-adv-x="971" d="M112 0v1398h747v-169h-578v-445h578v-170h-578v-445h578v-169h-747zM142 1800h299l216 -248h-191z" />
<glyph unicode="&#xc9;" horiz-adv-x="971" d="M112 0v1398h747v-169h-578v-445h578v-170h-578v-445h578v-169h-747zM314 1562l216 248h299l-325 -248h-190z" />
<glyph unicode="&#xca;" horiz-adv-x="971" d="M112 0v1398h747v-169h-578v-445h578v-170h-578v-445h578v-169h-747zM138 1544l279 286h125l292 -286h-218l-135 103l-127 -103h-216z" />
<glyph unicode="&#xcb;" horiz-adv-x="971" d="M112 0v1398h747v-169h-578v-445h578v-170h-578v-445h578v-169h-747zM193 1597q0 50 36 85t86 35q49 0 84.5 -35t35.5 -85q0 -52 -35.5 -87t-84.5 -35q-50 0 -86 35t-36 87zM537 1597q0 50 36 85t86 35q49 0 84.5 -35t35.5 -85q0 -52 -35.5 -87t-84.5 -35q-50 0 -86 35 t-36 87z" />
<glyph unicode="&#xcc;" horiz-adv-x="413" d="M-137 1800h299l216 -248h-191zM122 0v1398h169v-1398h-169z" />
<glyph unicode="&#xcd;" horiz-adv-x="413" d="M35 1562l216 248h299l-325 -248h-190zM122 0v1398h169v-1398h-169z" />
<glyph unicode="&#xce;" horiz-adv-x="413" d="M-141 1544l279 286h125l292 -286h-218l-135 103l-127 -103h-216zM123 0v1398h169v-1398h-169z" />
<glyph unicode="&#xcf;" horiz-adv-x="413" d="M-86 1597q0 50 36 85t86 35q49 0 84.5 -35t35.5 -85q0 -52 -35.5 -87t-84.5 -35q-50 0 -86 35t-36 87zM123 0v1398h169v-1398h-169zM258 1597q0 50 36 85t86 35q49 0 84.5 -35t35.5 -85q0 -52 -35.5 -87t-84.5 -35q-50 0 -86 35t-36 87z" />
<glyph unicode="&#xd0;" horiz-adv-x="1246" d="M20 614v170h118v614h289q342 -2 532 -193q210 -211 210 -506q0 -297 -210 -506q-190 -191 -532 -193h-289v614h-118zM307 171h119q262 0 410 143q159 159 159 385q0 225 -159 385q-148 142 -410 142h-119v-442h454v-170h-454v-443z" />
<glyph unicode="&#xd1;" horiz-adv-x="1184" d="M109 0v1520l797 -1117v995h169v-1526l-797 1119v-991h-169zM247 1552q3 74 17 112q34 91 116 121q20 7 45 7q72 0 184 -71q105 -68 147 -68q3 0 6 1q29 10 42 43q6 19 6 84l127 -23q-4 -73 -18 -112q-34 -90 -115 -120q-21 -7 -45 -7q-73 0 -185 70q-105 67 -146 67h-8 q-28 -10 -40 -44q-7 -19 -7 -82z" />
<glyph unicode="&#xd2;" horiz-adv-x="1556" d="M62 701q0 296 210 506t506 210q297 0 506.5 -210t209.5 -506q0 -297 -209.5 -507t-506.5 -210q-296 0 -506 210t-210 507zM232 701q0 -226 160.5 -386t385.5 -160q226 0 386 160t160 386q0 225 -160 385t-386 160q-225 0 -385.5 -160t-160.5 -385zM435 1800h299l216 -248 h-191z" />
<glyph unicode="&#xd3;" horiz-adv-x="1556" d="M62 701q0 296 210 506t506 210q297 0 506.5 -210t209.5 -506q0 -297 -209.5 -507t-506.5 -210q-296 0 -506 210t-210 507zM232 701q0 -226 160.5 -386t385.5 -160q226 0 386 160t160 386q0 225 -160 385t-386 160q-225 0 -385.5 -160t-160.5 -385zM606 1562l216 248h299 l-325 -248h-190z" />
<glyph unicode="&#xd4;" horiz-adv-x="1556" d="M62 701q0 296 210 506t506 210q297 0 506.5 -210t209.5 -506q0 -297 -209.5 -507t-506.5 -210q-296 0 -506 210t-210 507zM232 701q0 -226 160.5 -386t385.5 -160q226 0 386 160t160 386q0 225 -160 385t-386 160q-225 0 -385.5 -160t-160.5 -385zM430 1544l279 286h125 l292 -286h-218l-135 103l-127 -103h-216z" />
<glyph unicode="&#xd5;" horiz-adv-x="1556" d="M62 701q0 296 210 506t506 210q297 0 506.5 -210t209.5 -506q0 -297 -209.5 -507t-506.5 -210q-296 0 -506 210t-210 507zM232 701q0 -226 160.5 -386t385.5 -160q226 0 386 160t160 386q0 225 -160 385t-386 160q-225 0 -385.5 -160t-160.5 -385zM433 1552q3 74 17 112 q34 91 116 121q20 7 45 7q72 0 184 -71q105 -68 147 -68q3 0 6 1q29 10 42 43q6 19 6 84l127 -23q-4 -73 -18 -112q-34 -90 -115 -120q-21 -7 -45 -7q-73 0 -185 70q-105 67 -146 67h-8q-28 -10 -40 -44q-7 -19 -7 -82z" />
<glyph unicode="&#xd6;" horiz-adv-x="1556" d="M62 701q0 296 210 506t506 210q297 0 506.5 -210t209.5 -506q0 -297 -209.5 -507t-506.5 -210q-296 0 -506 210t-210 507zM232 701q0 -226 160.5 -386t385.5 -160q226 0 386 160t160 386q0 225 -160 385t-386 160q-225 0 -385.5 -160t-160.5 -385zM485 1597q0 50 36 85 t86 35q49 0 84.5 -35t35.5 -85q0 -52 -35.5 -87t-84.5 -35q-50 0 -86 35t-36 87zM829 1597q0 50 36 85t86 35q49 0 84.5 -35t35.5 -85q0 -52 -35.5 -87t-84.5 -35q-50 0 -86 35t-36 87z" />
<glyph unicode="&#xd7;" horiz-adv-x="1151" d="M188 262l267 268l-267 267l121 119l266 -266l267 266l120 -119l-267 -267l267 -268l-120 -118l-267 266l-266 -266z" />
<glyph unicode="&#xd8;" horiz-adv-x="1628" d="M98 701q0 296 210 506t506 210q143 0 225 -33l71 151l153 -70l-71 -153q50 -27 129 -105q209 -210 209 -506q0 -297 -209.5 -507t-506.5 -210q-143 0 -225 34l-71 -153l-153 72l71 152q-50 28 -128 106q-210 209 -210 506zM268 701q0 -226 160 -386q59 -58 81 -71 l457 985q-44 17 -152 17q-225 0 -385.5 -160t-160.5 -385zM661 172q45 -17 153 -17q226 0 386 160t160 386q0 225 -160 386q-59 58 -80 70z" />
<glyph unicode="&#xd9;" d="M112 461v937h169v-937q0 -124 89.5 -213.5t214.5 -89.5q126 0 215 89.5t89 213.5v937h169v-987q-23 -168 -138 -284q-139 -138 -335 -138t-334.5 138.5t-138.5 333.5zM242 1800h299l216 -248h-191z" />
<glyph unicode="&#xda;" d="M112 461v937h169v-937q0 -124 89.5 -213.5t214.5 -89.5q126 0 215 89.5t89 213.5v937h169v-987q-23 -168 -138 -284q-139 -138 -335 -138t-334.5 138.5t-138.5 333.5zM413 1562l216 248h299l-325 -248h-190z" />
<glyph unicode="&#xdb;" d="M112 461v937h169v-937q0 -124 89.5 -213.5t214.5 -89.5q126 0 215 89.5t89 213.5v937h169v-987q-23 -168 -138 -284q-139 -138 -335 -138t-334.5 138.5t-138.5 333.5zM237 1544l279 286h125l292 -286h-218l-135 103l-127 -103h-216z" />
<glyph unicode="&#xdc;" d="M112 461v937h169v-937q0 -124 89.5 -213.5t214.5 -89.5q126 0 215 89.5t89 213.5v937h169v-987q-23 -168 -138 -284q-139 -138 -335 -138t-334.5 138.5t-138.5 333.5zM292 1597q0 50 36 85t86 35q49 0 84.5 -35t35.5 -85q0 -52 -35.5 -87t-84.5 -35q-50 0 -86 35t-36 87z M636 1597q0 50 36 85t86 35q49 0 84.5 -35t35.5 -85q0 -52 -35.5 -87t-84.5 -35q-50 0 -86 35t-36 87z" />
<glyph unicode="&#xdd;" horiz-adv-x="1199" d="M32 1398h194l373 -646l374 646h194l-483 -836v-562h-169v562zM428 1562l216 248h299l-325 -248h-190z" />
<glyph unicode="&#xde;" horiz-adv-x="980" d="M98 0v1398h169v-225h224q168 -23 284 -139q138 -138 138 -334q0 -197 -138.5 -335t-333.5 -138h-174v-227h-169zM267 396h174q124 0 213.5 89t89.5 215t-89 214.5t-214 88.5h-174v-607z" />
<glyph unicode="&#xdf;" horiz-adv-x="1010" d="M112 0v1152q15 75 62 132q85 104 219 120q20 2 40 2q112 0 201 -72q105 -85 119 -217q3 -24 3 -48q0 -103 -62 -225q252 -155 261 -382q3 -26 3 -52q0 -149 -97 -269q-113 -140 -293 -160q-26 -3 -52 -3q-114 0 -235 76v-54h-169zM281 191l39 47q109 -87 197 -87 q16 0 32 2q109 12 178 97q57 71 57 160q0 16 -1 34q-12 109 -98 184.5t-178 84t-102 81.5q-2 7 -2 18q0 60 66 94q37 19 80 77q33 44 33 95q0 8 -2 19q-7 64 -56 104q-41 32 -92 32q-9 0 -19 -1q-63 -6 -104 -55q-21 -27 -28 -52v-934z" />
<glyph unicode="&#xe0;" horiz-adv-x="1142" d="M74 472q0 206 145.5 350.5t349.5 144.5q206 0 315 -111v39h169v-895h-169v90q-109 -113 -315 -113q-204 0 -349.5 145.5t-145.5 349.5zM220 1297h299l216 -248h-191zM247 472q0 -133 94 -227t228 -94q133 0 227 95q71 70 88 158v136q-17 89 -88 159q-94 95 -227 95 t-227.5 -94.5t-94.5 -227.5z" />
<glyph unicode="&#xe1;" horiz-adv-x="1142" d="M74 472q0 206 145.5 350.5t349.5 144.5q206 0 315 -111v39h169v-895h-169v90q-109 -113 -315 -113q-204 0 -349.5 145.5t-145.5 349.5zM247 472q0 -133 94 -227t228 -94q133 0 227 95q71 70 88 158v136q-17 89 -88 159q-94 95 -227 95t-227.5 -94.5t-94.5 -227.5z M392 1059l216 248h299l-325 -248h-190z" />
<glyph unicode="&#xe2;" horiz-adv-x="1142" d="M74 472q0 206 145.5 350.5t349.5 144.5q206 0 315 -111v39h169v-895h-169v90q-109 -113 -315 -113q-204 0 -349.5 145.5t-145.5 349.5zM216 1041l279 286h125l292 -286h-218l-135 103l-127 -103h-216zM247 472q0 -133 94 -227t228 -94q133 0 227 95q71 70 88 158v136 q-17 89 -88 159q-94 95 -227 95t-227.5 -94.5t-94.5 -227.5z" />
<glyph unicode="&#xe3;" horiz-adv-x="1142" d="M74 472q0 206 145.5 350.5t349.5 144.5q206 0 315 -111v39h169v-895h-169v90q-109 -113 -315 -113q-204 0 -349.5 145.5t-145.5 349.5zM219 1049q2 74 16 112q34 91 116 121q21 7 45 7q72 0 184 -71q105 -68 147 -68q4 0 6 1q30 10 42 43q7 19 7 84l127 -23 q-5 -73 -19 -112q-34 -90 -115 -120q-21 -7 -44 -7q-73 0 -185 70q-106 67 -147 67h-7q-28 -10 -40 -44q-7 -19 -7 -82zM247 472q0 -133 94 -227t228 -94q133 0 227 95q71 70 88 158v136q-17 89 -88 159q-94 95 -227 95t-227.5 -94.5t-94.5 -227.5z" />
<glyph unicode="&#xe4;" horiz-adv-x="1142" d="M74 472q0 206 145.5 350.5t349.5 144.5q206 0 315 -111v39h169v-895h-169v90q-109 -113 -315 -113q-204 0 -349.5 145.5t-145.5 349.5zM247 472q0 -133 94 -227t228 -94q133 0 227 95q71 70 88 158v136q-17 89 -88 159q-94 95 -227 95t-227.5 -94.5t-94.5 -227.5z M271 1094q0 50 36 85t86 35q49 0 84.5 -35t35.5 -85q0 -52 -35.5 -87t-84.5 -35q-50 0 -86 35t-36 87zM615 1094q0 50 36 85t86 35q49 0 84.5 -35t35.5 -85q0 -52 -35.5 -87t-84.5 -35q-50 0 -86 35t-36 87z" />
<glyph unicode="&#xe5;" horiz-adv-x="1142" d="M74 472q0 206 145.5 350.5t349.5 144.5q206 0 315 -111v39h169v-895h-169v90q-109 -113 -315 -113q-204 0 -349.5 145.5t-145.5 349.5zM247 472q0 -133 94 -227t228 -94q133 0 227 95q71 70 88 158v136q-17 89 -88 159q-94 95 -227 95t-227.5 -94.5t-94.5 -227.5z M388 1153q0 72 51.5 123.5t124.5 51.5t124 -51.5t51 -123.5q0 -73 -51 -124t-124 -51t-124.5 51t-51.5 124zM493 1153q0 -29 21 -49.5t50 -20.5t49.5 20.5t20.5 49.5t-20.5 49.5t-49.5 20.5t-50 -20.5t-21 -49.5z" />
<glyph unicode="&#xe6;" horiz-adv-x="1723" d="M74 472q0 206 145.5 350.5t349.5 144.5q206 0 315 -111v89l168 -1q73 23 155 23q206 0 350 -145q130 -130 130 -357h-634v-277q69 -37 154 -37q133 0 227 95q17 16 54 61l165 -58q-47 -79 -96 -126q-144 -146 -350 -146q-81 0 -154 24v-1h-169v90q-109 -113 -315 -113 q-204 0 -349.5 145.5t-145.5 349.5zM247 472q0 -133 94 -227t228 -94q133 0 227 95q71 70 88 158v136q-17 89 -88 159q-94 95 -227 95t-227.5 -94.5t-94.5 -227.5zM1053 636h438q-3 10 -57 63q-94 95 -227 95q-85 0 -154 -38v-120z" />
<glyph unicode="&#xe7;" horiz-adv-x="1039" d="M52 473q0 205 145.5 349.5t349.5 144.5q206 0 350 -145q30 -29 91 -112l-169 -62q-33 40 -45 53q-94 93 -227 93t-227 -94t-94 -227q0 -134 94 -228t227 -94t227 95q12 12 45 51l169 -62q-61 -83 -91 -112q-127 -128 -301 -144l-66 -31q162 -17 193 -111q0 -56 -69.5 -95 t-168.5 -39q-97 0 -167 39l109 61q24 -14 58 -14q35 0 59.5 14t24.5 34t-26 36t-83 23l-82 2v63l53 29q-131 30 -233 133q-146 145 -146 350z" />
<glyph unicode="&#xe8;" horiz-adv-x="1063" d="M52 472q0 206 145.5 350.5t349.5 144.5q206 0 350 -145q130 -130 130 -357h-805q3 -126 97 -220t228 -94q133 0 227 95q17 16 54 61l165 -58q-47 -79 -96 -126q-144 -146 -350 -146q-204 0 -349.5 145.5t-145.5 349.5zM196 1297h299l216 -248h-191zM260 636h571 q-3 10 -57 63q-94 95 -227 95t-228 -94q-57 -58 -59 -64z" />
<glyph unicode="&#xe9;" horiz-adv-x="1063" d="M52 472q0 206 145.5 350.5t349.5 144.5q206 0 350 -145q130 -130 130 -357h-805q3 -126 97 -220t228 -94q133 0 227 95q17 16 54 61l165 -58q-47 -79 -96 -126q-144 -146 -350 -146q-204 0 -349.5 145.5t-145.5 349.5zM260 636h571q-3 10 -57 63q-94 95 -227 95t-228 -94 q-57 -58 -59 -64zM368 1059l216 248h299l-325 -248h-190z" />
<glyph unicode="&#xea;" horiz-adv-x="1063" d="M52 472q0 206 145.5 350.5t349.5 144.5q206 0 350 -145q130 -130 130 -357h-805q3 -126 97 -220t228 -94q133 0 227 95q17 16 54 61l165 -58q-47 -79 -96 -126q-144 -146 -350 -146q-204 0 -349.5 145.5t-145.5 349.5zM192 1041l279 286h125l292 -286h-218l-135 103 l-127 -103h-216zM260 636h571q-3 10 -57 63q-94 95 -227 95t-228 -94q-57 -58 -59 -64z" />
<glyph unicode="&#xeb;" horiz-adv-x="1063" d="M52 472q0 206 145.5 350.5t349.5 144.5q206 0 350 -145q130 -130 130 -357h-805q3 -126 97 -220t228 -94q133 0 227 95q17 16 54 61l165 -58q-47 -79 -96 -126q-144 -146 -350 -146q-204 0 -349.5 145.5t-145.5 349.5zM247 1094q0 50 36 85t86 35q49 0 84.5 -35t35.5 -85 q0 -52 -35.5 -87t-84.5 -35q-50 0 -86 35t-36 87zM260 636h571q-3 10 -57 63q-94 95 -227 95t-228 -94q-57 -58 -59 -64zM591 1094q0 50 36 85t86 35q49 0 84.5 -35t35.5 -85q0 -52 -35.5 -87t-84.5 -35q-50 0 -86 35t-36 87z" />
<glyph unicode="&#xec;" horiz-adv-x="400" d="M-143 1297h299l216 -248h-191zM116 0v895h168v-895h-168z" />
<glyph unicode="&#xed;" horiz-adv-x="400" d="M28 1059l216 248h299l-325 -248h-190zM116 0v895h168v-895h-168z" />
<glyph unicode="&#xee;" horiz-adv-x="400" d="M-148 1041l279 286h125l292 -286h-218l-135 103l-127 -103h-216zM116 0v895h168v-895h-168z" />
<glyph unicode="&#xef;" horiz-adv-x="400" d="M-93 1094q0 50 36 85t86 35q49 0 84.5 -35t35.5 -85q0 -52 -35.5 -87t-84.5 -35q-50 0 -86 35t-36 87zM116 0v895h168v-895h-168zM251 1094q0 50 36 85t86 35q49 0 84.5 -35t35.5 -85q0 -52 -35.5 -87t-84.5 -35q-50 0 -86 35t-36 87z" />
<glyph unicode="&#xf1;" horiz-adv-x="921" d="M99 0v895h169q32 48 185 48q161 0 264 -102.5t105 -257.5v-583h-168v576q0 82 -59.5 140t-141.5 58q-81 0 -141 -57q-33 -33 -44 -58v-659h-169zM116 1049q2 74 16 112q34 91 116 121q21 7 45 7q72 0 184 -71q105 -68 147 -68q4 0 6 1q30 10 42 43q7 19 7 84l127 -23 q-5 -73 -19 -112q-34 -90 -115 -120q-21 -7 -44 -7q-73 0 -185 70q-106 67 -147 67h-7q-28 -10 -40 -44q-7 -19 -7 -82z" />
<glyph unicode="&#xf2;" horiz-adv-x="1133" d="M72 472q0 206 145.5 350.5t349.5 144.5q206 0 350 -145t144 -350q0 -204 -144 -349.5t-350 -145.5q-204 0 -349.5 145.5t-145.5 349.5zM223 1297h299l216 -248h-191zM245 472q0 -133 94 -227t228 -94q133 0 227 94t94 227t-94 227.5t-227 94.5t-227.5 -94.5t-94.5 -227.5 z" />
<glyph unicode="&#xf3;" horiz-adv-x="1133" d="M72 472q0 206 145.5 350.5t349.5 144.5q206 0 350 -145t144 -350q0 -204 -144 -349.5t-350 -145.5q-204 0 -349.5 145.5t-145.5 349.5zM245 472q0 -133 94 -227t228 -94q133 0 227 94t94 227t-94 227.5t-227 94.5t-227.5 -94.5t-94.5 -227.5zM395 1059l216 248h299 l-325 -248h-190z" />
<glyph unicode="&#xf4;" horiz-adv-x="1133" d="M72 472q0 206 145.5 350.5t349.5 144.5q206 0 350 -145t144 -350q0 -204 -144 -349.5t-350 -145.5q-204 0 -349.5 145.5t-145.5 349.5zM219 1041l279 286h125l292 -286h-218l-135 103l-127 -103h-216zM245 472q0 -133 94 -227t228 -94q133 0 227 94t94 227t-94 227.5 t-227 94.5t-227.5 -94.5t-94.5 -227.5z" />
<glyph unicode="&#xf5;" horiz-adv-x="1133" d="M72 472q0 206 145.5 350.5t349.5 144.5q206 0 350 -145t144 -350q0 -204 -144 -349.5t-350 -145.5q-204 0 -349.5 145.5t-145.5 349.5zM222 1049q2 74 16 112q34 91 116 121q21 7 45 7q72 0 184 -71q105 -68 147 -68q4 0 6 1q30 10 42 43q7 19 7 84l127 -23 q-5 -73 -19 -112q-34 -90 -115 -120q-21 -7 -44 -7q-73 0 -185 70q-106 67 -147 67h-7q-28 -10 -40 -44q-7 -19 -7 -82zM245 472q0 -133 94 -227t228 -94q133 0 227 94t94 227t-94 227.5t-227 94.5t-227.5 -94.5t-94.5 -227.5z" />
<glyph unicode="&#xf6;" horiz-adv-x="1133" d="M72 472q0 206 145.5 350.5t349.5 144.5q206 0 350 -145t144 -350q0 -204 -144 -349.5t-350 -145.5q-204 0 -349.5 145.5t-145.5 349.5zM245 472q0 -133 94 -227t228 -94q133 0 227 94t94 227t-94 227.5t-227 94.5t-227.5 -94.5t-94.5 -227.5zM274 1094q0 50 36 85t86 35 q49 0 84.5 -35t35.5 -85q0 -52 -35.5 -87t-84.5 -35q-50 0 -86 35t-36 87zM618 1094q0 50 36 85t86 35q49 0 84.5 -35t35.5 -85q0 -52 -35.5 -87t-84.5 -35q-50 0 -86 35t-36 87z" />
<glyph unicode="&#xf7;" horiz-adv-x="1095" d="M85 445v169h925v-169h-925zM427 246q0 50 35.5 85.5t85.5 35.5q49 0 85 -35.5t36 -85.5q0 -51 -36 -86t-85 -35q-50 0 -85.5 35t-35.5 86zM427 814q0 51 35.5 86t85.5 35q49 0 85 -35t36 -86q0 -50 -36 -85t-85 -35q-50 0 -85.5 35t-35.5 85z" />
<glyph unicode="&#xf8;" horiz-adv-x="1099" d="M55 473q0 205 145.5 350t349.5 145q116 0 174 -28l99 175l149 -79l-104 -180q176 -178 176 -383q0 -204 -144 -349.5t-350 -145.5q-116 0 -173 28l-100 -173l-151 71l106 187q-177 178 -177 382zM228 473q0 -134 92 -231l315 547q-13 5 -85 5q-133 0 -227.5 -94 t-94.5 -227zM465 157q19 -1 37 -1q175 0 267 87q102 96 102 230q0 133 -90 231z" />
<glyph unicode="&#xf9;" horiz-adv-x="920" d="M87 349v547h169v-540q0 -82 60 -140q59 -59 148 -59q81 0 140.5 58.5t59.5 140.5v540h169v-547q-3 -156 -105 -258q-103 -102 -263 -102q-170 0 -272.5 102t-105.5 258zM117 1297h299l216 -248h-191z" />
<glyph unicode="&#xfa;" horiz-adv-x="920" d="M87 349v547h169v-540q0 -82 60 -140q59 -59 148 -59q81 0 140.5 58.5t59.5 140.5v540h169v-547q-3 -156 -105 -258q-103 -102 -263 -102q-170 0 -272.5 102t-105.5 258zM288 1059l216 248h299l-325 -248h-190z" />
<glyph unicode="&#xfb;" horiz-adv-x="920" d="M87 349v547h169v-540q0 -82 60 -140q59 -59 148 -59q81 0 140.5 58.5t59.5 140.5v540h169v-547q-3 -156 -105 -258q-103 -102 -263 -102q-170 0 -272.5 102t-105.5 258zM112 1041l279 286h125l292 -286h-218l-135 103l-127 -103h-216z" />
<glyph unicode="&#xfc;" horiz-adv-x="920" d="M87 349v547h169v-540q0 -82 60 -140q59 -59 148 -59q81 0 140.5 58.5t59.5 140.5v540h169v-547q-3 -156 -105 -258q-103 -102 -263 -102q-170 0 -272.5 102t-105.5 258zM167 1094q0 50 36 85t86 35q49 0 84.5 -35t35.5 -85q0 -52 -35.5 -87t-84.5 -35q-50 0 -86 35 t-36 87zM511 1094q0 50 36 85t86 35q49 0 84.5 -35t35.5 -85q0 -52 -35.5 -87t-84.5 -35q-50 0 -86 35t-36 87z" />
<glyph unicode="&#xfd;" horiz-adv-x="870" d="M15 895h188l232 -493l233 493h187l-559 -1199h-188l233 500zM263 1059l216 248h299l-325 -248h-190z" />
<glyph unicode="&#xfe;" horiz-adv-x="1130" d="M91 -503l4 1901h174v-579q109 99 306 99q205 0 349.5 -145.5t144.5 -349.5q0 -206 -144.5 -350.5t-349.5 -144.5q-197 0 -306 72h-9v-503h-169zM269 318q22 -67 78 -122q94 -95 228 -95q133 0 227 94.5t94 227.5t-94 227t-227 94q-134 0 -228 -95q-56 -55 -78 -120v-211z " />
<glyph unicode="&#xff;" horiz-adv-x="870" d="M15 895h188l232 -493l233 493h187l-559 -1199h-188l233 500zM142 1094q0 50 36 85t86 35q49 0 84.5 -35t35.5 -85q0 -52 -35.5 -87t-84.5 -35q-50 0 -86 35t-36 87zM486 1094q0 50 36 85t86 35q49 0 84.5 -35t35.5 -85q0 -52 -35.5 -87t-84.5 -35q-50 0 -86 35t-36 87z " />
<glyph unicode="&#x152;" horiz-adv-x="1965" d="M88 701q0 296 210 506t506 210q117 0 215 -19h858v-169h-560q191 -219 200 -445h360v-170h-360q-11 -225 -200 -445h560v-169h-859q-98 -16 -214 -16q-296 0 -506 210t-210 507zM258 701q0 -226 160.5 -386t385.5 -160q105 0 194 32q34 14 67 32q66 37 125 96 q147 147 159 350q1 17 1 36q0 16 -1 32q-11 205 -159 354q-59 58 -125 94q-33 18 -67 32q-90 33 -194 33q-225 0 -385.5 -160t-160.5 -385z" />
<glyph unicode="&#x153;" horiz-adv-x="1789" d="M66 472q0 206 145.5 350.5t349.5 144.5q206 0 350 -141l1 -4q145 145 350 145t350 -145q129 -129 136 -357l-690 1q-3 -122 -46 -199q117 -116 250 -116t227 95q17 16 54 61l164 -59q-47 -78 -95 -125q-145 -146 -350 -146t-351 143l1 3q-145 -146 -351 -146 q-204 0 -349.5 145.5t-145.5 349.5zM239 472q0 -133 94 -227t228 -94q133 0 227 94t94 227t-94 227.5t-227 94.5t-227.5 -94.5t-94.5 -227.5zM1031 636h515q-96 158 -284 158q-133 0 -231 -158z" />
<glyph unicode="&#x178;" horiz-adv-x="1199" d="M32 1398h194l373 -646l374 646h194l-483 -836v-562h-169v562zM307 1597q0 50 36 85t86 35q49 0 84.5 -35t35.5 -85q0 -52 -35.5 -87t-84.5 -35q-50 0 -86 35t-36 87zM651 1597q0 50 36 85t86 35q49 0 84.5 -35t35.5 -85q0 -52 -35.5 -87t-84.5 -35q-50 0 -86 35t-36 87z " />
<glyph unicode="&#x2c6;" horiz-adv-x="847" d="M75 1041l279 286h125l292 -286h-218l-135 103l-127 -103h-216z" />
<glyph unicode="&#x2dc;" horiz-adv-x="840" d="M75 1049q3 74 17 112q34 91 116 121q20 7 45 7q72 0 184 -71q105 -68 147 -68q3 0 6 1q29 10 42 43q6 19 6 84l127 -23q-4 -73 -18 -112q-34 -90 -115 -120q-21 -7 -45 -7q-73 0 -185 70q-105 67 -146 67h-8q-28 -10 -40 -44q-7 -19 -7 -82z" />
<glyph unicode="&#x2000;" horiz-adv-x="915" />
<glyph unicode="&#x2001;" horiz-adv-x="1831" />
<glyph unicode="&#x2002;" horiz-adv-x="915" />
<glyph unicode="&#x2003;" horiz-adv-x="1831" />
<glyph unicode="&#x2004;" horiz-adv-x="610" />
<glyph unicode="&#x2005;" horiz-adv-x="457" />
<glyph unicode="&#x2006;" horiz-adv-x="305" />
<glyph unicode="&#x2007;" horiz-adv-x="305" />
<glyph unicode="&#x2008;" horiz-adv-x="228" />
<glyph unicode="&#x2009;" horiz-adv-x="366" />
<glyph unicode="&#x200a;" horiz-adv-x="101" />
<glyph unicode="&#x2010;" horiz-adv-x="652" d="M48 445v169h556v-169h-556z" />
<glyph unicode="&#x2011;" horiz-adv-x="652" d="M48 445v169h556v-169h-556z" />
<glyph unicode="&#x2012;" horiz-adv-x="652" d="M48 445v169h556v-169h-556z" />
<glyph unicode="&#x2013;" horiz-adv-x="723" d="M0 445v169h723v-169h-723z" />
<glyph unicode="&#x2014;" horiz-adv-x="1251" d="M0 445v169h1251v-169h-1251z" />
<glyph unicode="&#x2018;" horiz-adv-x="351" d="M48 1166q0 26 9 52l95 189h151l-50 -134q-4 1 -6 1q-5 0 -5 -3q0 -5 13 -18q35 -36 35 -87q0 -50 -35.5 -85t-84.5 -35q-50 0 -86 35t-36 85z" />
<glyph unicode="&#x2019;" horiz-adv-x="351" d="M48 1046l51 134q3 -1 5 -1q5 0 5 4q0 5 -12 18q-36 34 -36 86q0 51 36 85.5t86 34.5q48 0 84 -34.5t36 -85.5q0 -26 -9 -51l-95 -190h-151z" />
<glyph unicode="&#x201a;" horiz-adv-x="351" d="M48 -133l51 135q3 -1 6 -1q4 0 4 3q0 5 -12 18q-36 35 -36 86q0 50 36 85t86 35q49 0 84.5 -35t35.5 -85q0 -26 -9 -51l-95 -190h-151z" />
<glyph unicode="&#x201c;" horiz-adv-x="708" d="M48 1166q0 26 9 52l95 189h151l-50 -134q-4 1 -6 1q-5 0 -5 -3q0 -5 13 -18q35 -36 35 -87q0 -50 -35.5 -85t-84.5 -35q-50 0 -86 35t-36 85zM405 1166q0 26 9 52l95 189h151l-50 -134q-4 1 -6 1q-5 0 -5 -3q0 -5 13 -18q35 -36 35 -87q0 -50 -35.5 -85t-84.5 -35 q-50 0 -86 35t-36 85z" />
<glyph unicode="&#x201d;" horiz-adv-x="708" d="M48 1046l51 134q3 -1 5 -1q5 0 5 4q0 5 -12 18q-36 34 -36 86q0 51 36 85.5t86 34.5q48 0 84 -34.5t36 -85.5q0 -26 -9 -51l-95 -190h-151zM405 1046l51 134q3 -1 5 -1q5 0 5 4q0 5 -12 18q-36 34 -36 86q0 51 36 85.5t86 34.5q48 0 84 -34.5t36 -85.5q0 -26 -9 -51 l-95 -190h-151z" />
<glyph unicode="&#x201e;" horiz-adv-x="708" d="M48 -180l51 134q3 -1 5 -1q5 0 5 4q0 5 -12 18q-36 34 -36 86q0 51 36 85.5t86 34.5q48 0 84 -34.5t36 -85.5q0 -26 -9 -51l-95 -190h-151zM405 -180l51 134q3 -1 5 -1q5 0 5 4q0 5 -12 18q-36 34 -36 86q0 51 36 85.5t86 34.5q48 0 84 -34.5t36 -85.5q0 -26 -9 -51 l-95 -190h-151z" />
<glyph unicode="&#x2022;" horiz-adv-x="2623" d="M148 -53q18 9 25 13.5t7 7.5v159q0 20 -30 29q78 37 111 60q16 -2 20 -46v-2q12 5 23 10l102 38q7 -38 16 -68t18 -87q1 -11 1 -21q0 -48 -32 -98q-40 -62 -113 -126q46 85 46 158q0 20 -3 39q-16 89 -27 112q-31 -23 -31 -47v-103q0 -3 3.5 -11t31.5 -15q-28 -9 -76 -38 q-15 -9 -29 -9q-32 0 -63 45zM206 965v25q198 54 260 129q65 93 154 93h7q117 0 117 -69q0 -21 -18 -42v-7q19 -111 99 -111l-62 266q21 0 74 80l223 267h482q25 -20 223 -292q49 -53 49 -79v-13l-44 -161l13 -37l-25 -37h7q104 43 104 117v7q-17 21 -17 42q0 69 116 69h7 q92 0 186 -123q60 -50 228 -99v-25q-18 0 -18 -12l5 -8v-5q-5 -25 -37 -25h-12l-191 -12q-28 25 -94 25l-54 25l-7 -20q23 -74 106 -74l17 -5q69 5 69 17v7l-12 18v7l25 -12l30 5h99l37 7l19 -7v-12q0 -36 -180 -62l-111 7v-20q100 -30 167 -30h38v-7q-46 -62 -144 -62h-24 q-62 0 -142 32v-7q0 -32 142 -79q0 -25 -67 -32q-39 0 -168 56q0 -30 61 -81l-17 -12l-119 37v-5l20 -50l-25 -7q-33 0 -118 111l-55 -272v-5h-656q-33 0 -74 260q-65 -83 -106 -94l-25 7l20 55h-7q-76 -37 -117 -37l-12 19q62 37 62 74h-8q-113 -56 -166 -56q-62 7 -62 32 q142 47 142 79v7h-5q-64 -32 -137 -32h-24q-97 0 -143 62v7h37q67 0 168 30v20l-124 -7q-168 30 -168 62v12h12v7l45 -7h99l24 -5l30 12v-7l-12 -18v-7q0 -12 62 -17q131 10 131 91l-8 8q-45 -25 -123 -32q0 -9 -25 -18l-191 12h-12q-32 0 -37 25l5 18zM392 970l12 -12h80 l19 19v13h-12v5l-99 -18v-7zM416 -140q1 59 61 85q-7 20 -7 23v159q0 20 -30 29q77 37 111 60q16 -2 19 -46v-195q2 -15 12 -15t29 17v150q0 20 -30 29q78 37 111 60q16 -2 20 -46v-159q0 -45 -70 -77t-111 -32h-4q-38 0 -47 -29q-2 -7 -2 -13q0 -20 23 -29q8 -3 18 -3 q25 0 60 20q30 18 56 18q16 0 29 -7q16 -7 27 -29q4 -8 4 -17q0 -12 -8 -23q-14 -14 -29 -14q-7 0 -15 3q-23 14 -37 46q-2 3 -5 3t-9 -6q-47 -47 -91 -47q-15 0 -29 5q-56 20 -56 78v2zM478 760h80q80 0 111 69v42h-5l-99 -42q0 -13 -69 -37l-18 -20v-12zM627 1163l18 -37 l61 24v18h-79v-5zM632 921l7 -6h25l12 13l-19 42h-12zM639 705l6 -7v-5q99 35 99 111v5h-6q-56 -37 -99 -99v-5zM701 854h18l12 12v12q0 9 -25 18l-5 -5v-37zM721 -53q15 9 23 13.5t8 7.5v159q0 20 -30 29q76 37 112 60q16 -2 19 -46v-2q11 5 23 10l76 38q2 -7 25 -38 q7 -7 10 -14q16 7 34 14l76 38q0 -7 23 -36.5t23 -45.5v-159q0 -3 3 -11q4 -7 29 -14v177q0 20 -30 29q77 37 111 60q12 -27 25 -46q10 3 21 8l101 38q7 -38 26 -101q9 -29 9 -54q0 -27 -11 -49q-24 -53 -84 -84q-39 -20 -68 -27v-51q0 -6 4 -13.5t32 -13.5q-28 -10 -75 -39 q-14 -9 -29 -9q-32 0 -64 47q18 7 25 12t7 7v107q-28 -10 -73 -38q-10 -6 -21 -6q-22 0 -39 32v128q-3 26 -30 61q-9 -12 -12 -33v-117q0 -3 3.5 -11t31.5 -15q-28 -9 -76 -39q-11 -6 -21 -6q-23 0 -39 32v128q-3 26 -30 61q-16 -12 -16 -33v-117q0 -3 3.5 -11t16.5 -15 q-13 -9 -61 -38q-15 -9 -29 -9q-32 0 -62 45zM751 673h5l56 20v67h-7q-54 -28 -54 -87zM768 829l20 -20h5l12 13v7l-17 17h-7l-13 -12v-5zM843 673l7 -5v-7q24 9 37 32v24l-13 13l-31 -32v-25zM843 785l7 -6h5l12 13l-12 12zM855 1279h19q170 202 211 267q-20 0 -20 18h-5 q-99 -99 -99 -136q-106 -117 -106 -149zM867 1193h7l6 -5h7q0 30 79 116l143 198l-12 12l-57 -74q-153 -191 -173 -247zM904 1039q60 -401 174 -433l-167 451h-7v-18zM917 1188l198 -569h358q82 224 168 537l-62 99q-143 221 -143 242h-297l-222 -304v-5zM1060 445l25 -7 l129 62v7q0 13 -75 25q-30 0 -79 -81v-6zM1109 850v5q57 135 57 181q-37 79 -37 111q30 161 161 161h3q157 0 157 -161q0 -30 -44 -124v-7l62 -166h-359zM1127 581l12 -12h273l61 5v7h-346zM1279 60q0 -19 12 -41q13 -21 32 -21q25 4 27 32q-4 28 -18 51q-12 21 -23 44 q-30 -23 -30 -65zM1382 500l136 -62l17 7v6q-32 60 -74 81q-79 -12 -79 -25v-7zM1422 -53q18 9 25 13.5t7 7.5v339q0 20 -30 31q78 37 110 46q17 -25 38 -50q-17 -4 -17 -19v-142q7 4 16 7l100 37q7 -37 16 -67q11 -30 19 -70q2 -8 2 -17q0 -36 -24 -88q-30 -65 -108 -123 q37 71 37 131q0 23 -5 44q-20 77 -30 100q-16 -10 -23 -23v-129q0 -3 3.5 -11t31.5 -15q-28 -9 -76 -38q-15 -9 -29 -9q-32 0 -63 45zM1456 1509l161 -254q49 -75 79 -75l25 20l-228 339zM1523 1539q171 -226 205 -252v5q-154 231 -205 267v-20zM1535 643h7q87 0 149 396 q-6 43 -20 43q-37 -50 -136 -409v-30zM1696 717q0 -28 50 -56l7 7v30l-45 37q-12 0 -12 -18zM1718 26q0 32 13 61q25 54 115 91l103 38q5 -38 25 -101q9 -29 9 -54q0 -27 -11 -49q-25 -53 -85 -84q-56 -29 -91 -29h-7q-36 4 -59 64q-12 33 -12 63zM1728 792l12 -13l13 13 l-20 12l-5 -7v-5zM1783 693l56 -20h6v7q0 50 -55 80h-7v-67zM1790 822l12 -13h5l20 20v5l-13 12h-7l-17 -17v-7zM1823 60q0 -19 13 -41q12 -21 33 -21q25 4 25 32q-4 28 -18 51q-12 21 -23 44q-30 -23 -30 -65zM1852 804q0 -76 99 -111l5 5v12q-43 62 -99 99h-5v-5z M1864 866l12 -12h18v30l-18 19l-12 -12v-25zM1889 1150l62 -24l17 37v5h-79v-18zM1913 933l18 -18h20l12 13l-12 42h-20q-18 -5 -18 -37zM1926 854q0 -80 104 -94h87v12q-23 27 -87 50q0 17 -74 32l-25 17h-5v-17zM1979 -53q17 9 24.5 13.5t7.5 7.5v159q0 20 -30 29 q77 37 111 60q16 -2 19 -46v-2q13 5 25 10l101 38q7 -38 16 -68q10 -30 18 -87q2 -10 2 -19q0 -49 -33 -100q-39 -62 -113 -126q46 85 46 158q0 20 -3 39q-16 89 -27 112q-30 -23 -30 -47h-2v-103q0 -3 3.5 -11t32.5 -15q-27 -9 -75 -38q-15 -9 -29 -9q-32 0 -64 45z M2092 977l19 -19h80l12 12v7l-92 18l-19 -5v-13zM2278 117q0 16 8 33q7 14 25 23q5 2 9 4v58q0 57 33 99q34 42 114 48q-46 -50 -46 -140v-76q21 9 38 20q8 -18 8 -35q0 -18 -8 -34q-7 -15 -24 -23q-7 -4 -14 -4v-78q2 -27 23 -27q12 0 31 10q-23 -48 -67 -81 q-15 -10 -32 -10q-38 0 -88 43q18 9 25 13.5t7 7.5v131q-16 -7 -34 -18q-8 18 -8 36z" />
<glyph unicode="&#x2026;" horiz-adv-x="2025" d="M98 110q0 50 36 85t86 35q49 0 84.5 -35t35.5 -85q0 -51 -35.5 -86t-84.5 -35q-50 0 -86 35t-36 86zM727 110q0 50 36 85t86 35q49 0 84.5 -35t35.5 -85q0 -51 -35.5 -86t-84.5 -35q-50 0 -86 35t-36 86zM1356 110q0 50 36 85t86 35q49 0 85 -35t36 -85q0 -51 -36 -86 t-85 -35q-50 0 -86 35t-36 86z" />
<glyph unicode="&#x202f;" horiz-adv-x="366" />
<glyph unicode="&#x2039;" horiz-adv-x="588" d="M55 439l478 513v-244l-250 -269l250 -267v-246z" />
<glyph unicode="&#x203a;" horiz-adv-x="588" d="M55 -74v246l250 267l-250 269v244l478 -513z" />
<glyph unicode="&#x205f;" horiz-adv-x="457" />
<glyph unicode="&#x20ac;" horiz-adv-x="1104" d="M-42 449l33 169h152q-1 34 -1 70v8h-136l33 170h110q25 274 134 387q141 145 339 145q201 0 372 -178l-119 -125q-125 129 -253 129t-219 -93q-65 -67 -84 -265h304l-33 -170h-278v-8q0 -36 1 -70h262l-33 -169h-215q21 -148 76 -204q91 -94 219 -94t219 94q57 58 88 165 h174q-45 -187 -141 -287q-139 -146 -340 -146q-198 0 -339 146q-96 99 -127 326h-198z" />
<glyph unicode="&#x2122;" horiz-adv-x="1148" d="M98 1267v138h442l192 -294l190 294h120v-630h-142v338l-168 -259l-170 260v-339h-141v492h-33v-492h-142v492h-148z" />
<glyph unicode="&#x25fc;" horiz-adv-x="895" d="M0 0v895h895v-895h-895z" />
</font>
</defs>
</svg>
