<?xml version="1.0" standalone="no"?>
<!DOCTYPE svg PUBLIC "-//W3C//DTD SVG 1.1//EN" "http://www.w3.org/Graphics/SVG/1.1/DTD/svg11.dtd" >
<svg xmlns="http://www.w3.org/2000/svg" xmlns:xlink="http://www.w3.org/1999/xlink" version="1.1">
<metadata></metadata>
<defs>
<font id="champagne__limousines_thiBdIt" horiz-adv-x="1170" >
<font-face units-per-em="2048" ascent="1638" descent="-410" />
<missing-glyph horiz-adv-x="508" />
<glyph horiz-adv-x="0" />
<glyph unicode="&#xd;" horiz-adv-x="508" />
<glyph unicode=" "  horiz-adv-x="508" />
<glyph unicode="&#x09;" horiz-adv-x="508" />
<glyph unicode="&#xa0;" horiz-adv-x="508" />
<glyph unicode="!" horiz-adv-x="410" d="M75 110q0 12 2 25q9 58 59.5 101t113.5 43q62 0 99 -43q30 -35 30 -79q0 -11 -2 -22q-10 -60 -60.5 -103t-112.5 -43q-63 0 -100 43q-29 34 -29 78zM139 312l172 1088h229l-172 -1088h-229z" />
<glyph unicode="&#x22;" horiz-adv-x="719" d="M179 780l98 618h229l-98 -618h-229zM559 780l98 618h229l-98 -618h-229z" />
<glyph unicode="#" horiz-adv-x="1126" d="M73 409l62 220h252l25 89h-252l63 220h251l115 408h231l-115 -408h79l114 408h231l-114 -408h252l-63 -220h-251l-26 -89h253l-62 -220h-254l-114 -409h-231l115 409h-79l-116 -409h-230l116 409h-252zM618 629h78l26 89h-79z" />
<glyph unicode="$" horiz-adv-x="863" d="M132 472v14l219 75q-2 -31 -2 -57q0 -104 29 -138q40 -47 106 -47t122 48t68 118q2 14 2 27q0 52 -32 90q-45 53 -112 82q-117 40 -183 120q-52 62 -52 149q0 24 4 49q19 116 117 201q49 42 103 63l22 137h229l-22 -139q46 -21 80 -62q41 -45 61 -170l-206 -75 q-19 89 -30 103q-20 22 -50 22q-31 0 -57.5 -23t-32.5 -57q-1 -7 -1 -14q0 -26 15 -44q28 -33 82 -60q127 -43 207 -138q72 -86 72 -199q0 -30 -5 -62q-25 -153 -151 -262q-77 -67 -164 -93l-21 -135h-229l21 134q-82 26 -138 95q-71 84 -71 248z" />
<glyph unicode="%" horiz-adv-x="1299" d="M170 99l987 1149l165 -129l-986 -1149zM185 800q0 21 4 43q16 105 104 181t197 76q110 0 173 -76q49 -61 49 -139q0 -21 -3 -42q-17 -104 -104 -179.5t-197 -75.5q-109 0 -172 76q-51 59 -51 136zM416 835q0 -12 7 -19q8 -10 20 -10t24 10.5t15 26.5q1 4 1 8q0 12 -7 20 q-9 10 -21 10t-23.5 -10t-14.5 -28q-1 -4 -1 -8zM779 332q0 21 4 43q16 104 103.5 179.5t197.5 75.5q109 0 173 -75q50 -61 50 -139q0 -20 -3 -41q-17 -105 -104.5 -180.5t-196.5 -75.5q-110 0 -173 76q-51 59 -51 137zM1010 366q0 -12 7 -19q8 -10 21 -10q11 0 23.5 11 t15.5 27v6q0 13 -7 22q-9 10 -20 10q-13 0 -25 -10.5t-14 -27.5q-1 -5 -1 -9z" />
<glyph unicode="&#x26;" horiz-adv-x="1036" d="M117 357q0 36 6 74q29 183 179 313q64 55 112 82l-46 98q-27 65 -27 129q0 22 3 44q18 111 123 217q118 101 261 101q145 0 229 -100q67 -79 67 -182q0 -27 -5 -56q-22 -140 -133 -236q-84 -73 -165 -106l100 -213l50 -100l152 -2q-33 -112 -72 -173l49 -133l-178 -123 l-46 76q-106 -82 -275 -82q-188 0 -297 132q-87 103 -87 240zM347 392q0 -70 44 -121q55 -66 145 -66q91 0 147 49l-180 385q-17 -9 -63 -49q-75 -65 -90 -159q-3 -20 -3 -39zM570 1080q0 -22 10 -48l57 -119q54 35 105 79q39 34 47 85q2 11 2 21q0 37 -23 64q-29 34 -75 34 t-84 -33q-16 -13 -32 -50q-5 -10 -6 -20q-1 -6 -1 -13z" />
<glyph unicode="'" horiz-adv-x="339" d="M179 780l98 618h229l-98 -618h-229z" />
<glyph unicode="(" horiz-adv-x="851" d="M146 476q0 98 18 209q63 398 304 634q77 75 184 143h377q-317 -175 -417 -285q-144 -161 -197 -493q-19 -119 -19 -217q0 -174 60 -277q65 -110 326 -284h-377q-85 67 -138 143q-121 170 -121 427z" />
<glyph unicode=")" horiz-adv-x="851" d="M40 -94q318 174 416 284q144 161 197 494q19 120 19 217q0 173 -60 276q-63 110 -326 285h377q87 -68 139 -143q120 -171 120 -427q0 -98 -17 -207q-63 -401 -304 -636q-76 -76 -184 -143h-377z" />
<glyph unicode="*" horiz-adv-x="791" d="M234 1001l139 88l-111 86l157 185l69 -55l15 93h228l-15 -92l87 54l99 -185l-139 -86l110 -88l-157 -184l-69 54l-14 -91h-228l15 92l-87 -55z" />
<glyph unicode="+" horiz-adv-x="1125" d="M85 427v220h363v363h229v-363h363v-220h-363v-363h-229v363h-363z" />
<glyph unicode="," horiz-adv-x="534" d="M-27 -172l192 452h316l-289 -452h-219z" />
<glyph unicode="-" horiz-adv-x="697" d="M116 427l35 220h601l-35 -220h-601z" />
<glyph unicode="." horiz-adv-x="410" d="M75 110q0 12 2 25q9 58 59.5 101t113.5 43q62 0 99 -43q30 -35 30 -79q0 -11 -2 -22q-10 -60 -60.5 -103t-112.5 -43q-63 0 -100 43q-29 34 -29 78z" />
<glyph unicode="/" horiz-adv-x="783" d="M-52 0l856 1400h253l-856 -1400h-253z" />
<glyph unicode="0" horiz-adv-x="1117" d="M144 504q0 86 16 185q50 320 226 515.5t396 195.5q219 0 332 -196q78 -136 78 -331q0 -86 -15 -184q-51 -319 -226 -515t-394 -196q-220 0 -334 196q-79 135 -79 330zM379 527q0 -126 42 -202q67 -122 171 -122t208 121.5t143 364.5q14 89 14 161q0 126 -42 204 q-66 121 -170 121t-209 -121.5t-143 -364.5q-14 -89 -14 -162z" />
<glyph unicode="1" horiz-adv-x="1149" d="M185 0l35 220h277l130 822l-58 -34l-161 133l518 336l-199 -1257h272l-35 -220h-779z" />
<glyph unicode="2" horiz-adv-x="1207" d="M170 0q700 861 742.5 918.5t48.5 100.5q3 18 3 36v9q-6 68 -55 102q-36 23 -77 23q-19 0 -38 -3q-65 -15 -109 -72q-26 -32 -57 -137l-222 32q37 147 97 220q109 138 271 174q50 11 95 11q111 0 198 -62q123 -85 134 -240q1 -18 1 -36q0 -34 -5 -67q-15 -92 -75.5 -177 t-491.5 -612h442l-35 -220h-867z" />
<glyph unicode="3" horiz-adv-x="1141" d="M183 417v5l240 82q-1 -26 -1 -49q0 -136 40 -184q54 -63 142 -63q92 0 166.5 64t89.5 159q3 20 3 40q0 71 -43 129q-56 72 -188 98l-129 4l35 217q136 1 169 13t77 53t53 92q1 10 1 19q0 38 -22 65q-28 33 -73 33q-46 0 -83 -32q-23 -20 -76 -121l-198 84q65 137 129 191 q118 101 263 101q146 0 231 -100q67 -80 67 -184q0 -27 -5 -56q-22 -139 -61.5 -175.5t-81.5 -52.5q16 -5 89 -99q81 -107 81 -242q0 -37 -6 -77q-29 -184 -182 -316t-342 -132q-188 0 -299 134q-86 103 -86 300z" />
<glyph unicode="4" horiz-adv-x="1192" d="M187 322l1015 1342l-178 -1122h119l-35 -220h-119l-51 -322h-230l51 322h-572zM615 542h179l47 300z" />
<glyph unicode="5" horiz-adv-x="1147" d="M124 245l188 174q83 -160 176 -190q43 -14 84 -14q67 0 138 35q116 57 170 174q23 47 30 91q3 20 3 40q0 48 -19 96q-41 108 -151 150q-47 17 -109 17q-86 0 -248 -48l-110 112l223 430l14 88h550l-35 -220h-354l-76 -171q87 18 152 18q60 0 101 -15q195 -70 266 -259 q31 -82 31 -166q0 -36 -6 -73q-13 -77 -48 -153q-95 -206 -301 -308q-128 -62 -253 -62q-79 0 -156 25q-159 51 -260 229z" />
<glyph unicode="6" horiz-adv-x="1138" d="M200 336q0 33 6 68l3 16q41 205 189.5 433.5t324.5 437.5q31 37 85 109h275q-117 -157 -158 -205q-193 -225 -292 -381l64 14q183 0 287 -124q81 -98 81 -228q0 -35 -6 -72q-27 -172 -170 -296.5t-322 -124.5q-177 0 -282 124q-85 99 -85 229zM436 371q0 -61 39 -105 q49 -57 128 -57q78 0 144 56.5t79 138.5q3 19 3 37q0 61 -37 105q-49 57 -127 57q-79 0 -145.5 -57t-80.5 -142q-3 -17 -3 -33z" />
<glyph unicode="7" horiz-adv-x="1133" d="M239 0q56 280 204 508.5t317.5 430.5t183.5 241h-639l35 220h897q-54 -301 -257 -537.5t-333.5 -442.5t-175.5 -420h-232z" />
<glyph unicode="8" horiz-adv-x="1124" d="M139 357q0 36 6 74q29 182 178 319l85 75q-43 84 -43 181q0 35 6 71q22 139 138 239.5t262 100.5h29q145 0 230 -100q68 -80 68 -184q0 -27 -5 -56q-21 -137 -117 -252l61 -75q83 -108 83 -243q0 -37 -6 -76q-29 -184 -181.5 -316t-342.5 -132q-18 0 -31 1q-13 -1 -33 -1 q-188 0 -299 132q-88 105 -88 242zM374 392q0 -70 43 -120q55 -64 145 -64q13 0 30 1h6q15 -1 28 -1q90 0 164.5 64t89.5 159q3 21 3 42q0 70 -40 126q-55 71 -171 95q-125 -24 -205 -97q-75 -70 -90 -166q-3 -20 -3 -39zM602 1057q0 -39 26 -72q32 -41 59 -52q14 -5 22 -7 q6 2 22 7q30 11 75 52t53 92q2 11 2 21q0 36 -22 63q-29 33 -74 33q-1 0 -8 -1h-14q-6 1 -7 1q-45 0 -84.5 -33.5t-47.5 -83.5q-2 -10 -2 -20z" />
<glyph unicode="9" horiz-adv-x="1138" d="M277 0q116 158 157 205q193 226 292 381l-62 -14q-183 0 -287 125q-83 98 -83 227q0 35 6 72q27 173 171 297.5t322 124.5t283 -124q83 -99 83 -229q0 -33 -6 -69l-3 -16q-40 -204 -188.5 -432.5t-325.5 -438.5q-29 -36 -85 -109h-274zM530 960q0 -61 38 -105 q48 -58 126 -58q79 0 145.5 57.5t80.5 141.5q3 18 3 34q0 61 -38 106q-49 56 -128 56q-78 0 -144.5 -56.5t-79.5 -139.5q-3 -19 -3 -36z" />
<glyph unicode=":" horiz-adv-x="410" d="M75 110q0 12 2 25q9 58 59.5 101t113.5 43q62 0 99 -43q30 -35 30 -79q0 -11 -2 -22q-10 -60 -60.5 -103t-112.5 -43q-63 0 -100 43q-29 34 -29 78zM161 655q0 12 2 25q9 59 60 102t114 43q62 0 99 -43q29 -34 29 -79q0 -11 -2 -23q-10 -60 -60 -102.5t-112 -42.5 q-63 0 -100 43q-30 33 -30 77z" />
<glyph unicode=";" horiz-adv-x="491" d="M-27 -172l192 452h316l-289 -452h-219zM157 655q0 12 2 25q9 59 59.5 102t113.5 43q62 0 99 -43q29 -34 29 -79q0 -11 -2 -23q-10 -60 -60 -102.5t-112 -42.5t-99 43q-30 33 -30 77z" />
<glyph unicode="&#x3c;" horiz-adv-x="1222" d="M89 625l1045 499v-250l-539 -249l539 -248v-250z" />
<glyph unicode="=" horiz-adv-x="1125" d="M85 553v220h955v-220h-955zM89 302v221h947v-221h-947z" />
<glyph unicode="&#x3e;" horiz-adv-x="1222" d="M89 127v250l538 248l-538 249v250l1045 -499z" />
<glyph unicode="?" horiz-adv-x="893" d="M210 984q0 27 2 40q16 102 107 208q113 134 282 163q37 6 74 6q120 0 213 -71q117 -93 119 -254v-10q0 -30 -5 -60q-18 -114 -103 -218q-70 -79 -219 -184q-83 -65 -106 -94q-26 -28 -31 -61q-1 -7 -1 -25v-22l-234 -41q0 60 4 90q16 99 89 182q54 65 190 162 q103 81 135 118q39 45 47 95q2 16 2 32q-1 69 -52 109q-40 30 -87 30q-14 0 -30 -2q-65 -12 -112 -68q-42 -47 -49 -92q-1 -3 -1 -14q0 -26 4 -102l-236 16q-2 41 -2 67zM261 112q0 11 2 23q10 58 60.5 101t113.5 43q62 0 99 -43q29 -34 29 -77q0 -12 -2 -24 q-9 -60 -59.5 -103t-112.5 -43q-63 0 -100 43q-30 35 -30 80z" />
<glyph unicode="@" horiz-adv-x="1326" d="M55 530q0 251 179 430t430 179q252 0 429.5 -179t177.5 -430q0 -118 -86.5 -252.5t-203.5 -134.5q-15 0 -30 3q-105 22 -114 74q-30 -32 -173 -32q-142 0 -243.5 101t-101.5 242q0 143 101.5 244t243.5 101q143 0 173 -32v21h122q-124 112 -295 112q-185 0 -315.5 -131.5 t-130.5 -315.5t130.5 -314.5t315.5 -130.5q126 0 212 53l115 -121q-161 -94 -327 -94q-251 0 -430 178t-179 429zM486 531q0 -74 52.5 -126.5t127.5 -52.5q74 0 127 52q36 37 46 79v97q-10 43 -46 79q-53 53 -127 53q-75 0 -127.5 -52.5t-52.5 -128.5zM999 304q14 7 60 73 q52 73 52 153q0 170 -112 295v-521z" />
<glyph unicode="A" horiz-adv-x="1220" d="M101 0l733 1401l285 -1401h-242l-59 295h-320l-154 -295h-243zM612 514h159l-45 218z" />
<glyph unicode="B" horiz-adv-x="1091" d="M112 0l222 1400h453q141 0 223 -97q65 -77 65 -178q0 -27 -5 -56q-21 -136 -79 -185q129 -168 129 -333q0 -34 -5 -68q-31 -199 -193 -340q-139 -119 -319 -143h-491zM376 220h211q104 0 191.5 76.5t104.5 186.5q4 24 4 47q0 80 -50 140q-64 76 -167 76h-211zM494 966 h236q44 4 63 22q39 33 46 81q2 11 2 21q0 34 -21 59q-27 32 -69 32h-223z" />
<glyph unicode="C" horiz-adv-x="1402" d="M175 580q0 58 10 120q46 294 289.5 504.5t543.5 210.5q279 0 508 -243l-194 -150q-165 171 -349 171q-201 0 -368.5 -144t-199.5 -349q-7 -44 -7 -85q0 -152 96 -264q122 -144 323 -144q184 0 403 170l146 -150q-305 -242 -584 -242q-300 0 -477 210q-140 165 -140 385z " />
<glyph unicode="D" horiz-adv-x="1231" d="M112 0l222 1400h311q343 -2 506 -195q139 -167 139 -386q0 -58 -10 -119q-47 -296 -290 -505q-223 -193 -567 -195h-311zM376 222h81q237 0 388 128q168 144 201 350q7 43 7 83q0 152 -97 268q-111 126 -348 126h-81z" />
<glyph unicode="E" horiz-adv-x="1008" d="M112 0l222 1400h784l-35 -220h-555l-59 -369h555l-35 -222h-555l-58 -369h555l-35 -220h-784z" />
<glyph unicode="F" horiz-adv-x="871" d="M112 0l222 1400h707l-35 -220h-478l-59 -369h478l-35 -222h-478l-93 -589h-229z" />
<glyph unicode="G" horiz-adv-x="1414" d="M175 580q0 58 10 120q46 294 289.5 504.5t543.5 210.5q279 0 508 -243l-194 -150q-165 171 -349 171q-201 0 -368.5 -144t-199.5 -349q-7 -44 -7 -85q0 -152 96 -264q122 -144 323 -144q172 0 289 83l67 422h229l-81 -512q-258 -215 -539 -215q-300 0 -477 210 q-140 165 -140 385z" />
<glyph unicode="H" horiz-adv-x="1129" d="M94 0l222 1400h229l-94 -589h482l94 589h230l-222 -1400h-230l93 589h-482l-93 -589h-229z" />
<glyph unicode="I" horiz-adv-x="473" d="M122 0l222 1400h229l-222 -1400h-229z" />
<glyph unicode="J" horiz-adv-x="436" d="M-101 -250l35 222q110 0 137 22q23 20 30 66l212 1340h230l-213 -1349q-20 -125 -121.5 -213t-309.5 -88z" />
<glyph unicode="K" horiz-adv-x="1123" d="M112 0l222 1400h229l-67 -423l363 423h276l-462 -544l463 -856h-276l-358 662l-69 -79l-92 -583h-229z" />
<glyph unicode="L" horiz-adv-x="871" d="M112 0l222 1400h229l-187 -1180h478l-35 -220h-707z" />
<glyph unicode="M" horiz-adv-x="1456" d="M94 0l228 1442l460 -1098l809 1100l-229 -1444h-230l93 589l-434 -589h-128l-247 587l-93 -587h-229z" />
<glyph unicode="N" horiz-adv-x="1213" d="M109 0l222 1400h136l489 -882l140 882h230l-226 -1426h-121l-502 904l-139 -878h-229z" />
<glyph unicode="O" horiz-adv-x="1566" d="M163 582q0 58 10 120q47 295 291 505.5t543 210.5q300 0 478 -210q140 -167 140 -386q0 -58 -10 -120q-47 -296 -291 -506.5t-544 -210.5q-299 0 -476 211q-141 166 -141 386zM396 617q0 -152 96 -265q122 -145 323 -145q202 0 369.5 144.5t200.5 350.5q7 43 7 83 q0 152 -96 267q-122 144 -324 144q-201 0 -369 -144.5t-200 -349.5q-7 -44 -7 -85z" />
<glyph unicode="P" horiz-adv-x="1028" d="M112 0l222 1400h413q172 -24 273 -143q94 -111 94 -258q0 -39 -7 -81q-31 -200 -196 -342.5t-367 -142.5h-134l-69 -433h-229zM445 655h134q105 0 193 76t105 187q4 24 4 46q0 80 -50 139q-64 76 -169 76h-134z" />
<glyph unicode="Q" horiz-adv-x="1566" d="M163 582q0 58 10 120q47 295 291 505.5t543 210.5q300 0 478 -210q140 -167 140 -386q0 -58 -10 -120q-47 -296 -291 -506q-189 -164 -412 -200q57 -22 122 -59l128 -75q23 -6 32 -6q7 0 7 3v1q25 8 36 34q7 17 7 123l234 -38q-8 -114 -28 -164q-49 -120 -170 -160 q-33 -10 -69 -10q-105 0 -259 88q-129 74 -173 74h-4q-15 -5 -26 -33q-8 -17 -8 -122l-232 38q5 115 25 165q40 95 125 139q-216 36 -355 202q-141 166 -141 386zM396 617q0 -152 96 -265q122 -145 323 -145q202 0 369.5 144.5t200.5 350.5q7 43 7 83q0 152 -96 267 q-122 144 -324 144q-201 0 -369 -144.5t-200 -349.5q-7 -44 -7 -85z" />
<glyph unicode="R" horiz-adv-x="1068" d="M112 0l222 1400h413q172 -24 273 -143q94 -111 94 -258q0 -39 -7 -81q-31 -200 -197 -342q-112 -97 -138 -104l230 -472h-272l-227 468l-80 -25h-12l-70 -443h-229zM445 655h134q105 0 193 76t105 187q4 24 4 46q0 80 -50 139q-64 76 -169 76h-134z" />
<glyph unicode="S" horiz-adv-x="1013" d="M121 407v13l235 80q-1 -27 -1 -51q0 -132 41 -179q54 -65 144 -65q91 0 167.5 65.5t91.5 160.5q3 20 3 39q0 69 -43 120q-58 69 -146 107q-142 50 -222 145q-63 75 -63 177q0 28 5 58q22 138 138 238t261 100q143 0 229 -101q47 -54 70 -188l-222 -81q-20 98 -37 118 q-29 33 -75 33t-85.5 -34t-47.5 -85q-2 -11 -2 -22q0 -37 22 -63q38 -44 108 -79q156 -53 254 -169q85 -102 85 -238q0 -36 -6 -75q-29 -183 -180.5 -314.5t-339.5 -131.5t-297 134q-87 100 -87 288z" />
<glyph unicode="T" horiz-adv-x="926" d="M219 1180l35 220h862l-35 -220h-317l-187 -1180h-228l187 1180h-317z" />
<glyph unicode="U" horiz-adv-x="1199" d="M180 393q0 38 6 79l147 928h229l-147 -928q-4 -23 -4 -44q0 -81 52 -141q65 -77 170 -77t193.5 76.5t105.5 185.5l147 928h229l-155 -978q-50 -172 -185 -290q-167 -143 -370 -143q-204 0 -323 143q-95 113 -95 261z" />
<glyph unicode="V" horiz-adv-x="1220" d="M326 1400h242l150 -721l376 721h242l-724 -1390z" />
<glyph unicode="W" horiz-adv-x="1676" d="M308 1400h237l72 -681l382 681h121l167 -678l288 678h237l-594 -1395l-230 935l-527 -937z" />
<glyph unicode="X" horiz-adv-x="1172" d="M15 0l560 762l-267 638h261l172 -412l304 412h261l-470 -638l320 -762h-261l-225 535l-395 -535h-260z" />
<glyph unicode="Y" horiz-adv-x="1262" d="M254 1400h261l246 -584l430 584h261l-617 -838l-89 -562h-230l89 562z" />
<glyph unicode="Z" horiz-adv-x="1238" d="M84 0l868 1180h-627l35 220h1015l-868 -1180h627l-35 -220h-1015z" />
<glyph unicode="[" horiz-adv-x="511" d="M38 -106l257 1623h401l-35 -220h-172l-187 -1182h172l-35 -221h-401z" />
<glyph unicode="\" horiz-adv-x="783" d="M170 1400h254l411 -1400h-252z" />
<glyph unicode="]" horiz-adv-x="511" d="M38 -106l35 221h172l187 1182h-172l35 220h401l-257 -1623h-401z" />
<glyph unicode="^" horiz-adv-x="1028" d="M98 833l328 567h176l327 -567h-263l-152 264l-153 -264h-263z" />
<glyph unicode="_" horiz-adv-x="851" d="M-60 -94l35 220h941l-35 -220h-941z" />
<glyph unicode="`" horiz-adv-x="800" d="M297 1403h392l211 -296h-263z" />
<glyph unicode="a" d="M144 399q0 40 7 83q33 209 205 356.5t383 147.5q113 0 259 -69h229l-146 -917h-229l6 35q-165 -57 -278 -57q-211 0 -336 149q-100 118 -100 272zM380 433q0 -86 53 -149q68 -81 182 -81q112 0 205 81q72 61 99 135l20 126q-4 75 -56 136q-67 81 -179 81 q-113 0 -207.5 -81.5t-112.5 -198.5q-4 -26 -4 -49z" />
<glyph unicode="b" horiz-adv-x="1179" d="M99 0l222 1400h229l-76 -481q167 67 279 67q212 0 337 -147q98 -117 98 -272q0 -41 -7 -85q-32 -206 -203.5 -355t-383.5 -149q-112 0 -261 56l-5 -34h-229zM394 415q3 -71 55 -131q67 -81 180 -81t207 81t112 198q4 26 4 49q0 86 -53 150q-68 81 -181 81t-206 -81 q-71 -60 -97 -133z" />
<glyph unicode="c" horiz-adv-x="1084" d="M122 399q0 41 7 84q33 208 205 355.5t383 147.5q213 0 338 -149q25 -29 90 -140l-237 -82q-38 57 -47 68q-67 79 -179 79q-113 0 -207 -81t-112 -198q-4 -26 -4 -50q0 -86 53 -149q68 -81 181 -81q112 0 205 81q13 11 69 66l210 -82q-100 -111 -134 -140 q-172 -150 -385 -150q-211 0 -336 149q-100 118 -100 272z" />
<glyph unicode="d" d="M156 398q0 41 7 84q33 209 204 356.5t383 147.5q112 0 259 -67l76 481h229l-222 -1400h-229l6 34q-166 -56 -278 -56q-212 0 -336 149q-99 118 -99 271zM392 433q0 -86 53 -149q68 -81 181 -81t206 81q71 60 97 131l21 133q-3 73 -55 133q-67 81 -180 81t-207 -81.5 t-112 -198.5q-4 -26 -4 -49z" />
<glyph unicode="e" horiz-adv-x="1091" d="M122 399q0 40 7 83q33 209 205 356.5t383 147.5q213 0 338 -149q82 -97 82 -262q0 -60 -11 -129h-772q-2 -11 -2 -23q0 -69 59 -139q68 -81 182 -81q112 0 206 81q18 15 77 75l205 -76q-81 -107 -138 -155q-172 -150 -385 -150q-211 0 -336 149q-100 118 -100 272z M445 669h442q-43 93 -205 93q-153 0 -237 -93z" />
<glyph unicode="f" horiz-adv-x="510" d="M100 0l110 697h-78l35 220h78l22 135q25 116 120 200q102 82 218 82q58 0 185 -47l-108 -211q-90 42 -105 42q-23 0 -51 -22q-25 -21 -32 -53l-20 -126h158l-35 -220h-158l-110 -697h-229z" />
<glyph unicode="g" d="M129 -58l236 82q38 -57 47 -68q67 -79 180 -79q112 0 187 45.5t134 180.5q-120 -125 -333 -125q-211 0 -336 149q-100 118 -100 272q0 40 7 83q33 209 205 356.5t383 147.5q113 0 259 -69h229l-124 -777q-42 -234 -163 -339q-173 -148 -384 -148q-213 0 -337 149 q-26 30 -90 140zM380 433q0 -86 53 -149q68 -81 182 -81q112 0 205 81q72 61 99 135l20 126q-4 75 -56 136q-67 81 -179 81q-113 0 -207.5 -81.5t-112.5 -198.5q-4 -26 -4 -49z" />
<glyph unicode="h" horiz-adv-x="941" d="M94 0l222 1400h229l-75 -470q52 34 117 34q12 0 24 -1q170 0 261 -107q72 -87 72 -206q0 -29 -4 -60l-93 -590h-231l92 582q2 15 2 28q0 50 -31 87q-40 46 -103 46t-118 -46q-24 -20 -29 -27l-106 -670h-229z" />
<glyph unicode="i" horiz-adv-x="458" d="M115 0l145 917h228l-145 -917h-228zM258 1122q0 11 2 23q10 59 60.5 101.5t113.5 42.5q62 0 99 -43q29 -34 29 -77q0 -12 -2 -24q-9 -60 -59.5 -102.5t-112.5 -42.5q-63 0 -100 43q-30 34 -30 79z" />
<glyph unicode="j" horiz-adv-x="417" d="M-40 -184l34 217q97 11 102 40l133 844h229l-133 -842q-37 -234 -365 -259zM228 1122q0 11 2 23q10 58 59.5 101t112.5 43q62 0 100 -42q29 -34 29 -78q0 -12 -2 -24q-9 -60 -59.5 -102.5t-112.5 -42.5q-63 0 -99 43q-30 34 -30 79z" />
<glyph unicode="k" horiz-adv-x="783" d="M99 0l197 1244h229l-70 -444l113 117h291l-307 -316l246 -601h-267l-150 333l-53 -333h-229z" />
<glyph unicode="l" horiz-adv-x="449" d="M110 0l222 1400h229l-222 -1400h-229z" />
<glyph unicode="m" horiz-adv-x="1197" d="M99 0l145 917h172q67 45 142 45q129 0 182 -64q75 64 203 64q130 0 206 -90q57 -71 57 -164q0 -19 -2 -39l-106 -669h-230l110 702q-37 40 -69 40q-31 0 -59 -23.5t-34 -62.5l-104 -656h-228l107 675v4q0 19 -17 40q-20 23 -50 23q-31 0 -59 -24q-23 -20 -31 -48 l-106 -670h-229z" />
<glyph unicode="n" horiz-adv-x="959" d="M99 0l145 917h176q89 46 205 46q170 0 261 -107q72 -86 72 -205q0 -30 -5 -62l-93 -589h-228l92 582q2 15 2 28q0 50 -31 87q-41 46 -105 46q-63 0 -117 -45q-32 -27 -41 -42l-104 -656h-229z" />
<glyph unicode="o" horiz-adv-x="1161" d="M142 399q0 40 7 83q33 209 205 356.5t383 147.5q213 0 338 -148q98 -117 98 -271q0 -41 -7 -85q-33 -206 -204 -355t-384 -149q-211 0 -336 149q-100 118 -100 272zM378 433q0 -86 53 -149q68 -81 182 -81q112 0 206 81t113 198q4 24 4 47q0 87 -54 152q-68 81 -180 81 q-113 0 -207.5 -81.5t-112.5 -198.5q-4 -26 -4 -49z" />
<glyph unicode="p" horiz-adv-x="1158" d="M12 -483l222 1400h229l-6 -34q166 56 278 56q212 0 337 -149q98 -118 98 -271q0 -41 -7 -84q-33 -209 -204 -356.5t-383 -147.5q-112 0 -259 67l-76 -481h-229zM376 369q3 -73 55 -133q67 -81 180 -81t207 81.5t112 198.5q4 26 4 49q0 86 -53 149q-68 81 -181 81 t-206 -81q-71 -60 -97 -131z" />
<glyph unicode="q" horiz-adv-x="1158" d="M126 350q0 41 7 85q33 206 204.5 355t383.5 149q112 0 260 -56l5 34h229l-221 -1400h-229l76 481q-168 -67 -280 -67q-212 0 -336 148q-99 116 -99 271zM362 388q0 -87 54 -151q68 -82 181 -82t206 81q70 60 97 133l21 133q-4 71 -56 131q-67 81 -180 81t-206.5 -81 t-112.5 -198q-4 -24 -4 -47z" />
<glyph unicode="r" horiz-adv-x="569" d="M77 0l145 917h229l-14 -92q85 108 159 115l86 -212q-140 -27 -191 -72q-89 -76 -111 -186l-74 -470h-229z" />
<glyph unicode="s" horiz-adv-x="743" d="M102 264q0 37 7 80l238 59q-12 -72 -12 -112q0 -37 10 -48q20 -24 51 -24q30 0 58.5 23.5t34.5 61.5q1 7 1 13q0 26 -17 45q-16 19 -76 62q-88 52 -122 93q-52 61 -52 141q0 20 3 42q16 106 105 183t200 77q110 0 172 -74q47 -57 47 -126q0 -18 -3 -37l-8 -53l-213 1 q-3 50 -10.5 59t-19.5 9q-13 0 -26 -11t-15 -28q-1 -4 -1 -7q0 -13 9 -22q11 -15 57 -48q99 -58 142 -109q58 -71 58 -161q0 -24 -4 -49q-20 -126 -122.5 -215.5t-231.5 -89.5t-204 90q-56 66 -56 175z" />
<glyph unicode="t" horiz-adv-x="606" d="M142 697l35 220h156l52 327h230l-52 -327h156l-35 -220h-156l-110 -697h-230l110 697h-156z" />
<glyph unicode="u" horiz-adv-x="957" d="M140 303q0 30 4 61l88 554h229l-86 -547q-2 -14 -2 -27q0 -51 33 -89q39 -46 110 -46q62 0 117.5 47t66.5 115l86 547h229l-88 -554q-28 -161 -151 -267q-126 -108 -295 -108q-178 0 -268 107q-73 86 -73 207z" />
<glyph unicode="v" horiz-adv-x="1024" d="M205 917h254l130 -426l265 426h255l-603 -946z" />
<glyph unicode="w" horiz-adv-x="1250" d="M212 917h244l56 -276l144 276h230l56 -275l144 275h243l-330 -634l-164 -310l-62 310l-58 280l-146 -280l-164 -310l-62 310z" />
<glyph unicode="x" horiz-adv-x="857" d="M12 0l83 111l291 366l-186 440h262l81 -190l139 190h262l-320 -440l222 -477h-266l-110 264l-195 -264h-263z" />
<glyph unicode="y" horiz-adv-x="936" d="M58 -292l318 509l-216 700h253l133 -425l268 425h252l-755 -1209h-253z" />
<glyph unicode="z" horiz-adv-x="911" d="M62 0l505 686h-342l34 220h731l-505 -686h373l-35 -220h-761z" />
<glyph unicode="{" horiz-adv-x="746" d="M147 580l39 248q91 -10 95 -10q25 0 54 17q63 32 90 93q18 43 26 92q4 27 5 53q-1 14 -1 28q0 43 7 84q9 60 33 114q49 115 168 175q75 39 152 39q22 0 113 -15l-34 -219q-105 13 -113 13q-15 0 -33 -9q-27 -13 -38 -40q-13 -31 -19 -72q-4 -20 -5 -36q2 -19 2 -39 q0 -40 -7 -82q-12 -73 -43 -143q-66 -149 -101 -167q30 -19 47 -168q5 -33 5 -67q0 -37 -6 -75q-10 -63 -34 -121q-3 -15 -6 -37q-5 -29 -5 -52q0 -10 1 -19q3 -27 26 -40q16 -9 32 -9q6 0 115 13l-36 -222q-98 -13 -118 -13q-77 0 -140 40q-99 61 -111 176q-3 22 -3 46 q0 33 6 68q8 54 29 112q7 26 12 52q4 31 4 60q0 16 -1 31q-7 62 -60 94q-25 16 -50 16q-4 0 -97 -9z" />
<glyph unicode="|" horiz-adv-x="339" d="M55 -109v1626h229v-1626h-229z" />
<glyph unicode="}" horiz-adv-x="746" d="M40 -93l35 222q104 -13 110 -13q17 0 37 10q26 12 36 39q13 30 19 71l6 38q-1 16 -1 33q0 42 7 87q12 72 42 142q65 149 101 168q-30 18 -48 167q-3 30 -3 60q0 41 6 83q10 63 32 121l6 36q5 29 5 52q0 11 -1 20q-3 27 -24 40q-16 9 -32 9q-7 0 -116 -13l35 219 q96 15 118 15q76 0 141 -39q98 -60 110 -175q4 -24 4 -49q0 -32 -6 -65q-8 -55 -29 -112q-8 -26 -13 -53q-4 -29 -4 -55q0 -19 2 -37q8 -61 59 -93q25 -17 50 -17q3 0 98 10l-39 -248q-92 9 -95 9q-25 0 -56 -16q-62 -32 -88 -94q-19 -42 -27 -91q-4 -26 -4 -52q1 -14 1 -29 q0 -42 -7 -83q-9 -60 -34 -114q-48 -115 -166 -176q-77 -40 -153 -40q-21 0 -114 13z" />
<glyph unicode="~" horiz-adv-x="1119" d="M75 565q5 115 25 165q50 119 171 159q32 11 70 11q104 0 259 -88l128 -75q23 -6 32 -6q7 0 7 3v1q25 8 36 34q7 17 7 123l234 -38q-8 -114 -28 -164q-49 -120 -170 -160q-33 -10 -69 -10q-105 0 -259 88q-129 74 -173 74h-4q-15 -5 -26 -33q-8 -17 -8 -122z" />
<glyph unicode="&#xa1;" horiz-adv-x="410" d="M13 -493l172 1088h230l-172 -1088h-230zM175 750q0 10 2 22q10 60 60 102.5t112 42.5q63 0 101 -42q29 -34 29 -78q0 -12 -2 -25q-9 -59 -59.5 -101.5t-113.5 -42.5q-62 0 -99 43q-30 34 -30 79z" />
<glyph unicode="&#xa2;" horiz-adv-x="1192" d="M314 833q0 35 6 72q27 173 171 298q111 95 176 106l22 140h229l-20 -122q96 0 201 -125q20 -25 86 -133l-232 -81q-38 57 -44 64q-38 45 -45 59l-65 -412q11 15 67 62q7 6 60 61l206 -79q-99 -110 -128 -136q-143 -124 -239 -125l-20 -121h-229l22 139q-62 10 -142 107 q-82 98 -82 226zM545 868q0 -59 35 -103l45 280q-64 -57 -77 -140q-3 -19 -3 -37z" />
<glyph unicode="&#xa3;" horiz-adv-x="1175" d="M140 98q166 129 192 155q79 79 96 180h-184l35 221h133q-5 12 -14 37q-60 133 -60 258q0 20 1 39q1 18 4 37q21 133 126 241q121 120 289 136h34q138 0 233 -91q95 -92 95 -228q0 -14 -1 -29q-1 -22 -4 -42q-10 -63 -79 -182l-202 69q46 92 51 122q1 8 1 14q1 7 1 14 q0 58 -39 96q-38 36 -90 36q-7 0 -15 -1q-65 -5 -112 -53q-45 -46 -54 -102l-3 -19q-1 -11 -1 -22q0 -67 26 -149q54 -113 59 -181h171l-35 -221h-134q-23 -134 -57 -200h8q64 0 122 -14q67 -15 127 -15q52 0 187 33l7 -219q-151 -35 -229 -35t-158 19q-66 15 -114 15 q-39 0 -65 -9q-82 -28 -221 -93z" />
<glyph unicode="&#xa4;" horiz-adv-x="1195" d="M237 662l132 115q-22 34 -22 100q0 40 8 93q22 139 75 193l-96 113l187 160l95 -114q55 40 198 40t186 -40l131 113l135 -159l-132 -113q23 -34 23 -101q0 -40 -8 -92q-22 -139 -76 -193l96 -115l-185 -158l-96 114q-55 -40 -198 -40t-186 41l-131 -115zM582 938 q0 -41 19 -72q6 -8 15 -18q9 -11 17 -18q35 -32 92 -32q56 0 103 32q11 8 22 17q8 7 16 18q43 45 53 105q2 14 2 28q0 42 -21 77q-6 12 -12 19q-5 6 -15 14q-39 33 -94 33q-56 0 -103 -33q-12 -7 -22 -16q-10 -8 -19 -18q-41 -45 -50 -104q-3 -17 -3 -32z" />
<glyph unicode="&#xa5;" horiz-adv-x="1262" d="M205 302l35 221h359l5 30h-363l35 220h241l-263 627h261l245 -584l431 584h261l-461 -627h241l-35 -220h-363l-5 -30h359l-35 -221h-359l-48 -302h-230l48 302h-359z" />
<glyph unicode="&#xa6;" horiz-adv-x="339" d="M55 -293v785h229v-785h-229zM55 615v785h229v-785h-229z" />
<glyph unicode="&#xa7;" horiz-adv-x="1196" d="M273 802q0 36 6 74q29 184 159 297q25 151 141 251.5t261 100.5q143 0 229 -100q47 -54 69 -187l-221 -84q-20 100 -38 119q-28 34 -74 34t-86 -34.5t-48 -85.5q-2 -11 -2 -21q0 -37 24 -65q37 -43 107 -79q156 -53 253 -168q86 -103 86 -238q0 -36 -6 -74 q-29 -185 -159 -298q-25 -151 -141 -251.5t-260 -100.5t-229 100q-48 55 -68 190l219 80q21 -98 38 -119q28 -32 75 -32t86.5 34t47.5 86q2 11 2 20q0 37 -24 65q-36 43 -107 79q-156 53 -253 169q-87 102 -87 238zM503 835q0 -67 45 -119q56 -67 145 -106q140 -51 187 -105 l27 42q3 18 3 35q0 67 -44 119q-57 68 -147 107q-140 50 -186 104l-27 -42q-3 -18 -3 -35z" />
<glyph unicode="&#xa8;" horiz-adv-x="780" d="M260 1154q0 12 2 25q9 59 59.5 101.5t113.5 42.5q62 0 99 -42q30 -35 30 -80q0 -10 -2 -22q-10 -60 -60 -103t-112 -43q-63 0 -100 43q-30 33 -30 78zM590 1154q0 12 2 25q9 59 59.5 101.5t113.5 42.5q62 0 99 -42q30 -35 30 -80q0 -10 -2 -22q-10 -60 -60 -103t-112 -43 q-63 0 -100 43q-30 33 -30 78z" />
<glyph unicode="&#xa9;" horiz-adv-x="1442" d="M0 743q0 295 211 505.5t510 210.5q300 0 510.5 -210.5t210.5 -505.5q0 -296 -210.5 -506.5t-510.5 -210.5q-299 0 -510 210.5t-211 506.5zM230 743q0 -206 145 -350.5t346 -144.5q202 0 346.5 144.5t144.5 350.5q0 205 -144.5 349.5t-346.5 144.5q-201 0 -346 -144.5 t-145 -349.5zM328 743q0 163 117 280t284 117q168 0 286 -118q23 -24 99 -127l-203 -74q-46 52 -53 60q-53 53 -129 53q-75 0 -130 -55.5t-55 -135.5q0 -81 55 -136t130 -55q76 0 133 57q5 5 49 56l202 -74q-75 -104 -99 -127q-117 -119 -285 -119q-167 0 -284 117.5 t-117 280.5z" />
<glyph unicode="&#xaa;" horiz-adv-x="828" d="M227 354l35 221h471l-35 -221h-471zM244 1051q0 22 4 46q20 126 132.5 214.5t251.5 88.5q75 0 170 -41h152l-87 -551h-152l3 21q-107 -34 -182 -34q-140 0 -224 90q-68 72 -68 166zM400 1071q0 -53 37 -92q45 -49 120 -49q74 0 135 49q47 36 63 81l12 75q-2 45 -37 82 q-46 49 -120 49t-135.5 -49t-72.5 -120q-2 -14 -2 -26z" />
<glyph unicode="&#xab;" horiz-adv-x="1020" d="M126 450l626 575l-52 -326l-269 -248l191 -247l-52 -328zM495 450l632 573l-52 -324l-270 -248l192 -247l-51 -325z" />
<glyph unicode="&#xac;" horiz-adv-x="1137" d="M135 517v221h867v-520h-231v299h-636z" />
<glyph unicode="&#xad;" horiz-adv-x="697" d="M116 427l35 220h601l-35 -220h-601z" />
<glyph unicode="&#xae;" horiz-adv-x="1110" d="M0 846q0 227 162 389t393 162t393 -162t162 -389q0 -226 -162 -388.5t-393 -162.5t-393 162.5t-162 388.5zM228 846q0 -139 97 -236q46 -47 50 -49v558h212q89 -12 145 -69q70 -69 70 -164q0 -96 -68 -164l-24 -26l64 -98l12 12q96 97 96 236q0 140 -96 236.5t-231 96.5 t-231 -96.5t-96 -236.5zM554 514h64l-64 101v-101zM554 821h10q23 0 41 18t18 47q0 28 -18 46t-41 18h-10v-129z" />
<glyph unicode="&#xaf;" horiz-adv-x="770" d="M255 1138l35 220h620l-35 -220h-620z" />
<glyph unicode="&#xb0;" horiz-adv-x="618" d="M55 1146q0 98 73 172.5t180 74.5t181 -74.5t74 -172.5q0 -103 -74 -176t-181 -73t-180 73t-73 176zM207 1145q0 -41 29.5 -70t72.5 -29q42 0 71.5 29t29.5 70q0 40 -29.5 69.5t-71.5 29.5q-43 0 -72.5 -29.5t-29.5 -69.5z" />
<glyph unicode="&#xb1;" horiz-adv-x="1125" d="M85 0v220h363v207h-363v220h363v363h229v-363h363v-220h-363v-207h363v-220h-955z" />
<glyph unicode="&#xb2;" horiz-adv-x="600" d="M103 616q416 511 432 533t17 30q1 4 1 11q-1 13 -9 18q-4 3 -9 3t-7 -1q-7 -1 -16 -13q-5 -5 -32 -100l-217 31q35 136 72 184q70 88 175 111q32 7 60 7q73 0 129 -39q78 -55 85 -153q1 -9 1 -19q0 -23 -4 -45q-9 -60 -44 -109t-184 -231h175l-35 -218h-590z" />
<glyph unicode="&#xb3;" horiz-adv-x="582" d="M150 911v6l203 1q26 -59 37 -73q15 -17 35 -17q21 0 40 16t23 43q1 7 1 13q0 20 -12 37q-16 21 -61 30l-114 5l32 201q25 -1 47 -1q132 0 149 41q5 10 6 18q1 4 1 7q0 27 -35 37q-8 2 -15 2q-37 0 -50 -70l-169 -3q26 125 70 162q79 67 174 67q96 0 152 -66 q45 -54 45 -122q0 -17 -3 -35q-14 -88 -71 -146q84 -50 84 -141q0 -17 -3 -36q-18 -114 -112 -195.5t-213 -81.5q-117 0 -188 82q-53 65 -53 219z" />
<glyph unicode="&#xb4;" horiz-adv-x="800" d="M252 1117l305 296h392l-435 -296h-262z" />
<glyph unicode="&#xb6;" horiz-adv-x="1315" d="M77 988q0 199 141 341q119 118 222 132h62v11h736v-220h-115v-1545h-229v1545h-42v-1545h-248v798h-39q-204 0 -346 142t-142 341z" />
<glyph unicode="&#xb7;" horiz-adv-x="375" d="M55 700q0 52 38.5 89.5t94.5 37.5q55 0 93.5 -37.5t38.5 -89.5t-38.5 -89.5t-93.5 -37.5q-56 0 -94.5 37.5t-38.5 89.5z" />
<glyph unicode="&#xb8;" horiz-adv-x="640" d="M10 -279l182 93q30 -19 53 -19q24 0 36 7t13 11q0 4 -12.5 13t-56.5 14l-110 3l17 104l122 62h325l-161 -72q73 -8 91 -121q-12 -73 -96.5 -117t-189.5 -44q-102 0 -213 66z" />
<glyph unicode="&#xb9;" horiz-adv-x="527" d="M118 610l34 216h139l47 298l-137 110l424 274l-108 -682h135l-34 -216h-500z" />
<glyph unicode="&#xba;" horiz-adv-x="815" d="M228 354l35 221h471l-35 -221h-471zM241 1053q0 21 4 44q20 126 132.5 214.5t251.5 88.5q140 0 224 -89q67 -72 67 -167q0 -23 -4 -47q-19 -123 -130.5 -212.5t-251.5 -89.5t-224 90q-69 72 -69 168zM397 1071q0 -53 37 -92q46 -49 121 -49q74 0 135 48.5t72 118.5 q2 15 2 28q0 53 -36 92q-46 49 -120 49t-135.5 -49t-73.5 -120q-2 -14 -2 -26z" />
<glyph unicode="&#xbb;" horiz-adv-x="981" d="M36 -121l51 325l270 247l-191 248l51 324l451 -573zM411 -124l51 328l269 247l-190 248l52 326l443 -575z" />
<glyph unicode="&#xbc;" horiz-adv-x="1729" d="M5 0l1621 1400h320l-1624 -1400h-317zM196 610l34 216h139l42 268l-131 140l424 274l-108 -682h135l-34 -216h-501zM896 161l700 924l-112 -707h60l-35 -217h-60l-25 -161h-225l25 161h-328zM1244 374h52l14 85z" />
<glyph unicode="&#xbd;" horiz-adv-x="1729" d="M5 0l1621 1400h320l-1624 -1400h-317zM196 610l34 216h139l42 268l-131 140l424 274l-108 -682h135l-34 -216h-501zM967 0q416 511 432 533t17 30q1 4 1 11q-1 12 -9 17q-6 4 -9 4q-1 0 -4 -1q-11 -2 -18 -10q-6 -8 -32 -103l-217 32q33 136 72 184q70 86 172 110 q33 7 62 7q74 0 129 -41q79 -54 85 -151q1 -9 1 -19q0 -23 -4 -45q-9 -59 -44 -108t-185 -233h175l-34 -217h-590z" />
<glyph unicode="&#xbe;" horiz-adv-x="1729" d="M5 0l1621 1400h320l-1624 -1400h-317zM168 918v6l204 1q25 -59 36 -73q15 -17 35 -17q21 0 40 16t24 43q1 6 1 11q0 21 -13 39q-16 21 -61 30l-114 5l32 201q25 -1 47 -1q132 0 149 41q5 10 6 18q1 4 1 7q0 27 -35 37q-8 2 -15 2q-37 0 -50 -70l-169 -3q27 125 70 162 q79 67 174 67q96 0 152 -66q45 -54 45 -122q0 -17 -3 -35q-14 -88 -70 -146q84 -51 84 -142q0 -17 -3 -35q-18 -114 -112.5 -195.5t-213.5 -81.5q-117 0 -188 82q-53 65 -53 219zM896 161l700 924l-112 -707h60l-35 -217h-60l-25 -161h-225l25 161h-328zM1244 374h52l14 85z " />
<glyph unicode="&#xbf;" horiz-adv-x="893" d="M29 -169q0 35 5 69q19 115 104 219q69 78 219 184q83 65 106 94q26 28 31 60q1 11 1 48l234 41q0 -61 -5 -91q-15 -98 -89 -182q-54 -65 -189 -161q-103 -81 -135 -118q-39 -45 -47 -96q-2 -15 -2 -31q1 -69 52 -109q40 -30 87 -30q14 0 29 2q65 12 113 67q42 48 49 93v6 q0 22 -4 110l237 -16q2 -40 2 -67t-2 -40q-16 -102 -107 -209q-114 -134 -282 -162q-37 -6 -74 -6q-120 0 -213 70q-117 94 -120 255zM471 750q0 10 2 22q10 60 60 102.5t112 42.5q63 0 101 -42q29 -34 29 -78q0 -12 -2 -25q-9 -59 -59.5 -101.5t-113.5 -42.5q-62 0 -99 43 q-30 34 -30 79z" />
<glyph unicode="&#xc0;" horiz-adv-x="1220" d="M101 0l733 1401l285 -1401h-242l-59 295h-320l-154 -295h-243zM476 1886h392l211 -296h-263zM612 514h159l-45 218z" />
<glyph unicode="&#xc1;" horiz-adv-x="1220" d="M101 0l733 1401l285 -1401h-242l-59 295h-320l-154 -295h-243zM612 514h159l-45 218zM646 1600l305 296h393l-435 -296h-263z" />
<glyph unicode="&#xc2;" horiz-adv-x="1220" d="M101 0l733 1401l285 -1401h-242l-59 295h-320l-154 -295h-243zM454 1582l376 333h151l287 -333h-296l-102 89l-123 -89h-293zM612 514h159l-45 218z" />
<glyph unicode="&#xc3;" horiz-adv-x="1220" d="M101 0l733 1401l285 -1401h-242l-59 295h-320l-154 -295h-243zM497 1595q19 100 41 140q53 100 152 135q26 8 56 8q80 0 186 -73l82 -60q12 -6 17 -6q3 0 4 2v2q16 6 26 24q6 13 21 108l185 -35q-21 -98 -42 -139q-53 -100 -151 -134q-28 -9 -57 -9q-81 0 -186 73 q-82 59 -111 59h-1q-7 -2 -17 -22q-7 -14 -22 -106zM612 514h159l-45 218z" />
<glyph unicode="&#xc4;" horiz-adv-x="1220" d="M101 0l733 1401l285 -1401h-242l-59 295h-320l-154 -295h-243zM556 1639q0 11 2 23q10 59 60.5 101.5t113.5 42.5q62 0 99 -42q29 -34 29 -78q0 -11 -2 -24q-9 -60 -59.5 -103t-112.5 -43q-63 0 -100 43q-30 34 -30 80zM612 514h159l-45 218zM887 1639q0 11 2 23 q10 59 60 101.5t113 42.5q62 0 99 -42q29 -34 29 -78q0 -11 -2 -24q-9 -60 -59.5 -103t-112.5 -43q-63 0 -99 43q-30 34 -30 80z" />
<glyph unicode="&#xc5;" horiz-adv-x="1220" d="M65 0l745 1424q-67 8 -109 56q-39 47 -39 108q0 15 2 31q13 80 81.5 138.5t153.5 58.5t134 -59q39 -47 39 -106q0 -15 -3 -32q-12 -81 -80 -139q-56 -48 -123 -56l290 -1424h-242l-80 395h-320l-206 -395h-243zM629 614h158l-44 218zM832 1613q0 -13 7 -21q9 -11 22 -11 q12 0 25 10.5t15 27.5q1 4 1 8q0 12 -7 20q-10 10 -22 10q-13 0 -25.5 -10.5t-15.5 -27.5v-6z" />
<glyph unicode="&#xc6;" horiz-adv-x="1486" d="M55 0l831 1400h767l-35 -220h-555l-59 -369h555l-35 -222h-555l-58 -369h555l-35 -220h-783l76 479h-134l-289 -479h-246zM717 699h42l15 97z" />
<glyph unicode="&#xc7;" horiz-adv-x="1402" d="M175 580q0 58 10 120q46 294 289.5 504.5t543.5 210.5q279 0 508 -243l-194 -150q-165 171 -349 171q-201 0 -368.5 -144t-199.5 -349q-7 -44 -7 -85q0 -152 96 -264q122 -144 323 -144q184 0 403 170l146 -150q-209 -166 -406 -218l-161 -72q74 -8 92 -121 q-12 -73 -97.5 -117t-189.5 -44q-103 0 -213 66l182 93q31 -19 54 -19t35.5 7t12.5 11v1q0 4 -12 12q-13 9 -57 14l-110 3l17 104l108 55q-190 42 -316 193q-140 165 -140 385z" />
<glyph unicode="&#xc8;" horiz-adv-x="1008" d="M112 0l222 1400h784l-35 -220h-554l-59 -369h554l-35 -222h-554l-58 -369h554l-35 -220h-784zM370 1886h392l211 -296h-263z" />
<glyph unicode="&#xc9;" horiz-adv-x="1008" d="M112 0l222 1400h784l-35 -220h-555l-59 -369h555l-35 -222h-555l-58 -369h555l-35 -220h-784zM540 1600l305 296h393l-435 -296h-263z" />
<glyph unicode="&#xca;" horiz-adv-x="1008" d="M112 0l222 1400h784l-35 -220h-554l-59 -369h554l-35 -222h-554l-58 -369h554l-35 -220h-784zM348 1582l376 333h151l288 -333h-297l-102 89l-123 -89h-293z" />
<glyph unicode="&#xcb;" horiz-adv-x="1008" d="M112 0l222 1400h784l-35 -220h-555l-59 -369h555l-35 -222h-555l-58 -369h555l-35 -220h-784zM450 1639q0 11 2 23q10 59 60.5 101.5t113.5 42.5q62 0 99 -42q29 -34 29 -78q0 -11 -2 -24q-9 -60 -59.5 -103t-112.5 -43q-63 0 -100 43q-30 34 -30 80zM781 1639q0 11 2 23 q10 59 60 101.5t113 42.5q62 0 99 -42q29 -34 29 -78q0 -11 -2 -24q-9 -60 -59.5 -103t-112.5 -43q-63 0 -99 43q-30 34 -30 80z" />
<glyph unicode="&#xcc;" horiz-adv-x="473" d="M102 1886h392l211 -296h-263zM122 0l222 1400h229l-222 -1400h-229z" />
<glyph unicode="&#xcd;" horiz-adv-x="473" d="M122 0l222 1400h229l-222 -1400h-229zM273 1600l305 296h392l-435 -296h-262z" />
<glyph unicode="&#xce;" horiz-adv-x="473" d="M80 1582l377 333h151l287 -333h-297l-102 89l-123 -89h-293zM122 0l222 1400h229l-222 -1400h-229z" />
<glyph unicode="&#xcf;" horiz-adv-x="473" d="M122 0l222 1400h230l-222 -1400h-230zM183 1639q0 11 2 23q10 59 60.5 101.5t113.5 42.5q62 0 99 -42q29 -34 29 -78q0 -11 -2 -24q-9 -60 -59.5 -103t-112.5 -43q-63 0 -100 43q-30 34 -30 80zM513 1639q0 11 2 23q10 59 60.5 101.5t113.5 42.5q62 0 99 -42 q29 -34 29 -78q0 -11 -2 -24q-9 -60 -59.5 -103t-112.5 -43q-63 0 -100 43q-30 34 -30 80z" />
<glyph unicode="&#xd0;" horiz-adv-x="1267" d="M113 589l35 222h113l93 589h311q344 -2 506 -195q140 -167 140 -387q0 -57 -10 -118q-47 -296 -290 -505q-223 -193 -567 -195h-311l93 589h-113zM398 222h80q237 0 389 128q167 144 200 350q7 43 7 83q0 153 -96 268q-112 126 -349 126h-80l-58 -366h436l-35 -222h-436z " />
<glyph unicode="&#xd1;" horiz-adv-x="1213" d="M109 0l222 1400h136l489 -882l140 882h230l-226 -1426h-121l-502 904l-139 -878h-229zM494 1595q19 100 41 140q53 100 152 135q26 8 56 8q80 0 186 -73l82 -60q12 -6 17 -6q3 0 4 2v2q16 6 26 24q6 13 21 108l185 -35q-21 -98 -42 -139q-53 -100 -151 -134 q-28 -9 -57 -9q-81 0 -186 73q-82 59 -111 59h-1q-7 -2 -17 -22q-7 -14 -22 -106z" />
<glyph unicode="&#xd2;" horiz-adv-x="1566" d="M163 582q0 58 10 120q47 295 291 505.5t543 210.5q300 0 478 -210q140 -167 140 -386q0 -58 -10 -120q-47 -296 -291 -506.5t-544 -210.5q-299 0 -476 211q-141 166 -141 386zM396 617q0 -152 96 -265q122 -145 323 -145q202 0 369.5 144.5t200.5 350.5q7 43 7 83 q0 152 -96 267q-122 144 -324 144q-201 0 -369 -144.5t-200 -349.5q-7 -44 -7 -85zM648 1886h392l212 -296h-264z" />
<glyph unicode="&#xd3;" horiz-adv-x="1566" d="M163 582q0 58 10 120q47 295 291 505.5t543 210.5q300 0 478 -210q140 -167 140 -386q0 -58 -10 -120q-47 -296 -291 -506.5t-544 -210.5q-299 0 -476 211q-141 166 -141 386zM396 617q0 -152 96 -265q122 -145 323 -145q202 0 369.5 144.5t200.5 350.5q7 43 7 83 q0 152 -96 267q-122 144 -324 144q-201 0 -369 -144.5t-200 -349.5q-7 -44 -7 -85zM819 1600l305 296h392l-435 -296h-262z" />
<glyph unicode="&#xd4;" horiz-adv-x="1566" d="M163 582q0 58 10 120q47 295 291 505.5t543 210.5q300 0 478 -210q140 -167 140 -386q0 -58 -10 -120q-47 -296 -291 -506.5t-544 -210.5q-299 0 -476 211q-141 166 -141 386zM396 617q0 -152 96 -265q122 -145 323 -145q202 0 369.5 144.5t200.5 350.5q7 43 7 83 q0 152 -96 267q-122 144 -324 144q-201 0 -369 -144.5t-200 -349.5q-7 -44 -7 -85zM626 1582l377 333h151l286 -333h-296l-102 89l-124 -89h-292z" />
<glyph unicode="&#xd5;" horiz-adv-x="1566" d="M163 582q0 58 10 120q47 295 291 505.5t543 210.5q300 0 478 -210q140 -167 140 -386q0 -58 -10 -120q-47 -296 -291 -506.5t-544 -210.5q-299 0 -476 211q-141 166 -141 386zM396 617q0 -152 96 -265q122 -145 323 -145q202 0 369.5 144.5t200.5 350.5q7 43 7 83 q0 152 -96 267q-122 144 -324 144q-201 0 -369 -144.5t-200 -349.5q-7 -44 -7 -85zM669 1595q20 100 41 140q53 100 153 135q26 8 56 8q80 0 186 -73l82 -60q12 -6 17 -6q3 0 3 2l1 2q16 6 26 24q6 13 21 108l185 -35q-21 -98 -42 -139q-54 -100 -151 -134q-29 -9 -58 -9 q-81 0 -185 73q-83 59 -112 59h-1q-6 -2 -16 -22q-7 -14 -22 -106z" />
<glyph unicode="&#xd6;" horiz-adv-x="1566" d="M163 582q0 58 10 120q47 295 291 505.5t543 210.5q300 0 478 -210q140 -167 140 -386q0 -58 -10 -120q-47 -296 -291 -506.5t-544 -210.5q-299 0 -476 211q-141 166 -141 386zM396 617q0 -152 96 -265q122 -145 323 -145q202 0 369.5 144.5t200.5 350.5q7 43 7 83 q0 152 -96 267q-122 144 -324 144q-201 0 -369 -144.5t-200 -349.5q-7 -44 -7 -85zM729 1637q0 12 2 25q9 59 60 101.5t114 42.5q62 0 99 -42q29 -35 29 -79q0 -11 -2 -23q-10 -60 -60 -103t-112 -43q-63 0 -100 43q-30 33 -30 78zM1059 1637q0 12 2 25q9 59 60 101.5 t114 42.5q62 0 99 -42q29 -35 29 -79q0 -11 -2 -23q-10 -60 -60 -103t-112 -43q-63 0 -100 43q-30 33 -30 78z" />
<glyph unicode="&#xd7;" horiz-adv-x="1209" d="M188 280l257 258l-257 256l161 158l255 -255l256 255l160 -158l-257 -256l257 -258l-160 -157l-256 255l-255 -255z" />
<glyph unicode="&#xd8;" horiz-adv-x="1638" d="M199 582q0 58 10 120q47 295 291 505.5t543 210.5q145 0 195 -21l92 146l191 -94l-92 -149q26 -15 93 -93q139 -166 139 -384q0 -59 -10 -121q-47 -296 -291 -506.5t-544 -210.5q-145 0 -194 22l-93 -149l-190 97l92 148q-26 16 -92 94q-140 165 -140 385zM432 618 q0 -153 97 -268l25 -49l557 893q-6 2 -103 2q-201 0 -369 -144.5t-200 -349.5q-7 -44 -7 -84zM748 209q6 -2 103 -2q202 0 369.5 144.5t200.5 350.5q7 43 7 83q0 153 -97 269l-25 49z" />
<glyph unicode="&#xd9;" horiz-adv-x="1199" d="M180 393q0 38 6 79l147 928h229l-147 -928q-4 -23 -4 -44q0 -81 52 -141q65 -77 170 -77t193.5 76.5t105.5 185.5l147 928h229l-155 -978q-50 -172 -185 -290q-167 -143 -370 -143q-204 0 -323 143q-95 113 -95 261zM464 1886h392l211 -296h-263z" />
<glyph unicode="&#xda;" horiz-adv-x="1199" d="M180 393q0 38 6 79l147 928h229l-147 -928q-4 -23 -4 -44q0 -81 52 -141q65 -77 170 -77t193.5 76.5t105.5 185.5l147 928h229l-155 -978q-50 -172 -185 -290q-167 -143 -370 -143q-204 0 -323 143q-95 113 -95 261zM636 1600l305 296h392l-435 -296h-262z" />
<glyph unicode="&#xdb;" horiz-adv-x="1199" d="M180 393q0 38 6 79l147 928h229l-147 -928q-4 -23 -4 -44q0 -81 52 -141q65 -77 170 -77t193.5 76.5t105.5 185.5l147 928h229l-155 -978q-50 -172 -185 -290q-167 -143 -370 -143q-204 0 -323 143q-95 113 -95 261zM442 1582l378 333h150l287 -333h-296l-103 89 l-123 -89h-293z" />
<glyph unicode="&#xdc;" horiz-adv-x="1199" d="M180 393q0 38 6 79l147 928h229l-147 -928q-4 -23 -4 -44q0 -81 52 -141q65 -77 170 -77t193.5 76.5t105.5 185.5l147 928h229l-155 -978q-50 -172 -185 -290q-167 -143 -370 -143q-204 0 -323 143q-95 113 -95 261zM546 1637q0 12 2 25q9 59 60 101.5t114 42.5 q62 0 98 -42q29 -34 29 -79q0 -11 -2 -23q-10 -60 -59.5 -103t-111.5 -43q-63 0 -100 43q-30 33 -30 78zM876 1637q0 12 2 25q9 59 60 101.5t114 42.5q62 0 99 -42q29 -35 29 -79q0 -11 -2 -23q-10 -60 -60 -103t-112 -43q-63 0 -100 43q-30 33 -30 78z" />
<glyph unicode="&#xdd;" horiz-adv-x="1262" d="M254 1400h261l246 -584l430 584h261l-617 -838l-89 -562h-230l89 562zM668 1600l305 296h392l-435 -296h-262z" />
<glyph unicode="&#xde;" horiz-adv-x="1015" d="M98 0l222 1400h229l-34 -216h184q172 -24 271 -142q96 -112 96 -260q0 -39 -7 -81q-32 -200 -196.5 -341.5t-366.5 -141.5h-134l-35 -218h-229zM396 438h134q104 0 193 76.5t106 186.5q4 23 4 45q0 81 -50 141q-64 76 -169 76h-134z" />
<glyph unicode="&#xdf;" horiz-adv-x="1043" d="M112 0l180 1137q29 81 88 141q108 110 254 128q22 2 43 2q120 0 204 -77q89 -82 89 -206q0 -10 -1 -21q-1 -24 -5 -49q-17 -105 -84 -206q186 -126 186 -322q0 -26 -3 -53q-1 -25 -5 -51q-24 -152 -143 -275q-140 -145 -330 -166q-27 -3 -55 -3q-120 0 -185 45l-4 -24 h-229zM388 296l2 2q105 -95 176 -95q13 0 27 2q92 10 160 80q59 61 71 138q2 14 4 30v13q0 86 -59 146q-64 65 -158 74q-93 9 -93 96v11q0 7 1 16q12 74 98 115q32 14 76 64q32 35 39 76q0 5 1 15v6q0 47 -31 76q-25 23 -61 23q-7 0 -16 -1q-46 -4 -82 -41q-19 -21 -27 -36z " />
<glyph unicode="&#xe0;" d="M144 399q0 40 7 83q33 209 205 356.5t383 147.5q113 0 259 -69h229l-146 -917h-229l6 35q-165 -57 -278 -57q-211 0 -336 149q-100 118 -100 272zM366 1403h392l212 -296h-263zM380 433q0 -86 53 -149q68 -81 182 -81q112 0 205 81q72 61 99 135l20 126q-4 75 -56 136 q-67 81 -179 81q-113 0 -207.5 -81.5t-112.5 -198.5q-4 -26 -4 -49z" />
<glyph unicode="&#xe1;" d="M144 399q0 40 7 83q33 209 205 356.5t383 147.5q113 0 259 -69h229l-146 -917h-229l6 35q-165 -57 -278 -57q-211 0 -336 149q-100 118 -100 272zM380 433q0 -86 53 -149q68 -81 182 -81q112 0 205 81q72 61 99 135l20 126q-4 75 -56 136q-67 81 -179 81 q-113 0 -207.5 -81.5t-112.5 -198.5q-4 -26 -4 -49zM538 1117l305 296h392l-435 -296h-262z" />
<glyph unicode="&#xe2;" d="M144 399q0 40 7 83q33 209 205 356.5t383 147.5q113 0 259 -69h229l-146 -917h-229l6 35q-165 -57 -278 -57q-211 0 -336 149q-100 118 -100 272zM344 1099l378 333h150l287 -333h-296l-103 89l-123 -89h-293zM380 433q0 -86 53 -149q68 -81 182 -81q112 0 205 81 q72 61 99 135l20 126q-4 75 -56 136q-67 81 -179 81q-113 0 -207.5 -81.5t-112.5 -198.5q-4 -26 -4 -49z" />
<glyph unicode="&#xe3;" d="M144 399q0 40 7 83q33 209 205 356.5t383 147.5q113 0 259 -69h229l-146 -917h-229l6 35q-165 -57 -278 -57q-211 0 -336 149q-100 118 -100 272zM380 433q0 -86 53 -149q68 -81 182 -81q112 0 205 81q72 61 99 135l20 126q-4 75 -56 136q-67 81 -179 81 q-113 0 -207.5 -81.5t-112.5 -198.5q-4 -26 -4 -49zM388 1112q20 100 42 140q52 100 152 135q26 8 56 8q80 0 186 -73l82 -60q12 -6 17 -6q3 0 4 2v2q16 6 26 24q6 13 21 108l185 -35q-21 -98 -42 -139q-54 -100 -151 -134q-28 -9 -57 -9q-81 0 -186 73q-83 59 -112 59h-1 q-6 -2 -16 -22q-7 -14 -22 -106z" />
<glyph unicode="&#xe4;" d="M144 399q0 40 7 83q33 209 205 356.5t383 147.5q113 0 259 -69h229l-146 -917h-229l6 35q-165 -57 -278 -57q-211 0 -336 149q-100 118 -100 272zM380 433q0 -86 53 -149q68 -81 182 -81q112 0 205 81q72 61 99 135l20 126q-4 75 -56 136q-67 81 -179 81 q-113 0 -207.5 -81.5t-112.5 -198.5q-4 -26 -4 -49zM448 1154q0 12 2 25q9 59 59.5 101.5t113.5 42.5t99 -42q29 -34 29 -79q0 -11 -2 -23q-9 -60 -59 -103t-113 -43t-100 43q-29 33 -29 78zM778 1154q0 12 2 25q9 59 60 101.5t114 42.5q62 0 98 -42q29 -34 29 -79 q0 -11 -2 -23q-9 -60 -59 -103t-112 -43q-63 0 -100 43q-30 33 -30 78z" />
<glyph unicode="&#xe5;" d="M144 399q0 40 7 83q33 209 205 357q121 103 261 134q-13 10 -25 24q-40 46 -40 107q0 15 3 32q13 80 81 138.5t153 58.5t135 -58q39 -47 39 -107q0 -15 -3 -32q-13 -81 -80 -139q-11 -9 -21 -17q109 -12 141 -50l-2 -13h229l-146 -917h-229l6 35q-65 -57 -278 -57 q-211 0 -336 149q-100 118 -100 272zM380 433q0 -86 53 -149q68 -81 182 -81q112 0 205 81q72 61 99 135l20 126q-4 75 -56 136q-67 81 -179 81q-113 0 -207.5 -81.5t-112.5 -198.5q-4 -26 -4 -49zM723 1130q0 -13 7 -21q9 -11 22 -11t25.5 10.5t14.5 27.5q1 4 1 8 q0 12 -7 20q-9 10 -22 10t-25.5 -10.5t-15.5 -27.5v-6z" />
<glyph unicode="&#xe6;" horiz-adv-x="1726" d="M144 399q0 40 7 83q33 209 205 356.5t383 147.5q213 0 261 -56l5 35l189 -1q73 22 157 22q213 0 339 -149q82 -97 82 -262q0 -60 -11 -129h-609l-35 -220q38 -23 110 -23q113 0 206 81q18 15 77 75l205 -76q-81 -107 -137 -155q-173 -150 -386 -150q-84 0 -113 10l2 12 h-229l6 35q-65 -57 -278 -57q-211 0 -336 149q-100 118 -100 272zM380 433q0 -86 53 -149q68 -81 182 -81q112 0 205 81q72 61 99 135l20 126q-4 75 -56 136q-67 81 -179 81q-113 0 -207.5 -81.5t-112.5 -198.5q-4 -26 -4 -49zM1187 669h344q-102 93 -215 93q-72 0 -118 -23 z" />
<glyph unicode="&#xe7;" horiz-adv-x="1084" d="M122 399q0 41 7 84q33 208 205 355.5t383 147.5q213 0 338 -149q25 -29 90 -140l-237 -82q-38 57 -47 68q-67 79 -179 79q-113 0 -207 -81t-112 -198q-4 -26 -4 -50q0 -86 53 -149q68 -81 181 -81q112 0 205 81q13 11 69 66l210 -82q-100 -111 -134 -140 q-72 -63 -151 -99h17l-161 -72q74 -8 92 -121q-11 -73 -96.5 -117t-190.5 -44q-102 0 -213 66l182 93q31 -19 53 -19q24 0 36.5 7t13.5 11q0 4 -13 13t-57 14l-109 3l16 104l58 29q-117 34 -199 131q-99 118 -99 272z" />
<glyph unicode="&#xe8;" horiz-adv-x="1091" d="M122 399q0 40 7 83q33 209 205 356.5t383 147.5q213 0 338 -149q82 -97 82 -262q0 -60 -11 -129h-772q-2 -11 -2 -23q0 -69 59 -139q68 -81 182 -81q112 0 206 81q18 15 77 75l205 -76q-81 -107 -138 -155q-172 -150 -385 -150q-211 0 -336 149q-100 118 -100 272z M342 1403h392l212 -296h-263zM445 669h442q-43 93 -205 93q-153 0 -237 -93z" />
<glyph unicode="&#xe9;" horiz-adv-x="1091" d="M122 399q0 40 7 83q33 209 205 356.5t383 147.5q213 0 338 -149q82 -97 82 -262q0 -60 -11 -129h-772q-2 -11 -2 -23q0 -69 59 -139q68 -81 182 -81q112 0 206 81q18 15 77 75l205 -76q-81 -107 -138 -155q-172 -150 -385 -150q-211 0 -336 149q-100 118 -100 272z M445 669h442q-43 93 -205 93q-153 0 -237 -93zM514 1117l305 296h392l-435 -296h-262z" />
<glyph unicode="&#xea;" horiz-adv-x="1091" d="M122 399q0 40 7 83q33 209 205 356.5t383 147.5q213 0 338 -149q82 -97 82 -262q0 -60 -11 -129h-772q-2 -11 -2 -23q0 -69 59 -139q68 -81 182 -81q112 0 206 81q18 15 77 75l205 -76q-81 -107 -138 -155q-172 -150 -385 -150q-211 0 -336 149q-100 118 -100 272z M320 1099l378 333h150l287 -333h-296l-103 89l-123 -89h-293zM445 669h442q-43 93 -205 93q-153 0 -237 -93z" />
<glyph unicode="&#xeb;" horiz-adv-x="1091" d="M122 399q0 40 7 83q33 209 205 356.5t383 147.5q213 0 338 -149q82 -97 82 -262q0 -60 -11 -129h-772q-2 -11 -2 -23q0 -69 59 -139q68 -81 182 -81q112 0 206 81q18 15 77 75l205 -76q-81 -107 -138 -155q-172 -150 -385 -150q-211 0 -336 149q-100 118 -100 272z M424 1154q0 12 2 25q9 59 59.5 101.5t113.5 42.5t99 -42q29 -34 29 -79q0 -11 -2 -23q-9 -60 -59 -103t-113 -43t-100 43q-29 33 -29 78zM445 669h442q-43 93 -205 93q-153 0 -237 -93zM754 1154q0 12 2 25q9 59 60 101.5t114 42.5q62 0 98 -42q29 -34 29 -79q0 -11 -2 -23 q-9 -60 -59 -103t-112 -43q-63 0 -100 43q-30 33 -30 78z" />
<glyph unicode="&#xec;" horiz-adv-x="458" d="M17 1403h392l211 -296h-263zM114 0l145 917h229l-145 -917h-229z" />
<glyph unicode="&#xed;" horiz-adv-x="458" d="M114 0l145 917h229l-145 -917h-229zM189 1117l305 296h392l-435 -296h-262z" />
<glyph unicode="&#xee;" horiz-adv-x="458" d="M-5 1099l377 333h151l287 -333h-297l-102 89l-123 -89h-293zM114 0l145 917h229l-145 -917h-229z" />
<glyph unicode="&#xef;" horiz-adv-x="458" d="M99 1154q0 12 2 25q9 59 59.5 101.5t113.5 42.5q62 0 99 -42q30 -35 30 -80q0 -10 -2 -22q-10 -60 -60 -103t-112 -43q-63 0 -100 43q-30 33 -30 78zM115 0l145 917h228l-145 -917h-228zM429 1154q0 12 2 25q9 59 59.5 101.5t113.5 42.5q62 0 99 -42q30 -35 30 -80 q0 -10 -2 -22q-10 -60 -60 -103t-112 -43q-63 0 -100 43q-30 33 -30 78z" />
<glyph unicode="&#xf1;" horiz-adv-x="959" d="M99 0l145 917h176q89 46 205 46q170 0 261 -107q72 -86 72 -205q0 -30 -5 -62l-93 -589h-228l92 582q2 15 2 28q0 50 -31 87q-41 46 -105 46q-63 0 -117 -45q-32 -27 -41 -42l-104 -656h-229zM290 1112q20 100 41 140q53 100 153 135q26 8 56 8q80 0 185 -73l83 -60 q12 -6 17 -6q3 0 3 2l1 2q16 6 25 24q6 13 21 108l186 -35q-22 -98 -42 -139q-54 -100 -151 -134q-29 -9 -58 -9q-81 0 -185 73q-83 59 -112 59h-1q-6 -2 -16 -22q-8 -14 -22 -106z" />
<glyph unicode="&#xf2;" horiz-adv-x="1161" d="M142 399q0 40 7 83q33 209 205 356.5t383 147.5q213 0 338 -148q98 -117 98 -271q0 -41 -7 -85q-33 -206 -204 -355t-384 -149q-211 0 -336 149q-100 118 -100 272zM369 1403h392l212 -296h-263zM378 433q0 -86 53 -149q68 -81 182 -81q112 0 206 81t113 198q4 24 4 47 q0 87 -54 152q-68 81 -180 81q-113 0 -207.5 -81.5t-112.5 -198.5q-4 -26 -4 -49z" />
<glyph unicode="&#xf3;" horiz-adv-x="1161" d="M142 399q0 40 7 83q33 209 205 356.5t383 147.5q213 0 338 -148q98 -117 98 -271q0 -41 -7 -85q-33 -206 -204 -355t-384 -149q-211 0 -336 149q-100 118 -100 272zM378 433q0 -86 53 -149q68 -81 182 -81q112 0 206 81t113 198q4 24 4 47q0 87 -54 152q-68 81 -180 81 q-113 0 -207.5 -81.5t-112.5 -198.5q-4 -26 -4 -49zM541 1117l304 296h393l-435 -296h-262z" />
<glyph unicode="&#xf4;" horiz-adv-x="1161" d="M142 399q0 40 7 83q33 209 205 356.5t383 147.5q213 0 338 -148q98 -117 98 -271q0 -41 -7 -85q-33 -206 -204 -355t-384 -149q-211 0 -336 149q-100 118 -100 272zM347 1099l377 333h151l287 -333h-297l-102 89l-123 -89h-293zM378 433q0 -86 53 -149q68 -81 182 -81 q112 0 206 81t113 198q4 24 4 47q0 87 -54 152q-68 81 -180 81q-113 0 -207.5 -81.5t-112.5 -198.5q-4 -26 -4 -49z" />
<glyph unicode="&#xf5;" horiz-adv-x="1161" d="M142 399q0 40 7 83q33 209 205 356.5t383 147.5q213 0 338 -148q98 -117 98 -271q0 -41 -7 -85q-33 -206 -204 -355t-384 -149q-211 0 -336 149q-100 118 -100 272zM378 433q0 -86 53 -149q68 -81 182 -81q112 0 206 81t113 198q4 24 4 47q0 87 -54 152q-68 81 -180 81 q-113 0 -207.5 -81.5t-112.5 -198.5q-4 -26 -4 -49zM390 1112q20 100 42 140q52 100 152 135q26 8 56 8q80 0 186 -73l82 -60q12 -6 17 -6q3 0 4 2v2q16 6 26 24q6 13 21 108l185 -35q-21 -98 -42 -139q-54 -100 -151 -134q-28 -9 -57 -9q-81 0 -186 73q-83 59 -112 59h-1 q-6 -2 -16 -22q-7 -14 -22 -106z" />
<glyph unicode="&#xf6;" horiz-adv-x="1161" d="M142 399q0 40 7 83q33 209 205 356.5t383 147.5q213 0 338 -148q98 -117 98 -271q0 -41 -7 -85q-33 -206 -204 -355t-384 -149q-211 0 -336 149q-100 118 -100 272zM378 433q0 -86 53 -149q68 -81 182 -81q112 0 206 81t113 198q4 24 4 47q0 87 -54 152q-68 81 -180 81 q-113 0 -207.5 -81.5t-112.5 -198.5q-4 -26 -4 -49zM450 1154q0 12 2 25q9 59 60 101.5t114 42.5q62 0 99 -42q29 -35 29 -79q0 -11 -2 -23q-9 -60 -59.5 -103t-112.5 -43q-63 0 -100 43q-30 33 -30 78zM781 1154q0 12 2 25q9 59 59.5 101.5t113.5 42.5t99 -42 q29 -34 29 -79q0 -11 -2 -23q-9 -60 -59 -103t-113 -43t-100 43q-29 33 -29 78z" />
<glyph unicode="&#xf7;" horiz-adv-x="1125" d="M85 427v220h955v-220h-955zM413 265q0 59 43.5 102t106.5 43q62 0 106 -43t44 -102q0 -60 -44 -102.5t-106 -42.5q-63 0 -106.5 42.5t-43.5 102.5zM413 810q0 60 43.5 103t106.5 43q62 0 106 -43t44 -103q0 -58 -44 -101t-106 -43q-63 0 -106.5 43t-43.5 101z" />
<glyph unicode="&#xf8;" horiz-adv-x="1127" d="M101 -75l136 187q-111 133 -111 293q0 38 6 78q33 208 205 356t383 148q120 0 150 -15l123 169l184 -107l-132 -179q110 -134 110 -295q0 -38 -6 -77q-33 -206 -204 -355t-384 -149q-120 0 -150 15l-122 -165zM359 414q0 -65 27 -100l342 466q-156 -18 -250.5 -99 t-112.5 -198q-6 -38 -6 -69zM551 208q153 0 243 74q102 84 121 201q6 38 6 69q0 65 -26 99z" />
<glyph unicode="&#xf9;" horiz-adv-x="957" d="M140 303q0 30 4 61l88 554h229l-86 -547q-2 -14 -2 -28q0 -50 32 -88q40 -46 110 -46q63 0 118.5 47t66.5 115l86 547h229l-88 -554q-28 -161 -151 -267q-126 -108 -295 -108q-178 0 -268 107q-73 86 -73 207zM267 1403h392l211 -296h-263z" />
<glyph unicode="&#xfa;" horiz-adv-x="957" d="M140 303q0 30 4 61l88 554h229l-86 -547q-2 -14 -2 -27q0 -51 33 -89q39 -46 110 -46q62 0 117.5 47t66.5 115l86 547h229l-88 -554q-28 -161 -151 -267q-126 -108 -295 -108q-178 0 -268 107q-73 86 -73 207zM439 1117l305 296h392l-435 -296h-262z" />
<glyph unicode="&#xfb;" horiz-adv-x="957" d="M140 303q0 30 4 61l88 554h229l-86 -547q-2 -14 -2 -28q0 -50 32 -88q40 -46 110 -46q63 0 118.5 47t66.5 115l86 547h229l-88 -554q-28 -161 -151 -267q-126 -108 -295 -108q-178 0 -268 107q-73 86 -73 207zM245 1099l377 333h151l287 -333h-297l-102 89l-123 -89h-293 z" />
<glyph unicode="&#xfc;" horiz-adv-x="957" d="M140 303q0 30 4 61l88 554h229l-86 -547q-2 -14 -2 -27q0 -51 33 -89q39 -46 110 -46q62 0 117.5 47t66.5 115l86 547h229l-88 -554q-28 -161 -151 -267q-126 -108 -295 -108q-178 0 -268 107q-73 86 -73 207zM349 1154q0 12 2 25q9 59 59.5 101.5t113.5 42.5 q62 0 99 -42q29 -35 29 -79q0 -11 -2 -23q-10 -60 -60 -103t-112 -43q-63 0 -100 43q-29 33 -29 78zM679 1154q0 12 2 25q9 59 59.5 101.5t113.5 42.5q62 0 99 -42q30 -35 30 -80q0 -10 -2 -22q-10 -60 -60.5 -103t-112.5 -43q-63 0 -100 43q-29 33 -29 78z" />
<glyph unicode="&#xfd;" horiz-adv-x="936" d="M58 -292l318 509l-216 700h253l133 -425l268 425h252l-755 -1209h-253zM428 1117l305 296h392l-435 -296h-262z" />
<glyph unicode="&#xfe;" horiz-adv-x="1158" d="M19 -483l298 1883h234l-81 -512q65 51 268 51q212 0 337 -148q98 -118 98 -272q0 -41 -7 -84q-33 -208 -204 -356t-383 -148q-200 0 -256 79l-78 -493h-226zM383 338q9 -54 51 -102q67 -81 180 -81t207 81.5t112 198.5q4 26 4 49q0 86 -53 149q-68 81 -181 81t-206 -81 q-57 -48 -83 -100z" />
<glyph unicode="&#xff;" horiz-adv-x="936" d="M58 -292l318 509l-216 700h253l133 -425l268 425h252l-755 -1209h-253zM338 1154q0 12 2 25q9 59 60 101.5t114 42.5q62 0 99 -42q29 -35 29 -79q0 -11 -2 -23q-10 -60 -60 -103t-112 -43q-63 0 -100 43q-30 33 -30 78zM668 1154q0 12 2 25q9 59 60 101.5t114 42.5 q62 0 99 -42q29 -35 29 -79q0 -11 -2 -23q-10 -60 -60 -103t-112 -43q-63 0 -100 43q-30 33 -30 78z" />
<glyph unicode="&#x152;" horiz-adv-x="1961" d="M189 582q0 58 10 120q47 295 291 505.5t543 210.5q116 0 207 -18h854l-34 -220h-504q102 -143 102 -305q0 -31 -4 -64h347l-35 -222h-347q-41 -197 -216 -369h505l-35 -220h-856q-97 -15 -211 -15q-299 0 -476 211q-141 166 -141 386zM422 617q0 -152 96 -265 q122 -145 323 -145q94 0 178 28q32 12 65 29q64 33 127 88q153 132 194 317q3 15 6 33q2 15 3 29q3 28 3 55q0 152 -96 268q-45 52 -98 83q-28 18 -56 30q-76 29 -169 29q-201 0 -369 -144.5t-200 -349.5q-7 -44 -7 -85z" />
<glyph unicode="&#x153;" horiz-adv-x="1790" d="M136 399q0 40 7 83q33 209 205 356.5t383 147.5q213 0 343 -150q118 150 330 150t337 -147q87 -104 87 -282q0 -52 -8 -111l-664 1q-18 -95 -62 -157q73 -87 186 -87q112 0 206 81q18 15 77 75l204 -77q-81 -106 -137 -154q-173 -150 -385 -150t-349 158 q-111 -158 -324 -158q-211 0 -336 149q-100 118 -100 272zM372 433q0 -86 53 -149q68 -81 182 -81q112 0 206 81t113 198q4 24 4 47q0 87 -54 152q-68 81 -180 81q-113 0 -207.5 -81.5t-112.5 -198.5q-4 -26 -4 -49zM1188 669h383q-42 93 -202 93q-108 0 -181 -93z" />
<glyph unicode="&#x178;" horiz-adv-x="1262" d="M254 1400h261l246 -584l430 584h261l-617 -838l-89 -562h-230l89 562zM577 1639q0 11 2 23q10 59 60.5 101.5t113.5 42.5q62 0 99 -42q29 -34 29 -78q0 -11 -2 -24q-9 -60 -59.5 -103t-112.5 -43q-63 0 -100 43q-30 34 -30 80zM907 1639q0 11 2 23q10 59 60.5 101.5 t113.5 42.5q62 0 99 -42q29 -34 29 -78q0 -11 -2 -24q-9 -60 -59.5 -103t-112.5 -43q-63 0 -100 43q-30 34 -30 80z" />
<glyph unicode="&#x2c6;" horiz-adv-x="965" d="M249 1099l377 333h151l287 -333h-297l-102 89l-123 -89h-293z" />
<glyph unicode="&#x2dc;" horiz-adv-x="881" d="M251 1112q20 100 41 140q53 100 153 135q26 8 56 8q80 0 185 -73l83 -60q12 -6 17 -6q3 0 3 2v2q16 6 26 24q6 13 21 108l186 -35q-22 -98 -42 -139q-54 -100 -151 -134q-29 -9 -58 -9q-81 0 -185 73q-83 59 -112 59h-1q-6 -2 -16 -22q-8 -14 -22 -106z" />
<glyph unicode="&#x2000;" horiz-adv-x="957" />
<glyph unicode="&#x2001;" horiz-adv-x="1915" />
<glyph unicode="&#x2002;" horiz-adv-x="957" />
<glyph unicode="&#x2003;" horiz-adv-x="1915" />
<glyph unicode="&#x2004;" horiz-adv-x="638" />
<glyph unicode="&#x2005;" horiz-adv-x="478" />
<glyph unicode="&#x2006;" horiz-adv-x="319" />
<glyph unicode="&#x2007;" horiz-adv-x="319" />
<glyph unicode="&#x2008;" horiz-adv-x="239" />
<glyph unicode="&#x2009;" horiz-adv-x="383" />
<glyph unicode="&#x200a;" horiz-adv-x="106" />
<glyph unicode="&#x2010;" horiz-adv-x="697" d="M116 427l35 220h601l-35 -220h-601z" />
<glyph unicode="&#x2011;" horiz-adv-x="697" d="M116 427l35 220h601l-35 -220h-601z" />
<glyph unicode="&#x2012;" horiz-adv-x="697" d="M116 427l35 220h601l-35 -220h-601z" />
<glyph unicode="&#x2013;" horiz-adv-x="761" d="M0 427v220h761v-220h-761z" />
<glyph unicode="&#x2014;" horiz-adv-x="1268" d="M0 427v220h1268v-220h-1268z" />
<glyph unicode="&#x2018;" horiz-adv-x="407" d="M207 942q0 12 2 26q0 5 2 10q14 67 183 420h171l-135 -293q29 -10 49 -34q29 -34 29 -78q0 -11 -2 -23q-10 -60 -60 -103t-112 -43q-63 0 -100 43q-27 31 -27 75z" />
<glyph unicode="&#x2019;" horiz-adv-x="407" d="M195 824l134 293q-28 10 -48 34q-29 34 -29 78q0 11 2 23q9 60 59.5 103t112.5 43q63 0 100 -43q27 -31 27 -75q0 -12 -2 -26l-2 -10q-14 -67 -183 -420h-171z" />
<glyph unicode="&#x201a;" horiz-adv-x="407" d="M12 -330l134 293q-28 10 -48 34q-29 34 -29 78q0 11 2 23q9 60 59.5 103t112.5 43q63 0 100 -43q27 -31 27 -75q0 -12 -2 -26l-2 -10q-14 -67 -183 -420h-171z" />
<glyph unicode="&#x201c;" horiz-adv-x="767" d="M207 942q0 12 2 26q0 5 2 10q14 67 183 420h171l-135 -293q29 -10 49 -34q29 -34 29 -78q0 -11 -2 -23q-10 -60 -60 -103t-112 -43q-63 0 -100 43q-27 31 -27 75zM567 942q0 12 2 26q0 5 2 10q14 67 183 420h171l-135 -293q29 -10 49 -34q29 -34 29 -78q0 -11 -2 -23 q-10 -60 -60 -103t-112 -43q-63 0 -100 43q-27 31 -27 75z" />
<glyph unicode="&#x201d;" horiz-adv-x="767" d="M195 824l134 293q-28 10 -48 34q-29 34 -29 78q0 11 2 23q9 60 59.5 103t112.5 43q63 0 100 -43q27 -31 27 -75q0 -12 -2 -26l-2 -10q-14 -67 -183 -420h-171zM555 824l134 293q-28 10 -48 34q-29 34 -29 78q0 11 2 23q9 60 59.5 103t112.5 43q63 0 100 -43 q27 -31 27 -75q0 -12 -2 -26l-2 -10q-14 -67 -183 -420h-171z" />
<glyph unicode="&#x201e;" horiz-adv-x="767" d="M18 -289l134 293q-28 10 -48 34q-29 34 -29 78q0 11 2 23q9 60 59.5 103t112.5 43q63 0 100 -43q27 -31 27 -75q0 -12 -2 -26l-2 -10q-14 -67 -183 -420h-171zM378 -289l134 293q-28 10 -48 34q-29 34 -29 78q0 11 2 23q9 60 59.5 103t112.5 43q63 0 100 -43 q27 -31 27 -75q0 -12 -2 -26l-2 -10q-14 -67 -183 -420h-171z" />
<glyph unicode="&#x2022;" horiz-adv-x="2623" d="M148 -53q18 9 25 13.5t7 7.5v159q0 20 -30 29q78 37 111 60q16 -2 20 -46v-2q12 5 23 10l102 38q7 -38 16 -68t18 -87q1 -11 1 -21q0 -48 -32 -98q-40 -62 -113 -126q46 85 46 158q0 20 -3 39q-16 89 -27 112q-31 -23 -31 -47v-103q0 -3 3.5 -11t31.5 -15q-28 -9 -76 -38 q-15 -9 -29 -9q-32 0 -63 45zM206 965v25q198 54 260 129q65 93 154 93h7q117 0 117 -69q0 -21 -18 -42v-7q19 -111 99 -111l-62 266q21 0 74 80l223 267h482q25 -20 223 -292q49 -53 49 -79v-13l-44 -161l13 -37l-25 -37h7q104 43 104 117v7q-17 21 -17 42q0 69 116 69h7 q92 0 186 -123q60 -50 228 -99v-25q-18 0 -18 -12l5 -8v-5q-5 -25 -37 -25h-12l-191 -12q-28 25 -94 25l-54 25l-7 -20q23 -74 106 -74l17 -5q69 5 69 17v7l-12 18v7l25 -12l30 5h99l37 7l19 -7v-12q0 -36 -180 -62l-111 7v-20q100 -30 167 -30h38v-7q-46 -62 -144 -62h-24 q-62 0 -142 32v-7q0 -32 142 -79q0 -25 -67 -32q-39 0 -168 56q0 -30 61 -81l-17 -12l-119 37v-5l20 -50l-25 -7q-33 0 -118 111l-55 -272v-5h-656q-33 0 -74 260q-65 -83 -106 -94l-25 7l20 55h-7q-76 -37 -117 -37l-12 19q62 37 62 74h-8q-113 -56 -166 -56q-62 7 -62 32 q142 47 142 79v7h-5q-64 -32 -137 -32h-24q-97 0 -143 62v7h37q67 0 168 30v20l-124 -7q-168 30 -168 62v12h12v7l45 -7h99l24 -5l30 12v-7l-12 -18v-7q0 -12 62 -17q131 10 131 91l-8 8q-45 -25 -123 -32q0 -9 -25 -18l-191 12h-12q-32 0 -37 25l5 18zM392 970l12 -12h80 l19 19v13h-12v5l-99 -18v-7zM416 -140q1 59 61 85q-7 20 -7 23v159q0 20 -30 29q77 37 111 60q16 -2 19 -46v-195q2 -15 12 -15t29 17v150q0 20 -30 29q78 37 111 60q16 -2 20 -46v-159q0 -45 -70 -77t-111 -32h-4q-38 0 -47 -29q-2 -7 -2 -13q0 -20 23 -29q8 -3 18 -3 q25 0 60 20q30 18 56 18q16 0 29 -7q16 -7 27 -29q4 -8 4 -17q0 -12 -8 -23q-14 -14 -29 -14q-7 0 -15 3q-23 14 -37 46q-2 3 -5 3t-9 -6q-47 -47 -91 -47q-15 0 -29 5q-56 20 -56 78v2zM478 760h80q80 0 111 69v42h-5l-99 -42q0 -13 -69 -37l-18 -20v-12zM627 1163l18 -37 l61 24v18h-79v-5zM632 921l7 -6h25l12 13l-19 42h-12zM639 705l6 -7v-5q99 35 99 111v5h-6q-56 -37 -99 -99v-5zM701 854h18l12 12v12q0 9 -25 18l-5 -5v-37zM721 -53q15 9 23 13.5t8 7.5v159q0 20 -30 29q76 37 112 60q16 -2 19 -46v-2q11 5 23 10l76 38q2 -7 25 -38 q7 -7 10 -14q16 7 34 14l76 38q0 -7 23 -36.5t23 -45.5v-159q0 -3 3 -11q4 -7 29 -14v177q0 20 -30 29q77 37 111 60q12 -27 25 -46q10 3 21 8l101 38q7 -38 26 -101q9 -29 9 -54q0 -27 -11 -49q-24 -53 -84 -84q-39 -20 -68 -27v-51q0 -6 4 -13.5t32 -13.5q-28 -10 -75 -39 q-14 -9 -29 -9q-32 0 -64 47q18 7 25 12t7 7v107q-28 -10 -73 -38q-10 -6 -21 -6q-22 0 -39 32v128q-3 26 -30 61q-9 -12 -12 -33v-117q0 -3 3.5 -11t31.5 -15q-28 -9 -76 -39q-11 -6 -21 -6q-23 0 -39 32v128q-3 26 -30 61q-16 -12 -16 -33v-117q0 -3 3.5 -11t16.5 -15 q-13 -9 -61 -38q-15 -9 -29 -9q-32 0 -62 45zM751 673h5l56 20v67h-7q-54 -28 -54 -87zM768 829l20 -20h5l12 13v7l-17 17h-7l-13 -12v-5zM843 673l7 -5v-7q24 9 37 32v24l-13 13l-31 -32v-25zM843 785l7 -6h5l12 13l-12 12zM855 1279h19q170 202 211 267q-20 0 -20 18h-5 q-99 -99 -99 -136q-106 -117 -106 -149zM867 1193h7l6 -5h7q0 30 79 116l143 198l-12 12l-57 -74q-153 -191 -173 -247zM904 1039q60 -401 174 -433l-167 451h-7v-18zM917 1188l198 -569h358q82 224 168 537l-62 99q-143 221 -143 242h-297l-222 -304v-5zM1060 445l25 -7 l129 62v7q0 13 -75 25q-30 0 -79 -81v-6zM1109 850v5q57 135 57 181q-37 79 -37 111q30 161 161 161h3q157 0 157 -161q0 -30 -44 -124v-7l62 -166h-359zM1127 581l12 -12h273l61 5v7h-346zM1279 60q0 -19 12 -41q13 -21 32 -21q25 4 27 32q-4 28 -18 51q-12 21 -23 44 q-30 -23 -30 -65zM1382 500l136 -62l17 7v6q-32 60 -74 81q-79 -12 -79 -25v-7zM1422 -53q18 9 25 13.5t7 7.5v339q0 20 -30 31q78 37 110 46q17 -25 38 -50q-17 -4 -17 -19v-142q7 4 16 7l100 37q7 -37 16 -67q11 -30 19 -70q2 -8 2 -17q0 -36 -24 -88q-30 -65 -108 -123 q37 71 37 131q0 23 -5 44q-20 77 -30 100q-16 -10 -23 -23v-129q0 -3 3.5 -11t31.5 -15q-28 -9 -76 -38q-15 -9 -29 -9q-32 0 -63 45zM1456 1509l161 -254q49 -75 79 -75l25 20l-228 339zM1523 1539q171 -226 205 -252v5q-154 231 -205 267v-20zM1535 643h7q87 0 149 396 q-6 43 -20 43q-37 -50 -136 -409v-30zM1696 717q0 -28 50 -56l7 7v30l-45 37q-12 0 -12 -18zM1718 26q0 32 13 61q25 54 115 91l103 38q5 -38 25 -101q9 -29 9 -54q0 -27 -11 -49q-25 -53 -85 -84q-56 -29 -91 -29h-7q-36 4 -59 64q-12 33 -12 63zM1728 792l12 -13l13 13 l-20 12l-5 -7v-5zM1783 693l56 -20h6v7q0 50 -55 80h-7v-67zM1790 822l12 -13h5l20 20v5l-13 12h-7l-17 -17v-7zM1823 60q0 -19 13 -41q12 -21 33 -21q25 4 25 32q-4 28 -18 51q-12 21 -23 44q-30 -23 -30 -65zM1852 804q0 -76 99 -111l5 5v12q-43 62 -99 99h-5v-5z M1864 866l12 -12h18v30l-18 19l-12 -12v-25zM1889 1150l62 -24l17 37v5h-79v-18zM1913 933l18 -18h20l12 13l-12 42h-20q-18 -5 -18 -37zM1926 854q0 -80 104 -94h87v12q-23 27 -87 50q0 17 -74 32l-25 17h-5v-17zM1979 -53q17 9 24.5 13.5t7.5 7.5v159q0 20 -30 29 q77 37 111 60q16 -2 19 -46v-2q13 5 25 10l101 38q7 -38 16 -68q10 -30 18 -87q2 -10 2 -19q0 -49 -33 -100q-39 -62 -113 -126q46 85 46 158q0 20 -3 39q-16 89 -27 112q-30 -23 -30 -47h-2v-103q0 -3 3.5 -11t32.5 -15q-27 -9 -75 -38q-15 -9 -29 -9q-32 0 -64 45z M2092 977l19 -19h80l12 12v7l-92 18l-19 -5v-13zM2278 117q0 16 8 33q7 14 25 23q5 2 9 4v58q0 57 33 99q34 42 114 48q-46 -50 -46 -140v-76q21 9 38 20q8 -18 8 -35q0 -18 -8 -34q-7 -15 -24 -23q-7 -4 -14 -4v-78q2 -27 23 -27q12 0 31 10q-23 -48 -67 -81 q-15 -10 -32 -10q-38 0 -88 43q18 9 25 13.5t7 7.5v131q-16 -7 -34 -18q-8 18 -8 36z" />
<glyph unicode="&#x2026;" horiz-adv-x="2032" d="M118 110q0 12 2 25q9 58 59.5 101t113.5 43q62 0 99 -43q30 -35 30 -79q0 -11 -2 -22q-10 -60 -60.5 -103t-112.5 -43q-63 0 -100 43q-29 34 -29 78zM722 110q0 12 2 25q9 58 59.5 101t113.5 43q62 0 99 -43q29 -34 29 -79q0 -11 -2 -22q-10 -60 -60 -103t-112 -43 q-63 0 -100 43q-29 34 -29 78zM1326 110q0 12 2 25q9 58 59 101t113 43q62 0 100 -43q30 -35 30 -79q0 -11 -2 -22q-10 -60 -61 -103t-113 -43q-63 0 -99 43q-29 34 -29 78z" />
<glyph unicode="&#x202f;" horiz-adv-x="383" />
<glyph unicode="&#x2039;" horiz-adv-x="645" d="M126 450l626 575l-52 -326l-269 -248l191 -247l-52 -328z" />
<glyph unicode="&#x203a;" horiz-adv-x="645" d="M35 -124l52 328l270 247l-192 248l52 326l444 -575z" />
<glyph unicode="&#x205f;" horiz-adv-x="478" />
<glyph unicode="&#x20ac;" horiz-adv-x="1134" d="M28 441l71 200h141l6 37h-134l70 201h104q62 248 189 361q169 150 378 150q211 0 364 -190l-176 -158q-116 143 -220 143q-105 0 -194 -78q-68 -60 -111 -228h294l-70 -201h-263l-6 -37h256l-71 -200h-200v-11q0 -110 39 -158q64 -79 169 -79q104 0 193 79q60 53 112 170 h234q-81 -203 -192 -303q-168 -151 -380 -151q-209 0 -331 151q-76 94 -76 283v19h-196z" />
<glyph unicode="&#x2122;" horiz-adv-x="1019" d="M32 1312v88h384l286 -422l285 430v-568h-104v236l-153 -236h-58l-153 235v-235h-103v472h-138v-472h-103v472h-143z" />
<glyph unicode="&#x25fc;" horiz-adv-x="915" d="M0 0v915h915v-915h-915z" />
</font>
</defs>
</svg>
