<?xml version="1.0" standalone="no"?>
<!DOCTYPE svg PUBLIC "-//W3C//DTD SVG 1.1//EN" "http://www.w3.org/Graphics/SVG/1.1/DTD/svg11.dtd" >
<svg xmlns="http://www.w3.org/2000/svg" xmlns:xlink="http://www.w3.org/1999/xlink" version="1.1">
<metadata></metadata>
<defs>
<font id="crapaudcrapaud_petit" horiz-adv-x="1177" >
<font-face units-per-em="2048" ascent="1536" descent="-512" />
<missing-glyph horiz-adv-x="622" />
<glyph unicode="&#xfb01;" horiz-adv-x="1296" d="M139 840q0 16 10.5 26.5t26.5 10.5h195v264q0 76 28.5 143.5t78.5 117.5t118 78.5t143 28.5q16 0 26.5 -10t10.5 -26t-10 -26.5t-27 -10.5q-61 0 -115.5 -23.5t-94.5 -63.5t-62.5 -93.5t-22.5 -114.5v-264h633q16 0 26.5 -10.5t10.5 -26.5v-666q0 -16 -10 -26.5 t-27 -10.5q-16 0 -26.5 10.5t-10.5 26.5v629h-596v-625q0 -16 -10 -26.5t-26 -10.5t-26.5 10.5t-10.5 26.5v625h-195q-16 0 -26.5 10t-10.5 27z" />
<glyph unicode="&#xfb02;" horiz-adv-x="1519" d="M139 840q0 16 10.5 26.5t26.5 10.5h195v264q0 76 28.5 143.5t78.5 117.5t118 78.5t143 28.5q16 0 26.5 -10t10.5 -26t-10 -26.5t-27 -10.5q-61 0 -115.5 -23.5t-94.5 -63.5t-62.5 -93.5t-22.5 -114.5v-264h611v397q0 14 10 25.5t27 11.5q16 0 26 -11.5t10 -25.5v-891 q0 -72 49 -120t119 -48q16 0 26.5 -10t10.5 -27q0 -16 -10 -26.5t-27 -10.5q-49 0 -93 19.5t-76.5 52.5t-52 77t-19.5 93v420h-611v-625q0 -16 -10 -26.5t-26 -10.5t-26.5 10.5t-10.5 26.5v625h-195q-16 0 -26.5 10t-10.5 27z" />
<glyph horiz-adv-x="0" />
<glyph unicode="&#xd;" horiz-adv-x="622" />
<glyph horiz-adv-x="0" />
<glyph horiz-adv-x="0" />
<glyph unicode=" "  horiz-adv-x="622" />
<glyph unicode="&#x09;" horiz-adv-x="622" />
<glyph unicode="&#xa0;" horiz-adv-x="622" />
<glyph unicode="!" horiz-adv-x="485" d="M186 68q0 23 16.5 39t39.5 16t39 -16.5t16 -38.5q0 -23 -16.5 -39.5t-38.5 -16.5q-23 0 -39.5 16.5t-16.5 39.5zM205 461v717q0 16 10 26t27 10q14 0 25.5 -10t11.5 -26v-717q0 -16 -11.5 -26.5t-25.5 -10.5q-16 0 -26.5 10t-10.5 27z" />
<glyph unicode="&#x22;" horiz-adv-x="1058" d="M489 1094v278q0 16 10.5 26.5t26.5 10.5t26.5 -10t10.5 -27v-278q0 -16 -10 -26.5t-27 -10.5q-16 0 -26.5 10t-10.5 27zM674 1094v278q0 16 10 26.5t27 10.5q16 0 26.5 -10t10.5 -27v-278q0 -16 -10.5 -26.5t-26.5 -10.5t-26.5 10t-10.5 27z" />
<glyph unicode="#" horiz-adv-x="1441" d="M217 293q0 16 10.5 26.5t26.5 10.5h178l39 483h-135q-16 0 -26.5 10.5t-10.5 26.5t10 26.5t27 10.5h139l19 239q2 16 13 25.5t28 7.5q16 0 25 -11t7 -28l-18 -233h356l19 239q2 16 12 25.5t27 7.5q16 0 25 -11t9 -28l-18 -233h174q16 0 26.5 -10.5t10.5 -26.5 t-10.5 -26.5t-26.5 -10.5h-180l-37 -483h135q14 0 25.5 -10.5t11.5 -26.5t-11.5 -26.5t-25.5 -10.5h-141l-19 -246q-2 -16 -13 -25.5t-28 -7.5q-16 2 -25 12.5t-7 26.5l18 240h-354l-21 -246q0 -33 -39 -33q-35 4 -34 39l20 240h-174q-16 0 -26.5 10t-10.5 27zM506 330h356 l37 483h-354z" />
<glyph unicode="$" horiz-adv-x="1056" d="M180 860q0 61 23.5 115.5t63.5 95.5t94.5 65.5t115.5 24.5v113q0 10 7.5 17t17.5 7q25 0 24 -24v-113h207q16 0 26.5 -10t10.5 -27q0 -16 -10 -26.5t-27 -10.5h-252q-47 0 -88 -18t-71.5 -49t-49 -72t-18.5 -88q0 -78 48 -140.5t126 -80.5l223 -53q101 -25 164 -105 q66 -84 66 -188q0 -61 -23.5 -116.5t-64.5 -96.5t-96.5 -64.5t-116.5 -23.5h-54v-113q0 -25 -24 -24q-10 0 -17.5 7t-7.5 17v113h-221q-16 0 -26.5 10t-10.5 27q0 16 10.5 26.5t26.5 10.5h324q47 0 88 18t71.5 49t49 72t18.5 88q0 78 -48 140.5t-124 80.5l-225 53 q-100 27 -164 105q-66 84 -66 188z" />
<glyph unicode="%" horiz-adv-x="1701" d="M182 963q0 51 20.5 98t54.5 81t80 54.5t99 20.5q51 0 97.5 -20.5t81 -54.5t54 -81t19.5 -98q0 -53 -19.5 -99.5t-54 -80t-81 -54t-97.5 -20.5q-53 0 -99 20.5t-80 54t-54.5 79.5t-20.5 100zM256 963q0 -74 52 -127.5t128 -53.5q74 0 126 53.5t52 127.5t-52 127t-126 53 q-76 0 -128 -53.5t-52 -126.5zM478 66.5q-11 19.5 3 37.5l699 1094q10 14 24.5 17.5t26.5 -5.5q14 -10 17 -24.5t-5 -26.5l-700 -1093q-13 -19 -31 -19q-23 0 -34 19.5zM1034 299q0 51 19.5 98t54.5 81t81 54.5t99 20.5q51 0 97.5 -20.5t81 -54.5t54 -81t19.5 -98 q0 -53 -19.5 -98t-54 -80t-81 -54.5t-97.5 -19.5q-53 0 -99 19.5t-81 54.5t-54.5 80t-19.5 98zM1108 299q0 -74 52 -126t128 -52q74 0 126 52t52 126q0 76 -52 128t-126 52q-76 0 -128 -52t-52 -128z" />
<glyph unicode="&#x26;" horiz-adv-x="1374" d="M260 373q0 66 24.5 124t71.5 105l146 146l-103 100q-63 63 -63 153t63 154q63 63 154 64q90 0 154 -64q63 -63 63 -154q0 -90 -63 -153l-101 -100l352 -353l105 105q10 10 26.5 10t26.5 -10t10 -26.5t-10 -27.5l-104 -104l98 -98q23 -23 2 -51q-10 -10 -25.5 -12.5 t-25.5 7.5l-2 2l-101 101l-145 -148q-47 -45 -105.5 -69.5t-123.5 -24.5q-66 0 -124.5 24.5t-103.5 69.5q-47 47 -71.5 105.5t-24.5 124.5zM334 373q0 -102 74 -176t176 -74q100 0 178 74l145 145l-354 354l-145 -147q-74 -74 -74 -176zM410 1001q0 -57 43 -100l100 -100 l102 100q41 41 41 100.5t-41 102.5q-45 41 -102 41q-59 0 -100 -41q-43 -47 -43 -103z" />
<glyph unicode="'" horiz-adv-x="731" d="M393 1047v274q0 33 22.5 54.5t53.5 21.5t53.5 -21.5t22.5 -54.5q0 -8 -2 -14l-51 -271q-10 -39 -50 -39q-20 0 -34.5 14.5t-14.5 35.5z" />
<glyph unicode="(" horiz-adv-x="757" d="M213 573q0 176 46 339t134 292q10 12 24.5 15.5t26.5 -7.5q12 -8 16.5 -22t-5.5 -29q-82 -121 -125 -271.5t-43 -316.5t43 -316.5t125 -268.5q12 -18 2 -39t-33 -21q-18 0 -31 17q-88 129 -134 289.5t-46 338.5z" />
<glyph unicode=")" horiz-adv-x="757" d="M297 1189.5q4 14.5 16 22.5q12 10 26.5 7.5t25.5 -15.5q88 -129 134 -291.5t46 -339.5q0 -178 -46 -338.5t-134 -289.5q-13 -17 -31 -17q-23 0 -33 20.5t2 39.5q82 119 125 269.5t43 315.5q0 166 -43 316.5t-125 271.5q-10 14 -6 28.5z" />
<glyph unicode="*" horiz-adv-x="968" d="M219 1024q4 16 18.5 22.5t28.5 2.5l178 -58v189q0 14 11.5 25.5t25.5 11.5q16 0 26.5 -11.5t10.5 -25.5v-189l180 58q14 4 28.5 -2.5t18.5 -22.5q4 -14 -2 -27.5t-22 -17.5l-178 -59l110 -152q14 -16 3 -37.5t-33 -21.5q-18 0 -29 16l-113 152l-110 -152q-10 -16 -29 -16 q-23 0 -34 21.5t3 37.5l111 152l-178 59q-16 4 -22.5 17.5t-2.5 27.5z" />
<glyph unicode="+" horiz-adv-x="1239" d="M178 840q0 16 10.5 26.5t26.5 10.5h367v366q0 16 10 26.5t26 10.5t26.5 -10t10.5 -27v-366h369q16 0 26.5 -10.5t10.5 -26.5t-10.5 -26.5t-26.5 -10.5h-369v-369q0 -16 -10 -26.5t-27 -10.5q-16 0 -26 10.5t-10 26.5v369h-367q-16 0 -26.5 10t-10.5 27z" />
<glyph unicode="," horiz-adv-x="450" d="M164 -135l41 158q4 16 17.5 23t27.5 3q16 -4 23.5 -16.5t2.5 -28.5l-40 -158q-8 -28 -35 -28q-16 0 -28.5 15t-8.5 32z" />
<glyph unicode="-" horiz-adv-x="1077" d="M170 840q0 16 10 26.5t27 10.5h663q16 0 26.5 -10.5t10.5 -26.5t-10 -26.5t-27 -10.5h-663q-16 0 -26.5 10t-10.5 27z" />
<glyph unicode="." horiz-adv-x="483" d="M156 25q0 35 23.5 58t58.5 23t58 -23.5t23 -57.5q0 -35 -23.5 -58.5t-57.5 -23.5q-35 0 -58.5 23.5t-23.5 58.5z" />
<glyph unicode="/" horiz-adv-x="1026" d="M225 98l387 1096q14 33 47 23q16 -6 22.5 -19.5t0.5 -28.5l-389 -1095q-6 -25 -35 -25q-18 0 -29.5 16.5t-3.5 32.5z" />
<glyph unicode="0" horiz-adv-x="1044" d="M156 506q0 76 28.5 143.5t78.5 117.5t117.5 78.5t143.5 28.5t143.5 -28.5t118 -78.5t79 -117.5t28.5 -143.5t-28.5 -142.5t-79 -116.5t-118 -79t-143.5 -29t-143.5 29t-117.5 79t-78.5 116.5t-28.5 142.5zM229 506q0 -61 23.5 -114.5t63.5 -93.5t93.5 -62.5t114.5 -22.5 t114.5 22.5t93.5 62.5t63.5 93t23.5 115q0 61 -23.5 114.5t-63.5 93.5t-93 63.5t-115 23.5q-61 0 -114.5 -23.5t-93.5 -63.5t-63.5 -93.5t-23.5 -114.5z" />
<glyph unicode="1" horiz-adv-x="516" d="M109 838q0 16 10 26t26 10h156q16 0 26.5 -10t10.5 -26v-662q0 -16 -10.5 -26.5t-26.5 -10.5t-26.5 10.5t-10.5 26.5v625h-119q-16 0 -26 10t-10 27z" />
<glyph unicode="2" horiz-adv-x="991" d="M125 -272.5q-10 22.5 6 39.5q106 115 188 201.5t142.5 151t102.5 109.5t69 74q63 68 72 78q68 74 67 172q0 51 -19.5 96t-53 79t-80 53.5t-97.5 19.5t-96 -19.5t-79 -53.5t-53.5 -79t-19.5 -96q0 -16 -10 -26.5t-26 -10.5t-26.5 10.5t-10.5 26.5q0 68 25.5 126t68.5 101 t101.5 68.5t125.5 25.5q68 0 126.5 -25.5t102.5 -68.5t69.5 -101t25.5 -126q0 -63 -23.5 -119.5t-64.5 -103.5l-514 -551h477q16 0 26.5 -10.5t10.5 -26.5t-10.5 -26.5t-26.5 -10.5h-563q-23 0 -33 22.5z" />
<glyph unicode="3" horiz-adv-x="972" d="M119 -80q0 16 10 26.5t27 10.5q16 0 26.5 -10t10.5 -27q0 -121 81 -207q90 -90 213 -90q61 0 115.5 23.5t94.5 63.5t63.5 94.5t23.5 115.5t-23.5 114.5t-63.5 93.5t-94 63.5t-116 23.5q-16 0 -26 10.5t-10 26.5t10 26.5t26 10.5q53 0 99.5 20.5t81 55t55 81t20.5 99.5 t-20.5 99t-55 81t-80.5 55.5t-100 20.5q-16 0 -26 10t-10 27q0 16 10 26t26 10q68 0 128.5 -25.5t105.5 -70.5t70.5 -105.5t25.5 -127.5q0 -94 -48 -172t-126 -119q96 -43 155.5 -133t59.5 -201q0 -78 -28.5 -144.5t-80 -117.5t-119 -80t-143.5 -29t-144.5 30t-121.5 83 q-49 53 -75.5 119.5t-26.5 138.5z" />
<glyph unicode="4" horiz-adv-x="1218" d="M154 442.5q-11 20.5 6 38.5l661 813q16 18 41 13q25 -10 25 -35v-776h147q16 0 26.5 -10.5t10.5 -26.5t-10 -26.5t-27 -10.5h-147v-246q0 -16 -10.5 -26.5t-26.5 -10.5t-26.5 10.5t-10.5 26.5v246h-625q-23 0 -34 20.5zM266 496h547v671z" />
<glyph unicode="5" horiz-adv-x="927" d="M158 635v207q0 16 10 26.5t27 10.5h352q16 0 26.5 -10.5t10.5 -26.5t-10.5 -26.5t-26.5 -10.5h-316v-170q0 -61 37 -108.5t97 -61.5q6 -2 23.5 -6t37.5 -9.5t36.5 -9.5t20.5 -4q70 -14 128.5 -54t99.5 -97q37 -55 52 -118t9 -125t-32.5 -120.5t-73.5 -105.5 q-49 -47 -111.5 -75t-132.5 -32q-70 0 -134.5 18.5t-117.5 65.5q-25 25 -4 53q25 25 53 4q86 -74 201 -67q115 6 194 86q43 43 64.5 97t21.5 110.5t-21.5 111t-64.5 97.5q-61 61 -147 80q-2 0 -19.5 4t-38 9t-39 9t-24.5 6q-84 20 -136 88t-52 154z" />
<glyph unicode="6" horiz-adv-x="1193" d="M156 584q0 125 65 231l361 627q8 12 22 16t29 -4q14 -8 17 -22.5t-3 -26.5l-246 -424q97 45 199 45q90 0 170 -32.5t143 -96.5q63 -63 96 -143t33 -170t-32.5 -171t-96.5 -145q-63 -61 -143 -95t-170 -34t-170 34t-143 95q-63 63 -97 144.5t-34 171.5zM229 584 q0 -78 29 -144.5t80 -118t117.5 -80t144.5 -28.5q76 0 143.5 28.5t117.5 80t79 118t29 144.5q0 76 -29 143.5t-79 117.5t-117.5 78.5t-143.5 28.5q-78 0 -144.5 -28.5t-117.5 -78.5t-80 -118t-29 -143z" />
<glyph unicode="7" horiz-adv-x="987" d="M158 842q0 16 10 26.5t27 10.5h602q20 0 30 -17q12 -18 2 -35l-512 -1095q-9 -23 -32 -23q-20 0 -30.5 18.5t-2.5 34.5l487 1043h-544q-16 0 -26.5 10t-10.5 27z" />
<glyph unicode="8" horiz-adv-x="1062" d="M162 510q0 111 59.5 201t153.5 133q-78 43 -126 119.5t-48 171.5q0 68 25.5 127t70.5 104t105.5 70.5t127.5 25.5q68 0 127.5 -25.5t104.5 -70.5t70.5 -104.5t25.5 -126.5q0 -94 -47 -171t-125 -120q94 -43 153.5 -133t59.5 -201q0 -76 -28.5 -142.5t-79 -116.5t-118 -79 t-143.5 -29t-143.5 29t-117.5 79t-78.5 116.5t-28.5 142.5zM236 510q0 -61 23.5 -114.5t63 -93.5t93 -62.5t114.5 -22.5t114.5 22.5t93.5 62.5t63.5 93.5t23.5 114.5t-23.5 114.5t-63.5 93.5t-93 63.5t-115 23.5q-61 0 -114.5 -23.5t-93 -63.5t-63 -93.5t-23.5 -114.5z M274 1135q0 -53 20.5 -99.5t55.5 -81t81 -55t99 -20.5q51 0 98.5 20.5t81 55t54 80.5t20.5 100q0 51 -20.5 98t-54 81t-80.5 54.5t-99 20.5q-53 0 -99 -20.5t-81 -54.5t-55.5 -81t-20.5 -98z" />
<glyph unicode="9" horiz-adv-x="1202" d="M160 584q0 90 33.5 170t97.5 143q63 63 143 96t170 33t170 -32.5t144 -96.5q63 -63 96 -143t33 -170q0 -131 -68 -236l-361 -629q-12 -18 -32 -18q-16 0 -26.5 11.5t-10.5 25.5q0 6 4 18l248 430q-90 -47 -197 -47q-90 0 -170 34t-143 95q-63 63 -97 144.5t-34 171.5z M233 584q0 -78 29 -144.5t80 -118t117.5 -80t144.5 -28.5q102 0 185 49t133 131l2 4q49 82 49 187q0 76 -29 143.5t-79 117.5t-117.5 78.5t-143.5 28.5q-78 0 -144.5 -28.5t-117.5 -78.5t-80 -118t-29 -143z" />
<glyph unicode=":" horiz-adv-x="581" d="M233 172q0 23 16.5 39t39.5 16t39 -16t16 -39t-16.5 -39t-38.5 -16q-23 0 -39.5 16.5t-16.5 38.5zM233 838q0 23 16.5 39t39.5 16t39 -16.5t16 -38.5q0 -23 -16.5 -39.5t-38.5 -16.5q-23 0 -39.5 16.5t-16.5 39.5z" />
<glyph unicode=";" horiz-adv-x="575" d="M209 66l41 157q4 16 17.5 23.5t27.5 3.5q16 -4 23.5 -16.5t3.5 -28.5l-41 -158q-8 -29 -35 -29q-16 0 -28.5 15.5t-8.5 32.5zM233 838q0 23 16.5 39t39.5 16t39 -16.5t16 -38.5q0 -23 -16.5 -39.5t-38.5 -16.5q-23 0 -39.5 16.5t-16.5 39.5z" />
<glyph unicode="&#x3c;" horiz-adv-x="1128" d="M346 565q-14 20 0 41l371 553q10 12 24.5 15.5t26.5 -7.5q14 -8 17 -22.5t-7 -28.5l-356 -530l356 -533q12 -18 2.5 -38.5t-32.5 -20.5q-18 0 -31 16z" />
<glyph unicode="=" horiz-adv-x="1402" d="M342 446q0 16 10 26.5t27 10.5h645q16 0 26.5 -10t10.5 -27q0 -16 -10.5 -26t-26.5 -10h-645q-16 0 -26.5 10t-10.5 26zM342 838q0 16 10 26t27 10h645q16 0 26.5 -10t10.5 -26t-10.5 -26.5t-26.5 -10.5h-645q-16 0 -26.5 10t-10.5 27z" />
<glyph unicode="&#x3e;" horiz-adv-x="1128" d="M343 1144.5q3 14.5 17 22.5q12 10 26.5 7t25.5 -15l370 -553q14 -20 0 -41l-370 -555q-13 -16 -31 -16q-23 0 -33 20.5t2 38.5l357 533l-357 530q-10 14 -7 28.5z" />
<glyph unicode="?" horiz-adv-x="1021" d="M164 868q0 70 25.5 133.5t74.5 112.5t112.5 74.5t133.5 25.5q145 0 246 -100q49 -49 75.5 -112.5t26.5 -133.5q0 -143 -102 -245q-29 -29 -69 -52.5t-81 -35.5q-96 -29 -96 -121q0 -16 -10.5 -26.5t-26.5 -10.5t-26.5 10t-10.5 27q0 80 58 141q18 18 39.5 29.5t52.5 21.5 t63.5 28.5t55.5 41.5q80 80 79 192q0 113 -79 193q-80 80 -195 80q-53 0 -103.5 -19.5t-89.5 -60.5q-80 -80 -79 -193q0 -16 -10.5 -26.5t-26.5 -10.5t-26.5 10.5t-10.5 26.5zM424 68q0 23 16.5 39t38.5 16q23 0 39.5 -16.5t16.5 -38.5q0 -23 -16.5 -39.5t-39.5 -16.5 t-39 16.5t-16 39.5z" />
<glyph unicode="@" horiz-adv-x="2314" d="M233 578q0 188 74 360q72 168 199 295t293 199q174 72 360 71q188 0 363 -71q166 -72 293 -199q126 -127 198 -295q74 -172 74 -360q0 -76 -14.5 -165t-49 -170t-96 -142.5t-153.5 -82.5q-115 -12 -187 50q-86 76 -86 245q-12 -20 -27.5 -37.5t-31.5 -33.5 q-63 -63 -144 -97t-174 -34q-92 0 -173 33.5t-144 97.5q-66 66 -99.5 146.5t-33.5 170.5q0 92 33.5 173t99.5 147q63 63 144 97t173 34t173 -34t145 -97q16 -16 31.5 -34t27.5 -38v166q0 16 10.5 26.5t26.5 10.5t26.5 -10.5t10.5 -26.5v-664q0 -131 61 -186 q23 -20 54.5 -30.5t72.5 -0.5q74 16 123 73.5t77 129.5t39 148.5t11 134.5q0 174 -67 331q-63 152 -183 271q-59 59 -126.5 105t-143.5 79q-162 66 -334 66q-170 0 -332 -66q-76 -33 -143.5 -79t-126.5 -105q-119 -119 -182 -271q-68 -158 -68 -331q0 -176 68 -332 q63 -152 182 -271q59 -59 127 -105t143 -79q162 -66 332 -65q215 0 404 100q14 8 28.5 3t20.5 -17q8 -14 4 -28.5t-19 -23.5q-100 -53 -210.5 -80.5t-227.5 -27.5q-186 0 -360 72q-166 72 -293 198q-127 127 -199 295q-74 172 -74 361zM748 559q0 -78 29.5 -146.5 t80.5 -118.5t119.5 -80t146.5 -30t146.5 30t120 80t81 118.5t29.5 146.5t-29.5 146.5t-81 120t-120 81t-146.5 29.5t-146.5 -29.5t-119.5 -81t-80.5 -120t-29.5 -146.5z" />
<glyph unicode="A" horiz-adv-x="1316" d="M127 37l483 1096q10 23 35 22q23 0 33 -20l512 -1096q6 -14 1 -28.5t-20 -20.5q-14 -6 -27.5 -1t-21.5 19l-110 238h-713l-104 -238q-10 -23 -35 -22q-20 0 -30.5 17t-2.5 34zM332 319h645l-332 711z" />
<glyph unicode="B" horiz-adv-x="1097" d="M170 25v1095q0 16 10 26.5t27 10.5h366q63 0 121 -24.5t99 -66.5t65.5 -98.5t24.5 -119.5q0 -82 -37 -149.5t-101 -108.5q88 -35 143.5 -113t55.5 -178q0 -66 -24.5 -122t-66.5 -98t-99.5 -66.5t-120.5 -24.5h-426q-16 0 -26.5 10t-10.5 27zM244 61h389q49 0 92 18.5 t76 51.5t51 76t18 92t-18 92t-51 76t-76 51.5t-92 18.5h-389v-476zM244 610h329q49 0 92.5 18.5t75 51.5t50 76t18.5 92t-18.5 91t-50 75t-74.5 51t-93 18h-329v-473z" />
<glyph unicode="C" horiz-adv-x="1259" d="M141 571q0 119 44 224.5t128 189.5t189.5 128t224.5 44q104 0 202.5 -37t178.5 -104q10 -10 12 -25.5t-8 -25.5q-25 -29 -53 -4q-70 59 -155 90.5t-177 31.5q-104 0 -197.5 -38.5t-164.5 -110.5q-72 -72 -111 -165t-39 -198q0 -102 39 -195t111 -165t165 -111t197 -39 q92 0 177 32t155 91q29 25 53 -4q10 -10 8 -25.5t-12 -25.5q-80 -68 -178.5 -104.5t-202.5 -36.5q-119 0 -224.5 44t-189.5 128t-128 189.5t-44 221.5z" />
<glyph unicode="D" horiz-adv-x="1236" d="M176 25v1095q0 14 11.5 25.5t25.5 11.5h293q117 0 223.5 -44t190.5 -128t127 -190.5t43 -223.5t-43 -223t-127 -190t-190.5 -127t-223.5 -43h-293q-14 0 -25.5 10t-11.5 27zM250 61h256q102 0 195 39t165 111t111 164t39 196t-39 196.5t-111 164.5q-72 74 -165 112.5 t-195 38.5h-256v-1022z" />
<glyph unicode="E" horiz-adv-x="952" d="M133 29v1095q0 16 10.5 26.5t26.5 10.5h610q16 0 26.5 -10t10.5 -27q0 -16 -10 -26.5t-27 -10.5h-573v-473h389q16 0 26.5 -11t10.5 -25q0 -16 -10.5 -26.5t-26.5 -10.5h-389v-475h573q16 0 26.5 -10.5t10.5 -26.5t-10 -26.5t-27 -10.5h-610q-16 0 -26.5 10t-10.5 27z " />
<glyph unicode="F" horiz-adv-x="972" d="M172 29v1095q0 16 10.5 26.5t26.5 10.5h584q16 0 26 -10t10 -27q0 -16 -10 -26.5t-26 -10.5h-547v-473h389q16 0 26.5 -10t10.5 -26t-10.5 -26.5t-26.5 -10.5h-389v-512q0 -16 -10.5 -26.5t-26.5 -10.5t-26.5 10t-10.5 27z" />
<glyph unicode="G" horiz-adv-x="1265" d="M141 573q0 117 44 223.5t128 190.5t189.5 127t224.5 43q104 0 202.5 -36t178.5 -105q10 -10 12 -25.5t-8 -25.5q-10 -12 -25.5 -13.5t-27.5 9.5q-70 59 -155 90.5t-177 31.5q-104 0 -197.5 -38.5t-164.5 -110.5q-72 -72 -111 -165t-39 -196q0 -104 39 -197t111 -165 t165 -111t197 -39q88 0 170 30t150 83v277q0 16 10 26t26 10t26.5 -10t10.5 -26v-293q0 -16 -12 -29q-80 -68 -178.5 -104.5t-202.5 -36.5q-119 0 -224.5 44t-189.5 128t-128 190.5t-44 222.5z" />
<glyph unicode="H" horiz-adv-x="1224" d="M172 29v1095q0 16 10.5 26.5t26.5 10.5t26.5 -10t10.5 -27v-510h737v510q0 16 10.5 26.5t26.5 10.5t26.5 -10t10.5 -27v-1095q0 -16 -10.5 -26.5t-26.5 -10.5t-26.5 10t-10.5 27v512h-737v-512q0 -16 -10.5 -26.5t-26.5 -10.5t-26.5 10t-10.5 27z" />
<glyph unicode="I" horiz-adv-x="710" d="M164 25q0 16 10 26t27 10h118v1022h-118q-16 0 -26.5 10.5t-10.5 26.5t10 26.5t27 10.5h313q16 0 26.5 -10t10.5 -27q0 -16 -10.5 -26.5t-26.5 -10.5h-121v-1022h121q16 0 26.5 -10t10.5 -26t-10.5 -26.5t-26.5 -10.5h-313q-16 0 -26.5 10t-10.5 27z" />
<glyph unicode="J" horiz-adv-x="1114" d="M170 0q-25 29 0 53q10 10 25.5 10t25.5 -10q53 -53 121 -80.5t143 -27.5q74 0 142.5 27.5t122.5 80.5q109 109 108 264v768h-121q-16 0 -26.5 10.5t-10.5 26.5t10.5 26.5t26.5 10.5h158q16 0 26.5 -10t10.5 -27v-805q0 -92 -34 -171.5t-97 -145.5q-63 -63 -144.5 -96 t-171.5 -33t-171 33t-144 96z" />
<glyph unicode="K" horiz-adv-x="1415" d="M193 25v1095q0 16 10 26.5t26 10.5t26.5 -10t10.5 -27v-633h168l787 662q29 20 53 -4q23 -29 -6 -53l-754 -633l750 -402q27 -16 18.5 -42.5t-35.5 -26.5q-6 0 -18 4l-791 422h-172v-389q0 -16 -10 -26.5t-27 -10.5q-16 0 -26 10t-10 27z" />
<glyph unicode="L" horiz-adv-x="987" d="M195 27v1095q0 16 10 26.5t26 10.5q14 0 25.5 -10t11.5 -27v-1059h551q14 0 25.5 -10t11.5 -26t-11.5 -26.5t-25.5 -10.5h-588q-16 0 -26 10t-10 27z" />
<glyph unicode="M" horiz-adv-x="1689" d="M188 25v1093q0 29 27 35q12 4 23.5 0t17.5 -14l588 -953l588 953q6 10 17 14t24 0q27 -6 26 -35v-1093q0 -16 -10.5 -26.5t-26.5 -10.5t-26.5 10t-10.5 27v964l-551 -891q-10 -18 -30.5 -18t-30.5 18l-551 891v-964q0 -16 -10 -26.5t-27 -10.5q-16 0 -26.5 10t-10.5 27z " />
<glyph unicode="N" horiz-adv-x="1241" d="M186 23v1095q0 29 25 35q29 6 43 -14l725 -1002v981q0 16 10 26.5t27 10.5q14 0 25.5 -10t11.5 -27v-1095q0 -16 -11.5 -26.5t-25.5 -10.5q-20 0 -31 16l-725 1002v-981q0 -16 -10 -26.5t-27 -10.5q-16 0 -26.5 10t-10.5 27z" />
<glyph unicode="O" horiz-adv-x="1449" d="M141 569q0 119 46 225.5t126 186.5t186.5 126t225.5 46t225.5 -46t186.5 -126t127 -186.5t47 -225.5q0 -121 -47 -226t-127 -185t-186.5 -126t-225.5 -46t-225.5 46t-186.5 126t-126 186.5t-46 224.5zM215 569q0 -104 41 -197t109.5 -162t162 -110t197.5 -41t197.5 41 t163 110t110.5 162t41 197t-41 197.5t-110.5 163t-163 109.5t-197.5 40t-197.5 -41t-162 -109.5t-109.5 -161.5t-41 -198z" />
<glyph unicode="P" horiz-adv-x="1054" d="M174 29v1095q0 14 10.5 25.5t26.5 11.5h389q63 0 119.5 -24.5t98.5 -66.5t66.5 -99.5t24.5 -120.5t-24.5 -119.5t-66.5 -98.5t-98 -66.5t-120 -24.5h-352v-512q0 -16 -10.5 -26.5t-26.5 -10.5t-26.5 10t-10.5 27zM248 614h352q49 0 92 18.5t75 51.5t50.5 75t18.5 91 t-18.5 92t-50.5 76t-75 51t-92 18h-352v-473z" />
<glyph unicode="Q" horiz-adv-x="1449" d="M139 569q0 117 44 223.5t128 190.5q84 82 189.5 126t224.5 44q117 0 222.5 -44t189.5 -126q84 -84 128 -190.5t44 -223.5t-44 -223t-128 -190q-76 -76 -172.5 -119t-202.5 -51v-66q0 -43 29.5 -72.5t72.5 -29.5q16 0 26.5 -10.5t10.5 -26.5t-10 -26.5t-27 -10.5 q-37 0 -68.5 14.5t-56 38t-38 55t-13.5 68.5v66q-109 8 -205 51t-172 119q-84 84 -128 190.5t-44 222.5zM213 569q0 -104 39 -196t110 -164q72 -72 165.5 -111t197.5 -39q102 0 195.5 39t164.5 111q72 72 111 164t39 196q0 102 -39 195.5t-111 165.5t-165 110.5t-195 38.5 q-104 0 -197.5 -39t-165.5 -110q-72 -72 -110.5 -165.5t-38.5 -195.5z" />
<glyph unicode="R" horiz-adv-x="1054" d="M174 29v1095q0 14 10.5 25.5t26.5 11.5h389q63 0 119.5 -24.5t98.5 -66.5t66.5 -99.5t24.5 -120.5q0 -57 -19.5 -107.5t-53 -90.5t-79.5 -67.5t-100 -37.5l248 -502q10 -16 0 -34.5t-33 -18.5t-32 20l-262 529h-330v-512q0 -16 -10.5 -26.5t-26.5 -10.5t-26.5 10 t-10.5 27zM248 614h358q47 2 89 20.5t73 51.5t49.5 75t18.5 89q0 49 -18.5 92t-50.5 76t-75 51t-92 18h-352v-473z" />
<glyph unicode="S" horiz-adv-x="954" d="M119 860q0 61 23.5 116.5t64.5 96.5t96 64.5t117 23.5h252q16 0 26.5 -10t10.5 -27q0 -16 -10.5 -26.5t-26.5 -10.5h-252q-47 0 -88 -18t-72 -49t-49 -72t-18 -88q0 -78 48 -140.5t126 -80.5l223 -53q100 -25 164 -105q65 -83 65 -185q0 -64 -23.5 -119.5t-64.5 -96.5 t-96.5 -64.5t-116.5 -23.5h-323q-16 0 -26.5 10t-10.5 27q0 16 10 26.5t27 10.5h323q47 0 88 18t72 49t49 72t18 88q0 78 -48 140.5t-124 80.5l-225 53q-51 12 -93 40t-72.5 68t-47 87t-16.5 98z" />
<glyph unicode="T" horiz-adv-x="1099" d="M123 1124q0 16 10 26.5t27 10.5h778q16 0 26.5 -10t10.5 -27q0 -16 -10.5 -26.5t-26.5 -10.5h-352v-1056q0 -16 -10.5 -26.5t-26.5 -10.5t-26.5 10t-10.5 27v1056h-352q-16 0 -26.5 10.5t-10.5 26.5z" />
<glyph unicode="U" horiz-adv-x="1193" d="M156 432v688q0 16 10 26.5t27 10.5q14 0 25 -10t11 -27v-688q0 -76 29 -143.5t79 -117.5t116.5 -79t144.5 -29q76 0 143.5 29t117.5 79t79 117.5t29 143.5v688q0 16 10 26.5t27 10.5q16 0 26 -10t10 -27v-688q0 -92 -34.5 -172t-95 -140.5t-140.5 -95t-172 -34.5 t-172 34.5t-140.5 95t-95 140.5t-34.5 172z" />
<glyph unicode="V" horiz-adv-x="1513" d="M98 1130.5q4 14.5 19 22.5q14 8 28.5 3t20.5 -17l567 -1039l600 1039q8 14 22.5 18t28.5 -4q12 -8 16.5 -22.5t-3.5 -28.5l-633 -1096q-11 -18 -31 -18q-23 0 -33 20l-598 1094q-8 14 -4 28.5z" />
<glyph unicode="W" horiz-adv-x="2320" d="M132 1132.5q5 14.5 20 20.5q14 6 28.5 0t20.5 -20l450 -1020l477 1022q10 20 35 20q23 0 33 -22l451 -1020l479 1022q6 14 19.5 19t27.5 -3q14 -6 19.5 -20.5t-1.5 -28.5l-512 -1094q-9 -22 -32 -22q-27 0 -33 22l-453 1022l-477 -1022q-10 -23 -33 -22q-25 0 -35 22 l-483 1096q-6 14 -1 28.5z" />
<glyph unicode="X" horiz-adv-x="1333" d="M130 1123.5q1 15.5 11 25.5t26.5 10t27.5 -12l477 -518l479 518q10 12 25.5 12t25.5 -10t11 -25.5t-9 -25.5l-481 -523l481 -524q16 -16 6 -38.5t-32 -22.5q-18 0 -27 12l-479 518l-477 -518q-12 -12 -29 -12q-23 0 -33 22.5t6 38.5l484 524l-484 523q-10 10 -9 25.5z " />
<glyph unicode="Y" horiz-adv-x="1241" d="M126 1128.5q3 14.5 15 22.5q14 10 28.5 6t23.5 -16l428 -666l428 666q8 12 22.5 16t28.5 -6q12 -8 16 -22.5t-6 -26.5l-453 -705v-372q0 -16 -10 -26.5t-26 -10.5t-26.5 10t-10.5 27v372l-453 705q-8 12 -5 26.5z" />
<glyph unicode="Z" horiz-adv-x="1230" d="M160 1122q0 16 10 26.5t27 10.5h847q23 0 33 -20t-4 -39l-801 -1037h772q16 0 26.5 -10t10.5 -26t-10.5 -26.5t-26.5 -10.5h-847q-23 0 -33 20t4 39l803 1036h-774q-16 0 -26.5 10.5t-10.5 26.5z" />
<glyph unicode="[" horiz-adv-x="796" d="M213 -35v1217q0 16 10 26.5t27 10.5h233q16 0 26.5 -10.5t10.5 -26.5q0 -14 -10 -25.5t-27 -11.5h-196v-1143h196q16 0 26.5 -10t10.5 -27q0 -16 -10.5 -26.5t-26.5 -10.5h-233q-16 0 -26.5 10.5t-10.5 26.5z" />
<glyph unicode="\" horiz-adv-x="1026" d="M225 1169q-6 14 0 27.5t23 20.5q33 10 47 -23l387 -1096q8 -18 -4.5 -33.5t-28.5 -15.5q-29 0 -35 25z" />
<glyph unicode="]" horiz-adv-x="796" d="M276 -35q0 16 10.5 26.5t26.5 10.5h197v1143h-197q-16 0 -26.5 11t-10.5 26q0 16 10.5 26.5t26.5 10.5h234q16 0 26.5 -10.5t10.5 -26.5v-1217q0 -16 -10.5 -26.5t-26.5 -10.5h-234q-16 0 -26.5 10.5t-10.5 26.5z" />
<glyph unicode="^" horiz-adv-x="1120" d="M235.5 807.5q-2.5 15.5 8.5 26.5l288 366q8 14 29 14q20 0 29 -14l287 -366q14 -18 4 -39t-33 -21q-18 0 -29 14l-258 330l-260 -330q-10 -12 -25.5 -14t-25.5 8q-12 10 -14.5 25.5z" />
<glyph unicode="_" horiz-adv-x="1220" d="M113 -281q0 16 10 26.5t27 10.5h921q16 0 26.5 -10t10.5 -27q0 -16 -10.5 -26t-26.5 -10h-921q-16 0 -26.5 10t-10.5 26z" />
<glyph unicode="`" horiz-adv-x="1150" d="M401 1384q8 23 33 15l305 -111q23 -10 15 -33q-7 -16 -25 -16q-2 0 -3 1t-5 1l-305 113q-23 8 -15 30z" />
<glyph unicode="a" horiz-adv-x="1230" d="M147 432q0 88 34 169t95 144q63 61 144.5 95t169.5 34q90 0 171 -33.5t142 -95.5q33 -33 58 -69v162q0 16 10 26t26 10t26.5 -10t10.5 -26v-672q0 -66 45 -115q10 -10 10.5 -26.5t-10.5 -26.5q-14 -10 -24 -10q-14 0 -27 12q-33 33 -50 76t-17 90v20q-63 -92 -161 -145 t-210 -53q-90 0 -171 34.5t-141.5 95t-95.5 141.5t-35 173zM221 432q0 -78 29 -144.5t79 -117.5t117.5 -80t143.5 -29t143.5 29t118.5 80t80 117.5t29 144.5q0 76 -29 143.5t-80 117.5t-118.5 79t-143.5 29t-143.5 -29t-117.5 -79t-79 -117.5t-29 -143.5z" />
<glyph unicode="b" horiz-adv-x="1173" d="M154 434v840q0 14 10 25.5t26 11.5t26.5 -11.5t10.5 -25.5v-596q12 18 25.5 35.5t30.5 34.5q63 63 144 96t169 33q90 0 170 -33t143 -96t97 -143.5t34 -170.5t-35.5 -171t-96 -141.5t-141.5 -96t-171 -35.5t-171 35.5t-141.5 96t-95 141.5t-34.5 171zM227 434 q0 -78 29 -144.5t79 -117.5t117.5 -80t143.5 -29t143.5 29t118.5 80t80 117.5t29 144.5q0 76 -29 143.5t-80 117.5t-118.5 79t-143.5 29t-143.5 -29t-117.5 -79t-79 -117.5t-29 -143.5z" />
<glyph unicode="c" horiz-adv-x="1054" d="M147 432q0 90 34 170t95 143q63 63 144.5 97.5t169.5 34.5q90 0 171 -34t142 -98q10 -10 10 -25t-10 -26q-10 -10 -25.5 -10t-25.5 10q-53 53 -119.5 81t-142.5 28q-152 0 -260 -109q-53 -55 -81 -122.5t-28 -138.5t27.5 -139.5t81.5 -121.5q109 -109 260 -109 q76 0 142.5 28t119.5 81q10 10 25.5 10t25.5 -10t10 -26.5t-10 -26.5q-61 -63 -142 -96t-171 -33q-88 0 -169 32.5t-145 96.5q-61 63 -95 143t-34 170z" />
<glyph unicode="d" horiz-adv-x="1161" d="M137 434q0 90 34 170t97 144q63 63 143.5 97t170.5 34q88 0 168.5 -34t144.5 -97q31 -31 55 -68v594q0 16 10.5 26.5t26.5 10.5t26.5 -10.5t10.5 -26.5v-1245q0 -16 -10 -26.5t-27 -10.5q-16 0 -26.5 10t-10.5 27v161q-12 -18 -25.5 -35.5t-29.5 -33.5q-63 -63 -144 -96 t-169 -33q-90 0 -170 32.5t-144 96.5q-63 63 -97 143t-34 170zM211 434q0 -76 28.5 -143.5t80 -117.5t118 -78.5t144.5 -28.5q76 0 143.5 28.5t117.5 78.5t78.5 117.5t28.5 143.5t-28.5 143.5t-78.5 119t-118 80t-143 28.5q-78 0 -144.5 -28.5t-118 -80t-80 -119 t-28.5 -143.5z" />
<glyph unicode="e" horiz-adv-x="1167" d="M147 436q0 90 33 170t96 144q63 63 144.5 96t169.5 33q76 0 144.5 -25t126 -68t98 -103t59.5 -132q4 -10 4 -21.5v-27.5q0 -35 -13.5 -67t-36 -55.5t-53 -36.5t-67.5 -13h-616q18 -57 52 -105.5t80 -84.5t103 -55t119 -19q16 0 26.5 -10.5t10.5 -26.5q0 -14 -10.5 -25.5 t-26.5 -11.5q-88 0 -169 33.5t-145 97.5q-63 63 -96 143t-33 170zM221 419.5q0 -8.5 2 -16.5h629q41 0 70.5 29t29.5 70v10q0 4 -4 20q-16 59 -50 109.5t-82 86.5t-105.5 56.5t-120.5 20.5q-76 0 -143.5 -28.5t-117.5 -79t-79 -118t-29 -143.5v-16.5z" />
<glyph unicode="f" horiz-adv-x="878" d="M141 838q0 16 10.5 26t26.5 10h195v265q0 76 28.5 143.5t78.5 117.5t118 78.5t143 28.5q16 0 26.5 -10t10.5 -27q0 -16 -10 -26t-27 -10q-61 0 -114.5 -24t-93 -63.5t-63.5 -93t-24 -114.5v-265h295q16 0 26.5 -10t10.5 -26t-10 -26.5t-27 -10.5h-295v-625 q0 -16 -10 -26.5t-26 -10.5t-26.5 10.5t-10.5 26.5v625h-195q-16 0 -26.5 10t-10.5 27z" />
<glyph unicode="g" d="M147 434q0 88 33 169t96 145q63 61 143.5 95t170.5 34t170 -34t143 -95q33 -37 55 -70v162q0 16 10.5 26.5t26.5 10.5t26.5 -10.5t10.5 -26.5v-406v-2v-434q0 -186 -131 -317q-129 -129 -315 -130q-16 0 -26.5 10.5t-10.5 26.5t10 26.5t27 10.5q78 0 145.5 29t118.5 80 t79.5 118.5t28.5 145.5v190q-25 -37 -55 -67q-63 -63 -143 -97t-170 -34t-170 33.5t-144 97.5q-63 61 -96 142t-33 171zM221 434q0 -78 29 -144.5t79 -117.5t116.5 -80t144.5 -29q76 0 143.5 29t117.5 79t78.5 117.5t28.5 143.5v2q0 76 -28.5 143.5t-78.5 117.5t-117.5 79 t-143.5 29q-78 0 -144.5 -29t-116.5 -79t-79 -117.5t-29 -143.5z" />
<glyph unicode="h" horiz-adv-x="1208" d="M156 176v1096q0 16 10 26.5t27 10.5q16 0 26 -10.5t10 -26.5v-596q12 18 25.5 35.5t30.5 33.5q66 63 145.5 97.5t171.5 34.5q90 0 171.5 -34.5t144.5 -97.5t97 -144t34 -171v-254q0 -14 -10.5 -25.5t-26.5 -11.5t-26.5 11.5t-10.5 25.5v254q0 76 -30 144.5t-80 118.5 t-118.5 80t-144.5 30q-78 0 -145.5 -30t-118.5 -80t-80 -118.5t-29 -144.5v-254q0 -14 -10 -25.5t-26 -11.5t-26.5 11.5t-10.5 25.5z" />
<glyph unicode="i" horiz-adv-x="448" d="M170 1270q0 23 16 39t39 16t39.5 -16.5t16.5 -38.5q0 -23 -16.5 -39.5t-39.5 -16.5t-39 16.5t-16 39.5zM188 176v662q0 16 10.5 26t26.5 10t26.5 -10t10.5 -26v-662q0 -16 -10 -26.5t-27 -10.5q-16 0 -26.5 10.5t-10.5 26.5z" />
<glyph unicode="j" horiz-adv-x="458" d="M54 -257.5q1 15.5 12 26.5q59 57 90.5 130.5t31.5 155.5v783q0 16 10.5 26t26.5 10t26.5 -10t10.5 -26v-783q0 -94 -39 -188q-41 -90 -106 -152q-14 -10 -27 -10q-14 0 -27 12q-10 10 -9 25.5zM170 1270q0 23 16 39t39 16t39.5 -16.5t16.5 -38.5q0 -23 -16.5 -39.5 t-39.5 -16.5t-39 16.5t-16 39.5z" />
<glyph unicode="k" horiz-adv-x="1032" d="M180 176v1096q0 16 10.5 26.5t26.5 10.5t26.5 -10.5t10.5 -26.5v-801h92l510 447q10 10 25.5 9t25.5 -12q25 -29 -4 -53l-479 -420l471 -233q23 -14 19.5 -42t-35.5 -28q-10 0 -17 4l-512 254h-96v-221q0 -16 -10.5 -26.5t-26.5 -10.5t-26.5 10.5t-10.5 26.5z" />
<glyph unicode="l" horiz-adv-x="645" d="M184 373v891q0 16 10.5 26t26.5 10t26.5 -10t10.5 -26v-891q0 -70 49 -119t119 -49q16 0 26.5 -10.5t10.5 -26.5t-10.5 -26.5t-26.5 -10.5q-49 0 -93 19.5t-77 52.5t-52.5 77t-19.5 93z" />
<glyph unicode="m" horiz-adv-x="1714" d="M154 176v662q0 16 10 26t26 10t26.5 -10t10.5 -26v-111q51 68 127 107.5t168 39.5q111 0 199 -57t133 -149q45 92 133 149t199 57q76 0 143.5 -28.5t117.5 -78.5t78.5 -116.5t28.5 -142.5v-332q0 -16 -10 -26.5t-26 -10.5t-26.5 10.5t-10.5 26.5v332q0 61 -23.5 114.5 t-63.5 93.5t-93.5 62.5t-114.5 22.5t-114.5 -22.5t-93.5 -62.5t-63.5 -93.5t-23.5 -114.5v-332q0 -16 -10.5 -26.5t-26.5 -10.5t-26.5 10.5t-10.5 26.5v332q0 61 -23.5 114.5t-63.5 93.5t-93 62.5t-115 22.5q-61 0 -114.5 -22.5t-93.5 -62.5t-63.5 -93.5t-23.5 -114.5v-332 q0 -16 -10 -26.5t-27 -10.5q-16 0 -26 10.5t-10 26.5z" />
<glyph unicode="n" horiz-adv-x="1183" d="M156 174v662q0 16 10 26t27 10q16 0 26 -10t10 -26v-162q25 37 58 69q63 63 144 96t171 33t171.5 -33t144.5 -96q63 -66 97 -145.5t34 -171.5v-252q0 -16 -10.5 -26.5t-26.5 -10.5t-26.5 10.5t-10.5 26.5v252q0 78 -30 145.5t-80 118.5t-118.5 80t-144.5 29 q-78 0 -145.5 -29t-117.5 -80t-80 -118.5t-30 -145.5v-252q0 -16 -10 -26.5t-26 -10.5t-26.5 10.5t-10.5 26.5z" />
<glyph unicode="o" d="M145 432q0 90 34 170t95 143q63 63 144.5 97.5t169.5 34.5q90 0 171 -34t142 -98q63 -63 97 -143t34 -170t-33.5 -170t-97.5 -143q-61 -63 -142 -96t-171 -33q-88 0 -169 32.5t-145 96.5q-61 63 -95 143t-34 170zM219 432q0 -76 28.5 -143.5t79 -117.5t118 -79t143.5 -29 t143.5 29t118.5 79t79.5 117.5t28.5 143.5t-28.5 143.5t-79.5 118.5t-118.5 80t-143.5 29t-143.5 -29t-118 -80t-79 -118.5t-28.5 -143.5z" />
<glyph unicode="p" horiz-adv-x="1206" d="M170 -254v1096q0 16 10 26.5t27 10.5q16 0 26.5 -10.5t10.5 -26.5v-162q12 18 26.5 35.5t30.5 34.5q63 63 143 96t170 33q88 0 169.5 -33t144.5 -96t96 -143.5t33 -170.5t-33 -170t-96 -143t-144.5 -97t-169.5 -34q-90 0 -169.5 33.5t-143.5 97.5q-31 29 -57 67v-444 q0 -16 -10.5 -26.5t-26.5 -10.5t-26.5 10.5t-10.5 26.5zM244 436q0 -78 28.5 -144.5t79.5 -117.5t117.5 -79.5t144.5 -28.5q76 0 143.5 28.5t118 79.5t79 117.5t28.5 144.5q0 76 -28.5 143.5t-79 118t-118 79t-143.5 28.5q-78 0 -144.5 -28.5t-117.5 -79t-79.5 -118 t-28.5 -143.5z" />
<glyph unicode="q" horiz-adv-x="1198" d="M145 434q0 88 34 169t97 145q63 63 143.5 96t170.5 33t170 -33t143 -96q33 -37 55 -70v162q0 16 10.5 26.5t26.5 10.5t26.5 -10.5t10.5 -26.5v-1059h121q14 0 25.5 -10.5t11.5 -26.5t-11.5 -26.5t-25.5 -10.5h-158q-16 0 -26.5 10.5t-10.5 26.5v444q-25 -37 -55 -67 q-63 -63 -143 -97t-170 -34t-170 33.5t-144 97.5q-63 63 -97 143t-34 170zM219 434q0 -78 28.5 -144.5t80 -117.5t118 -80t144.5 -29q76 0 143.5 29t117.5 80t78.5 117.5t28.5 144.5q0 76 -28.5 143.5t-78.5 117.5t-117.5 79t-143.5 29q-78 0 -144.5 -29t-118 -79 t-80 -117.5t-28.5 -143.5z" />
<glyph unicode="r" horiz-adv-x="780" d="M178 178v664q0 16 10.5 26.5t26.5 10.5t26.5 -10.5t10.5 -26.5v-162q27 39 57 68q63 63 143.5 97t170.5 34q16 0 26 -10.5t10 -26.5t-10 -26.5t-26 -10.5q-78 0 -144.5 -28.5t-118 -80t-80 -119t-28.5 -143.5v-256q0 -16 -10.5 -26.5t-26.5 -10.5t-26.5 10.5t-10.5 26.5z " />
<glyph unicode="s" horiz-adv-x="933" d="M147 627q0 51 19.5 96t53.5 79t80 53t97 19h291q16 0 26.5 -10t10.5 -26t-10 -26.5t-27 -10.5h-291q-37 0 -68.5 -13.5t-55 -37t-38 -55t-14.5 -68.5q0 -61 37 -108.5t96 -61.5l240 -58q84 -23 136 -89t52 -152q0 -51 -19.5 -97.5t-53 -80t-80 -53t-97.5 -19.5h-329 q-16 0 -26.5 10t-10.5 27q0 16 10 26.5t27 10.5h329q37 0 69 14t56.5 37.5t38 55.5t13.5 69q0 59 -37 106t-97 64l-237 57q-86 20 -138.5 88t-52.5 154z" />
<glyph unicode="t" horiz-adv-x="903" d="M111 840q0 16 10 26.5t26 10.5h195v397q0 14 10 25.5t27 11.5q16 0 26.5 -11.5t10.5 -25.5v-397h295q16 0 26.5 -10.5t10.5 -26.5t-10.5 -26.5t-26.5 -10.5h-295v-295q0 -61 23.5 -114.5t63.5 -93.5t93 -62.5t115 -22.5q16 0 26.5 -10t10.5 -27q0 -16 -10.5 -26.5 t-26.5 -10.5q-76 0 -143.5 29t-118 79t-79 116.5t-28.5 142.5v295h-195q-16 0 -26 10t-10 27z" />
<glyph unicode="u" horiz-adv-x="1064" d="M152 508v332q0 16 10 26.5t26 10.5t26.5 -10.5t10.5 -26.5v-332q0 -61 22.5 -114.5t62.5 -93.5t94.5 -63.5t115.5 -23.5t114.5 23.5t93.5 63.5t63.5 93t23.5 115v332q0 16 10.5 26.5t26.5 10.5q14 0 25.5 -10.5t11.5 -26.5v-664q0 -14 -11.5 -25.5t-25.5 -11.5 q-16 0 -26.5 11.5t-10.5 25.5v113q-51 -68 -128 -109t-167 -41q-78 0 -144.5 29t-116.5 79t-78.5 117.5t-28.5 143.5z" />
<glyph unicode="v" horiz-adv-x="1064" d="M127 851.5q4 14.5 18 22.5q12 8 26.5 4t23.5 -18l329 -606l350 606q8 14 22.5 18.5t29.5 -4.5q12 -8 16 -22t-4 -29l-381 -661q-13 -19 -33 -19q-25 0 -32 19l-363 663q-6 12 -2 26.5z" />
<glyph unicode="w" horiz-adv-x="1525" d="M126 855.5q5 14.5 19 21.5q14 6 28.5 0.5t21.5 -21.5l260 -588l274 590q10 20 35 21q23 0 33 -23l260 -588l274 590q6 14 20.5 19.5t28.5 -3.5q33 -14 19 -47l-309 -663q-10 -21 -35 -21q-23 0 -33 21l-260 590l-275 -590q-10 -20 -34 -21q-23 0 -33 21l-293 663 q-6 14 -1 28.5z" />
<glyph unicode="x" horiz-adv-x="937" d="M130 840.5q1 15.5 11 25.5q29 25 54 -2l278 -301l279 301q10 12 25.5 12.5t25.5 -10.5q10 -10 11 -25.5t-9 -25.5l-283 -307l283 -305q16 -18 7 -40t-34 -22q-16 0 -26 11l-279 303l-278 -303q-14 -10 -29 -11q-23 0 -33 21.5t6 40.5l283 305l-283 307q-10 10 -9 25.5z " />
<glyph unicode="y" horiz-adv-x="1150" d="M124 847.5q5 14.5 17 22.5q14 8 28.5 4t23.5 -18l370 -680l393 680q8 14 23 18t29 -4q18 -10 18 -32q0 -6 -4 -19l-633 -1093q-10 -18 -31 -19q-16 0 -27.5 10.5t-11.5 24.5q0 2 1.5 9t5.5 11l194 338l-393 721q-8 12 -3 26.5z" />
<glyph unicode="z" horiz-adv-x="1001" d="M162 838q0 16 10 26t27 10h610q25 0 35 -20q8 -25 -8 -41l-553 -600h526q16 0 26.5 -10t10.5 -27q0 -16 -10.5 -26.5t-26.5 -10.5h-610q-25 0 -35 21q-10 23 6 41l555 600h-526q-16 0 -26.5 10t-10.5 27z" />
<glyph unicode="{" horiz-adv-x="870" d="M233 573q0 33 33 37q8 2 27.5 7.5t32.5 17.5q14 14 29.5 60t15.5 98v127q0 94 39 175t112 140q10 10 25.5 9t25.5 -13t8.5 -27.5t-14.5 -25.5q-16 -14 -37.5 -37t-40 -54.5t-32 -73.5t-13.5 -93v-127q0 -27 -5 -56.5t-13 -59.5t-20.5 -54.5t-26.5 -38.5l-10 -11q2 0 4 -2 l6 -6q14 -14 26.5 -38.5t20.5 -54.5t13 -59.5t5 -56.5v-127q0 -51 13.5 -93t32 -73.5t40 -55t37.5 -38.5q20 -16 11.5 -40.5t-33.5 -24.5q-10 0 -23 8q-74 59 -112.5 141t-38.5 176v127q0 51 -16.5 96.5t-28.5 61.5q-10 14 -26.5 19.5t-33.5 5.5q-14 0 -23.5 10t-9.5 24z " />
<glyph unicode="|" horiz-adv-x="544" d="M236 -285v1712q0 16 10 26.5t26 10.5t26.5 -10t10.5 -27v-1712q0 -16 -10 -26.5t-27 -10.5q-16 0 -26 10.5t-10 26.5z" />
<glyph unicode="}" horiz-adv-x="870" d="M289 1203.5q-2 15.5 8 27.5t25.5 13t25.5 -9q74 -59 113 -140t39 -175v-127q0 -51 15 -97.5t30 -60.5q12 -12 31.5 -17.5t27.5 -7.5q33 -4 33 -37q0 -14 -9.5 -24t-23.5 -10q-16 0 -32.5 -5.5t-26.5 -19.5q-12 -16 -28.5 -61t-16.5 -97v-127q0 -94 -39 -176t-113 -141 q-12 -8 -22 -8q-25 0 -34 24.5t11 40.5q16 14 37.5 38t40 55.5t32 73.5t13.5 93v127q0 27 5 56.5t13.5 59.5t20.5 54.5t27 38.5l6 6q2 2 4 2l-10 11q-14 14 -26.5 38.5t-21 54.5t-13.5 59.5t-5 56.5v127q0 51 -13.5 93t-32 73.5t-40 54t-37.5 37.5q-12 10 -14 25.5z" />
<glyph unicode="~" horiz-adv-x="1828" d="M258 843.5q4 14.5 16 24.5q4 0 49.5 21.5t131.5 38.5q98 14 204 6q66 -6 132.5 -21.5t132.5 -42.5q135 -51 242.5 -58t183 5t117.5 31l42 20q12 8 26.5 4t25.5 -16q8 -14 4 -28.5t-17 -22.5q-4 -2 -49 -23.5t-131 -36.5q-31 -4 -62.5 -7t-66.5 -3q-88 0 -171 16.5 t-169 49.5q-141 53 -249.5 59t-178.5 -6q-39 -6 -67.5 -14.5t-49.5 -16.5q-23 -8 -41 -18q-12 -8 -26.5 -5t-24.5 17q-8 12 -4 26.5z" />
<glyph unicode="&#xa1;" horiz-adv-x="485" d="M186 788q0 23 16.5 39.5t39.5 16.5t39 -16.5t16 -39.5t-16.5 -39t-38.5 -16q-23 0 -39.5 16.5t-16.5 38.5zM205 -322v717q0 16 11.5 26.5t25.5 10.5q16 0 26.5 -10t10.5 -27v-717q0 -16 -10.5 -26t-26.5 -10q-14 0 -25.5 10t-11.5 26z" />
<glyph unicode="&#xa2;" horiz-adv-x="1124" d="M178 432q0 90 34 170t97 143q55 57 127 90t150 39v115q0 16 10 26.5t27 10.5q16 0 26 -10t10 -27v-115q160 -16 277 -129q10 -10 10 -25t-10 -26q-10 -12 -26.5 -12t-26.5 12q-53 53 -122 80t-139.5 27t-139 -26.5t-122.5 -80.5q-53 -53 -80.5 -120.5t-27.5 -141.5 t27.5 -141.5t80.5 -120.5t122 -81t139.5 -28t139.5 28t122 81q10 10 26.5 10t26.5 -10t10 -25.5t-10 -25.5q-57 -57 -128 -89t-149 -40v-115q0 -16 -10 -26.5t-26 -10.5t-26.5 10.5t-10.5 26.5v115q-78 6 -149.5 38.5t-127.5 90.5q-63 63 -97 143t-34 170z" />
<glyph unicode="&#xa3;" horiz-adv-x="1222" d="M143 575q0 10 7.5 17.5t17.5 7.5h127v113q0 90 33.5 171t97.5 144q63 63 144 97t171 34q16 0 26.5 -10t10.5 -27q0 -16 -10 -26.5t-27 -10.5q-78 0 -145.5 -29.5t-118.5 -79.5t-79.5 -119t-28.5 -144v-113h270q10 0 17.5 -7t7.5 -18q0 -25 -25 -24h-270v-488h622 q16 0 26.5 -10t10.5 -26t-10 -26.5t-27 -10.5h-782q-16 0 -26.5 10t-10.5 27q0 16 10.5 26t26.5 10h86v488h-127q-25 0 -25 24z" />
<glyph unicode="&#xa4;" horiz-adv-x="1353" d="M178 1073.5q0 16.5 10 26.5t25.5 10t26.5 -10l206 -207q47 41 106.5 62.5t125.5 21.5t126 -21.5t107 -62.5l205 207q10 10 26.5 10t26.5 -10t10.5 -26.5t-10.5 -26.5l-206 -205q39 -47 61.5 -107.5t22.5 -126.5t-23 -125t-61 -106l206 -207q16 -16 8 -38.5t-34 -22.5 q-16 0 -27 10l-205 205q-47 -39 -107.5 -60.5t-125.5 -21.5q-66 0 -125 21.5t-107 60.5l-206 -205q-8 -10 -25 -10q-23 0 -34 21.5t7 39.5l205 207q-39 47 -60.5 106.5t-21.5 124.5q0 66 21.5 126.5t60.5 107.5l-205 205q-10 10 -10 26.5zM385 608q0 -100 61 -180 q41 -53 101.5 -83t130.5 -30q72 0 131 30t102 83q29 39 45.5 84t16.5 96t-16.5 97.5t-45.5 82.5q-43 53 -102 84t-131 31q-68 0 -130.5 -29.5t-101.5 -85.5q-61 -78 -61 -180z" />
<glyph unicode="&#xa5;" horiz-adv-x="1325" d="M159 1191.5q3 14.5 15 22.5q14 10 28.5 6.5t22.5 -16.5l428 -665l428 665q8 12 23 16t29 -6q12 -8 16 -22t-6 -27l-453 -704v-373q0 -16 -10 -26.5t-27 -10.5q-16 0 -26.5 10.5t-10.5 26.5v373l-452 704q-8 12 -5 26.5zM170 637q0 25 25 25h110q10 0 17.5 -7.5t7.5 -17.5 t-7.5 -17.5t-17.5 -7.5h-110q-10 0 -17.5 7.5t-7.5 17.5zM979 637q0 25 25 25h108q25 0 25 -25q0 -10 -7.5 -17.5t-17.5 -7.5h-108q-10 0 -17.5 7.5t-7.5 17.5z" />
<glyph unicode="&#xa6;" horiz-adv-x="544" d="M236 -285v682q0 16 10 26.5t26 10.5t26.5 -10t10.5 -27v-682q0 -16 -10 -26.5t-27 -10.5q-16 0 -26 10.5t-10 26.5zM236 745v682q0 16 10 26.5t26 10.5t26.5 -10t10.5 -27v-682q0 -16 -10 -26t-27 -10q-16 0 -26 10t-10 26z" />
<glyph unicode="&#xa7;" horiz-adv-x="983" d="M205 852q0 8 5 39t34 61q43 47 129 47q16 0 26.5 -10t10.5 -26t-10.5 -26.5t-26.5 -10.5q-55 0 -76 -25q-12 -12 -16 -29q-2 -8 -2 -16v-2q0 -53 28 -82q10 -10 29 -16l184 -62q49 -16 79 -58t30 -93q0 -66 -47 -112t-113 -46h-186q-16 0 -26.5 10.5t-10.5 26.5 q0 14 10 25.5t27 11.5h186q35 0 60.5 24.5t25.5 59.5q0 29 -16.5 50t-40.5 32l-187 61q-4 2 -20.5 9t-32.5 24q-18 16 -35.5 48t-17.5 85zM231 1219q0 66 47.5 112.5t112.5 46.5h187q16 0 26 -10t10 -27q0 -16 -10 -26t-26 -10h-187q-35 0 -60.5 -26t-25.5 -60q0 -59 57 -80 l187 -64q53 -18 79.5 -64t26.5 -102q0 -8 -5 -38.5t-34 -61.5q-43 -47 -129 -47q-16 0 -26 10t-10 27q0 16 10 26.5t26 10.5q53 0 76 24q14 16 17 31q2 8 2 16v2q0 51 -29 80q-8 8 -16 12l-9 5l-4 1t-21.5 7t-55 18t-107.5 37q-49 16 -79 57t-30 93z" />
<glyph unicode="&#xa8;" horiz-adv-x="1069" d="M393 1298q0 23 16.5 39.5t39.5 16.5t39 -16.5t16 -39.5t-16.5 -39t-38.5 -16q-23 0 -39.5 16.5t-16.5 38.5zM565 1298q0 23 16.5 39.5t39.5 16.5t39 -16.5t16 -39.5t-16.5 -39t-38.5 -16q-23 0 -39.5 16.5t-16.5 38.5z" />
<glyph unicode="&#xa9;" horiz-adv-x="2320" d="M236 573q0 186 71 361q72 166 199 293t295 198q172 74 360 74t361 -74q168 -72 295 -198q127 -127 198 -293q72 -174 72 -361q0 -188 -72 -362q-72 -166 -198 -293q-127 -127 -295 -199q-173 -73 -361 -73t-360 73q-168 72 -295 199t-199 293q-72 174 -71 362zM309 573 q0 -172 66 -331q66 -158 184 -273q119 -119 270 -182q156 -68 332 -68q174 0 332 68q152 63 270 182q119 115 185 273q66 160 65 331q0 170 -65 332q-33 76 -79 143.5t-106 127.5q-119 119 -270 182q-158 67 -332 67q-176 0 -332 -67q-152 -63 -270 -182q-59 -59 -105 -127 t-79 -144q-66 -162 -66 -332zM723 553q0 90 34 171t97 146q66 63 146.5 97t173.5 34q90 0 170.5 -33.5t146.5 -97.5q10 -10 10 -26.5t-10 -26.5t-26.5 -10t-26.5 10q-55 55 -124 83t-141.5 28t-141 -28t-124.5 -83q-55 -55 -82.5 -123.5t-27.5 -141.5t27.5 -141.5 t82.5 -123.5t124 -83t141.5 -28t141 27.5t124.5 83.5q10 10 26.5 10t26.5 -10t10 -26.5t-10 -27.5q-66 -63 -146.5 -97t-170.5 -34q-92 0 -173 34t-147 97q-63 66 -97 147t-34 173z" />
<glyph unicode="&#xaa;" horiz-adv-x="929" d="M182 938l242 549q10 23 35 22q23 0 33 -22l256 -547q6 -14 0.5 -28.5t-19.5 -20.5q-33 -14 -47 18l-37 74h-362l-33 -74q-10 -23 -33 -22q-4 0 -16 4q-33 14 -19 47zM244 631q0 16 10 26.5t27 10.5h370q16 0 26.5 -10.5t10.5 -26.5t-10 -26.5t-27 -10.5h-370 q-16 0 -26.5 10t-10.5 27zM315 1057h297l-153 325z" />
<glyph unicode="&#xab;" horiz-adv-x="1148" d="M266 537q-10 14 0 28l271 404q6 8 16 10t18 -4q10 -4 11.5 -14.5t-4.5 -18.5l-261 -391l261 -391q10 -14 0.5 -25.5t-21.5 -11.5t-20 10zM573 537q-8 14 0 28l271 404q6 8 16 10t19 -4q10 -4 11 -14.5t-5 -18.5l-260 -391l260 -391q10 -14 0.5 -25.5t-21.5 -11.5t-20 10z " />
<glyph unicode="&#xac;" horiz-adv-x="1243" d="M178 840q0 16 10.5 26.5t26.5 10.5h813q16 0 26.5 -10.5t10.5 -26.5v-359q0 -16 -10.5 -26.5t-26.5 -10.5t-26.5 10.5t-10.5 26.5v322h-776q-16 0 -26.5 10t-10.5 27z" />
<glyph unicode="&#xad;" horiz-adv-x="1077" d="M170 840q0 16 10 26.5t27 10.5h663q16 0 26.5 -10.5t10.5 -26.5t-10 -26.5t-27 -10.5h-663q-16 0 -26.5 10t-10.5 27z" />
<glyph unicode="&#xae;" horiz-adv-x="2318" d="M233 573q0 186 72 361q70 162 199 295q133 129 295 198q174 72 360 72t361 -72q162 -70 295 -198q128 -133 198 -295q72 -174 72 -361q0 -186 -72 -360q-70 -162 -198 -295q-133 -129 -295 -199q-174 -72 -361 -71q-186 0 -360 71q-162 70 -295 199q-129 133 -199 295 q-72 174 -72 360zM307 573q0 -172 66 -331q63 -154 184 -271q117 -121 270 -184q160 -66 332 -66t332 66q154 63 270 184q122 119 183 271q68 156 67 331q0 174 -67 332q-63 154 -183 271q-119 119 -270 182q-158 68 -332 67q-176 0 -332 -67q-152 -63 -270 -182 q-59 -59 -105 -127t-79 -144q-66 -160 -66 -332zM879 143v844q0 16 10 26.5t26 10.5h328q61 0 114.5 -23.5t93.5 -63.5t63.5 -93t23.5 -115q0 -98 -57.5 -174t-145.5 -104l195 -287q10 -12 7 -27.5t-15 -23.5q-10 -6 -21 -7q-23 0 -31 17l-215 313h-12h-291v-293 q0 -16 -10 -26.5t-27 -10.5q-16 0 -26 10.5t-10 26.5zM952 510h291q45 0 85 17.5t71 47t48 69.5t17 85t-17 86t-48 70.5t-71 47t-85 17.5h-291v-440z" />
<glyph unicode="&#xb0;" horiz-adv-x="626" d="M147 1311q0 70 48.5 118t117.5 48q68 0 117 -48.5t49 -117.5q0 -70 -49 -118t-117 -48q-70 0 -118 48t-48 118zM197 1311q0 -47 33.5 -82t82.5 -35q47 0 82 35t35 82t-35 81.5t-82 34.5q-49 0 -82.5 -34.5t-33.5 -81.5z" />
<glyph unicode="&#xb1;" horiz-adv-x="1259" d="M178 147q0 16 10.5 26.5t26.5 10.5h809q16 0 26.5 -10t10.5 -27q0 -16 -10.5 -26t-26.5 -10h-809q-16 0 -26.5 10t-10.5 26zM178 840q0 16 10.5 26.5t26.5 10.5h367v366q0 16 10 26.5t26 10.5t26.5 -10t10.5 -27v-366h369q16 0 26.5 -10.5t10.5 -26.5t-10.5 -26.5 t-26.5 -10.5h-369v-369q0 -16 -10 -26.5t-27 -10.5q-16 0 -26 10.5t-10 26.5v369h-367q-16 0 -26.5 10t-10.5 27z" />
<glyph unicode="&#xb2;" horiz-adv-x="628" d="M119 803q-10 23 6 39l287 307q29 33 28 74q0 43 -30.5 73.5t-75.5 30.5q-43 0 -74 -30.5t-31 -73.5q0 -16 -10 -26.5t-26 -10.5t-26.5 10t-10.5 27q0 74 52 126t126 52q76 0 128 -52t52 -126t-49 -125l-227 -244h196q16 0 26.5 -10t10.5 -27q0 -16 -10 -26.5t-27 -10.5 h-282q-23 0 -33 23z" />
<glyph unicode="&#xb3;" horiz-adv-x="618" d="M104 905q0 16 10.5 26.5t26.5 10.5t26.5 -10t10.5 -27q0 -53 37 -90q39 -39 92 -39t92 38t39 91t-39 91t-92 38q-16 0 -26.5 10.5t-10.5 26.5t10.5 26.5t26.5 10.5q47 0 79 31.5t32 79.5q0 45 -32 76.5t-79 31.5q-16 0 -26.5 11.5t-10.5 25.5q0 16 10.5 26.5t26.5 10.5 q78 0 131.5 -53.5t53.5 -128.5q0 -45 -18.5 -82t-51.5 -62q41 -29 65.5 -73t24.5 -97q0 -86 -59.5 -144.5t-145.5 -58.5q-84 0 -145 62q-57 61 -58 141z" />
<glyph unicode="&#xb4;" horiz-adv-x="1148" d="M399 1255q-8 23 15 33l305 111q25 8 33 -15t-15 -30l-305 -113q-4 0 -5 -1t-3 -1q-18 0 -25 16z" />
<glyph unicode="&#xb5;" horiz-adv-x="1144" d="M150 162.5q-11 21.5 8 40.5q49 53 49 119v602v63q0 16 10 26.5t27 10.5q16 0 26.5 -10t10.5 -27v-47q82 -76 194 -76q100 0 178 60q35 29 61.5 66.5t39.5 80.5v68q0 16 10 26.5t27 10.5q16 0 26 -10.5t10 -26.5v-506q0 -53 37 -90t90 -37q16 0 26.5 -10.5t10.5 -26.5 t-10 -26.5t-27 -10.5q-84 0 -142 58.5t-58 142.5v287q-27 -33 -56 -54q-100 -76 -223 -75q-104 0 -194 57v-526q0 -47 -18.5 -91.5t-53.5 -78.5q-8 -10 -25 -11q-23 0 -34 21.5z" />
<glyph unicode="&#xb6;" horiz-adv-x="1312" d="M238 866q0 90 32.5 170t96.5 144q63 63 143 97t170 34h420q16 0 26.5 -10.5t10.5 -26.5t-10.5 -26.5t-26.5 -10.5h-420q-76 0 -143.5 -28.5t-117.5 -80t-79 -119t-29 -143.5q0 -74 27 -138t73 -113.5t108.5 -80t133.5 -36.5v446q0 14 10.5 25.5t26.5 11.5t26.5 -11.5 t10.5 -25.5v-768q0 -16 -10 -26.5t-27 -10.5q-16 0 -26.5 10.5t-10.5 26.5v248q-168 10 -286 129q-63 63 -96 143t-33 170zM940 176v768q0 14 10.5 25.5t26.5 11.5t26.5 -11.5t10.5 -25.5v-768q0 -16 -10.5 -26.5t-26.5 -10.5t-26.5 10.5t-10.5 26.5z" />
<glyph unicode="&#xb7;" horiz-adv-x="1404" d="M623 610q0 35 23.5 58.5t58.5 23.5t58 -23.5t23 -58.5t-23.5 -58.5t-57.5 -23.5q-35 0 -58.5 23.5t-23.5 58.5z" />
<glyph unicode="&#xb8;" horiz-adv-x="946" d="M399 23q0 10 7.5 17t17.5 7t17.5 -7t7.5 -17v-60q35 -8 56 -35.5t21 -64.5q0 -41 -29.5 -72t-72.5 -31q-10 0 -17.5 7.5t-7.5 17.5q0 25 25 25q23 0 38 15t15 38t-15.5 39t-37.5 16q-25 0 -25 25v80z" />
<glyph unicode="&#xb9;" horiz-adv-x="331" d="M90 1364q0 16 10.5 26.5t26.5 10.5h78q16 0 26.5 -10.5t10.5 -26.5v-330q0 -16 -10.5 -26.5t-26.5 -10.5t-26.5 10.5t-10.5 26.5v293h-41q-16 0 -26.5 11.5t-10.5 25.5z" />
<glyph unicode="&#xba;" d="M279 1198q0 63 24.5 119.5t66.5 98.5t98 66.5t122 24.5q63 0 119.5 -24.5t98.5 -66.5t66.5 -98t24.5 -120q0 -66 -24.5 -122t-66.5 -98t-98.5 -66.5t-119.5 -24.5q-66 0 -122 24.5t-98 66.5t-66.5 98.5t-24.5 121.5zM352 1198q0 -49 18.5 -92t51.5 -76t76 -51t92 -18 t92 18t74.5 51t50 76t18.5 92t-18.5 91t-50 75t-74.5 51.5t-92 18.5t-92 -18.5t-76 -51.5t-51.5 -75t-18.5 -91zM367 631q0 16 10 26.5t26 10.5h371q16 0 26.5 -10.5t10.5 -26.5t-10 -26.5t-27 -10.5h-371q-16 0 -26 10t-10 27z" />
<glyph unicode="&#xbb;" horiz-adv-x="1148" d="M263 960.5q1 10.5 11 14.5q8 6 18.5 4t16.5 -10l271 -404q6 -14 0 -28l-271 -404q-8 -10 -20 -10q-16 0 -22.5 13.5t1.5 23.5l260 391l-260 391q-6 8 -5 18.5zM570 960.5q1 10.5 12 14.5q8 6 18 4t16 -10l271 -404q10 -14 0 -28l-271 -404q-8 -10 -20 -10 q-16 0 -22.5 13.5t1.5 23.5l261 391l-261 391q-6 8 -5 18.5z" />
<glyph unicode="&#xbc;" horiz-adv-x="1966" d="M190 1364q0 16 10.5 26.5t26.5 10.5h78q16 0 26.5 -10.5t10.5 -26.5v-330q0 -16 -10 -26.5t-27 -10.5q-16 0 -26.5 10.5t-10.5 26.5v293h-41q-16 0 -26.5 11.5t-10.5 25.5zM653 98l387 1096q14 33 47 23q16 -6 22.5 -19.5t0.5 -28.5l-389 -1095q-6 -25 -35 -25 q-18 0 -29.5 16.5t-3.5 32.5zM1282 203l123 266q6 14 20.5 19.5t28.5 -1.5q14 -6 19.5 -20t-0.5 -29l-99 -213h236v369q0 16 10 26.5t27 10.5q16 0 26 -10.5t10 -26.5v-369h56q16 0 26.5 -10t10.5 -27q0 -16 -10.5 -26t-26.5 -10h-56v-105q0 -16 -10 -26.5t-26 -10.5 t-26.5 10.5t-10.5 26.5v105h-293q-20 0 -31.5 17t-3.5 34z" />
<glyph unicode="&#xbd;" horiz-adv-x="1966" d="M217 1364q0 16 10.5 26.5t26.5 10.5h78q16 0 26.5 -10.5t10.5 -26.5v-330q0 -16 -10.5 -26.5t-26.5 -10.5t-26.5 10.5t-10.5 26.5v293h-41q-16 0 -26.5 11.5t-10.5 25.5zM680 98l387 1096q14 33 47 23q16 -6 22.5 -19.5t0.5 -28.5l-389 -1095q-6 -25 -35 -25 q-18 0 -29.5 16.5t-3.5 32.5zM1354 -109q-10 23 6 39l287 308q29 33 28 73q0 43 -30.5 74t-75.5 31q-43 0 -74 -31t-31 -74q0 -16 -10 -26.5t-27 -10.5q-16 0 -26 10.5t-10 26.5q0 74 52 126t126 52q76 0 128 -52t52 -126t-49 -125l-227 -243h196q16 0 26.5 -10.5 t10.5 -26.5t-10 -26.5t-27 -10.5h-283q-23 0 -32 22z" />
<glyph unicode="&#xbe;" horiz-adv-x="1966" d="M158 905q0 16 10 26.5t27 10.5q16 0 26 -10t10 -27q0 -53 37 -90q39 -39 92 -39t92.5 38t39.5 91t-39 91t-93 38q-16 0 -26 10.5t-10 26.5t10 26.5t26 10.5q47 0 79 31.5t32 79.5q0 45 -31.5 76.5t-79.5 31.5q-16 0 -26 11.5t-10 25.5q0 16 10 26.5t26 10.5 q78 0 131.5 -53.5t53.5 -128.5q0 -45 -18.5 -82t-51.5 -62q41 -29 65.5 -73t24.5 -97q0 -86 -59.5 -144.5t-145.5 -58.5q-84 0 -145 62q-57 61 -57 141zM684 98l387 1096q14 33 47 23q16 -6 22.5 -19.5t0.5 -28.5l-389 -1095q-6 -25 -35 -25q-18 0 -29.5 16.5t-3.5 32.5z M1313 203l123 266q6 14 20 19.5t29 -1.5q14 -6 19 -20t-1 -29l-98 -213h235v369q0 16 10.5 26.5t26.5 10.5t26.5 -10.5t10.5 -26.5v-369h55q16 0 26.5 -10t10.5 -27q0 -16 -10 -26t-27 -10h-55v-105q0 -16 -10 -26.5t-27 -10.5q-16 0 -26.5 10.5t-10.5 26.5v105h-292 q-20 0 -31.5 17t-3.5 34z" />
<glyph unicode="&#xbf;" horiz-adv-x="1019" d="M158 4q0 70 26.5 133.5t75.5 112.5q29 29 69 52.5t81 35.5q45 14 70.5 46t25.5 75q0 16 10.5 26.5t26.5 10.5t26.5 -10.5t10.5 -26.5q0 -80 -58 -142q-33 -33 -92 -51q-31 -10 -63.5 -28.5t-55.5 -40.5q-80 -80 -80 -193t80 -192q80 -80 195 -80q53 0 103 19.5t89 60.5 q80 80 80 192q0 16 10.5 26.5t26.5 10.5t26.5 -10.5t10.5 -26.5q0 -70 -25.5 -133.5t-74.5 -112.5t-113 -74.5t-133 -25.5q-145 0 -246 100q-49 49 -75.5 112.5t-26.5 133.5zM481 805q0 23 16.5 39t39.5 16t39 -16t16 -39t-16.5 -39t-38.5 -16q-23 0 -39.5 16t-16.5 39z" />
<glyph unicode="&#xc0;" horiz-adv-x="1316" d="M127 37l483 1096q10 23 35 22q23 0 33 -20l512 -1096q6 -14 1 -28.5t-20 -20.5q-14 -6 -27.5 -1t-21.5 19l-110 238h-713l-104 -238q-10 -23 -35 -22q-20 0 -30.5 17t-2.5 34zM332 319h645l-332 711zM483 1548q8 23 33 15l305 -111q23 -10 15 -33q-7 -16 -25 -16 q-2 0 -3 1t-5 1l-305 113q-23 8 -15 30z" />
<glyph unicode="&#xc1;" horiz-adv-x="1316" d="M127 37l483 1096q10 23 35 22q23 0 33 -20l512 -1096q6 -14 1 -28.5t-20 -20.5q-14 -6 -27.5 -1t-21.5 19l-110 238h-713l-104 -238q-10 -23 -35 -22q-20 0 -30.5 17t-2.5 34zM332 319h645l-332 711zM483 1419q-8 23 15 33l305 111q25 8 33 -15t-15 -30l-305 -113 q-4 0 -5 -1t-3 -1q-18 0 -25 16z" />
<glyph unicode="&#xc2;" horiz-adv-x="1316" d="M127 37l483 1096q10 23 35 22q23 0 33 -20l512 -1096q6 -14 1 -28.5t-20 -20.5q-14 -6 -27.5 -1t-21.5 19l-110 238h-713l-104 -238q-10 -23 -35 -22q-20 0 -30.5 17t-2.5 34zM332 319h645l-332 711zM432 1426q-10 23 11 32l204 113q8 4 13 4q4 0 12 -4l205 -113 q20 -10 10 -32q-4 -10 -14.5 -12.5t-20.5 1.5l-192 107l-195 -107q-23 -10 -33 11z" />
<glyph unicode="&#xc3;" horiz-adv-x="1316" d="M127 37l483 1096q10 23 35 22q23 0 33 -20l512 -1096q6 -14 1 -28.5t-20 -20.5q-14 -6 -27.5 -1t-21.5 19l-110 238h-713l-104 -238q-10 -23 -35 -22q-20 0 -30.5 17t-2.5 34zM332 319h645l-332 711zM428 1467l5 12t15.5 27.5t27 31t40.5 21.5q70 20 160 -60 q59 -57 107 -47q14 4 25 13.5t20 19.5q8 12 14 27q8 23 33 14q23 -12 12 -33q-10 -37 -45 -63.5t-74 -26.5q-61 0 -127 59q-66 61 -110 50q-29 -8 -43 -33q-8 -12 -13 -27q-6 -23 -30 -16q-23 8 -17 31z" />
<glyph unicode="&#xc4;" horiz-adv-x="1316" d="M127 37l483 1096q10 23 35 22q23 0 33 -20l512 -1096q6 -14 1 -28.5t-20 -20.5q-14 -6 -27.5 -1t-21.5 19l-110 238h-713l-104 -238q-10 -23 -35 -22q-20 0 -30.5 17t-2.5 34zM332 319h645l-332 711zM516 1462q0 23 16.5 39.5t39.5 16.5t39 -16.5t16 -39.5t-16.5 -39 t-38.5 -16q-23 0 -39.5 16.5t-16.5 38.5zM688 1462q0 23 16.5 39.5t39.5 16.5t39 -16.5t16 -39.5t-16.5 -39t-38.5 -16q-23 0 -39.5 16.5t-16.5 38.5z" />
<glyph unicode="&#xc5;" horiz-adv-x="1316" d="M127 37l483 1096q10 23 35 22q23 0 33 -20l512 -1096q6 -14 1 -28.5t-20 -20.5q-14 -6 -27.5 -1t-21.5 19l-110 238h-713l-104 -238q-10 -23 -35 -22q-20 0 -30.5 17t-2.5 34zM332 319h645l-332 711zM471 1462q0 70 48.5 118t117.5 48q68 0 117 -48t49 -118t-49 -117.5 t-117 -47.5q-70 0 -118 48t-48 117zM520 1462q0 -47 34 -81.5t83 -34.5q47 0 82 34.5t35 81.5t-35 82t-82 35q-49 0 -83 -34.5t-34 -82.5z" />
<glyph unicode="&#xc6;" horiz-adv-x="1638" d="M126.5 11.5q-11.5 19.5 0.5 37.5l698 1096q12 16 33 16h610q16 0 26.5 -10t10.5 -27q0 -16 -10 -26.5t-27 -10.5h-573v-473h389q16 0 26.5 -10t10.5 -26t-10.5 -26.5t-26.5 -10.5h-389v-475h573q16 0 26.5 -10.5t10.5 -26.5t-10 -26.5t-27 -10.5h-610q-16 0 -26.5 10 t-10.5 27v223h-477l-156 -242q-10 -18 -30 -18t-31.5 19.5zM391 326h430v671z" />
<glyph unicode="&#xc7;" horiz-adv-x="1259" d="M141 571q0 119 44 224.5t128 189.5t189.5 128t224.5 44q104 0 202.5 -37t178.5 -104q10 -10 12 -25.5t-8 -25.5q-25 -29 -53 -4q-70 59 -155 90.5t-177 31.5q-104 0 -197.5 -38.5t-164.5 -110.5q-72 -72 -111 -165t-39 -198q0 -102 39 -195t111 -165t165 -111t197 -39 q92 0 177 32t155 91q29 25 53 -4q10 -10 8 -25.5t-12 -25.5q-80 -68 -178.5 -104.5t-202.5 -36.5q-119 0 -224.5 44t-189.5 128t-128 189.5t-44 221.5zM643 -139q0 10 7.5 17t17.5 7t17.5 -7t7.5 -17v-60q35 -8 56 -35.5t21 -64.5q0 -41 -29.5 -72t-72.5 -31 q-10 0 -17.5 7.5t-7.5 17.5q0 25 25 25q23 0 38 15t15 38t-15.5 39t-37.5 16q-25 0 -25 25v80z" />
<glyph unicode="&#xc8;" horiz-adv-x="952" d="M133 29v1095q0 16 10.5 26.5t26.5 10.5h610q16 0 26.5 -10t10.5 -27q0 -16 -10 -26.5t-27 -10.5h-573v-473h389q16 0 26.5 -11t10.5 -25q0 -16 -10.5 -26.5t-26.5 -10.5h-389v-475h573q16 0 26.5 -10.5t10.5 -26.5t-10 -26.5t-27 -10.5h-610q-16 0 -26.5 10t-10.5 27z M315 1548q8 23 33 15l305 -111q23 -10 15 -33q-7 -16 -25 -16q-2 0 -3 1t-5 1l-305 113q-23 8 -15 30z" />
<glyph unicode="&#xc9;" horiz-adv-x="952" d="M133 29v1095q0 16 10.5 26.5t26.5 10.5h610q16 0 26.5 -10t10.5 -27q0 -16 -10 -26.5t-27 -10.5h-573v-473h389q16 0 26.5 -11t10.5 -25q0 -16 -10.5 -26.5t-26.5 -10.5h-389v-475h573q16 0 26.5 -10.5t10.5 -26.5t-10 -26.5t-27 -10.5h-610q-16 0 -26.5 10t-10.5 27z M315 1419q-8 23 15 33l305 111q25 8 33 -15t-15 -30l-305 -113q-4 0 -5 -1t-3 -1q-18 0 -25 16z" />
<glyph unicode="&#xca;" horiz-adv-x="952" d="M133 29v1095q0 16 10.5 26.5t26.5 10.5h610q16 0 26.5 -10t10.5 -27q0 -16 -10 -26.5t-27 -10.5h-573v-473h389q16 0 26.5 -11t10.5 -25q0 -16 -10.5 -26.5t-26.5 -10.5h-389v-475h573q16 0 26.5 -10.5t10.5 -26.5t-10 -26.5t-27 -10.5h-610q-16 0 -26.5 10t-10.5 27z M264 1426q-10 23 11 32l204 113q8 4 13 4q4 0 12 -4l205 -113q20 -10 10 -32q-4 -10 -14.5 -12.5t-20.5 1.5l-192 107l-195 -107q-23 -10 -33 11z" />
<glyph unicode="&#xcb;" horiz-adv-x="952" d="M133 29v1095q0 16 10.5 26.5t26.5 10.5h610q16 0 26.5 -10t10.5 -27q0 -16 -10 -26.5t-27 -10.5h-573v-473h389q16 0 26.5 -11t10.5 -25q0 -16 -10.5 -26.5t-26.5 -10.5h-389v-475h573q16 0 26.5 -10.5t10.5 -26.5t-10 -26.5t-27 -10.5h-610q-16 0 -26.5 10t-10.5 27z M348 1462q0 23 16.5 39.5t39.5 16.5t39 -16.5t16 -39.5t-16.5 -39t-38.5 -16q-23 0 -39.5 16.5t-16.5 38.5zM520 1462q0 23 16.5 39.5t39.5 16.5t39 -16.5t16 -39.5t-16.5 -39t-38.5 -16q-23 0 -39.5 16.5t-16.5 38.5z" />
<glyph unicode="&#xcc;" horiz-adv-x="710" d="M164 25q0 16 10 26t27 10h118v1022h-118q-16 0 -26.5 10.5t-10.5 26.5t10 26.5t27 10.5h313q16 0 26.5 -10t10.5 -27q0 -16 -10.5 -26.5t-26.5 -10.5h-121v-1022h121q16 0 26.5 -10t10.5 -26t-10.5 -26.5t-26.5 -10.5h-313q-16 0 -26.5 10t-10.5 27zM184 1548q8 23 33 15 l305 -111q23 -10 15 -33q-7 -16 -25 -16q-2 0 -3 1t-5 1l-305 113q-23 8 -15 30z" />
<glyph unicode="&#xcd;" horiz-adv-x="710" d="M164 25q0 16 10 26t27 10h118v1022h-118q-16 0 -26.5 10.5t-10.5 26.5t10 26.5t27 10.5h313q16 0 26.5 -10t10.5 -27q0 -16 -10.5 -26.5t-26.5 -10.5h-121v-1022h121q16 0 26.5 -10t10.5 -26t-10.5 -26.5t-26.5 -10.5h-313q-16 0 -26.5 10t-10.5 27zM184 1419 q-8 23 15 33l305 111q25 8 33 -15t-15 -30l-305 -113q-4 0 -5 -1t-3 -1q-18 0 -25 16z" />
<glyph unicode="&#xce;" horiz-adv-x="710" d="M143 1426q-10 23 11 32l204 113q8 4 13 4q4 0 12 -4l205 -113q20 -10 10 -32q-4 -10 -14.5 -12.5t-20.5 1.5l-192 107l-195 -107q-23 -10 -33 11zM164 25q0 16 10 26t27 10h118v1022h-118q-16 0 -26.5 10.5t-10.5 26.5t10 26.5t27 10.5h313q16 0 26.5 -10t10.5 -27 q0 -16 -10.5 -26.5t-26.5 -10.5h-121v-1022h121q16 0 26.5 -10t10.5 -26t-10.5 -26.5t-26.5 -10.5h-313q-16 0 -26.5 10t-10.5 27z" />
<glyph unicode="&#xcf;" horiz-adv-x="710" d="M164 25q0 16 10 26t27 10h118v1022h-118q-16 0 -26.5 10.5t-10.5 26.5t10 26.5t27 10.5h313q16 0 26.5 -10t10.5 -27q0 -16 -10.5 -26.5t-26.5 -10.5h-121v-1022h121q16 0 26.5 -10t10.5 -26t-10.5 -26.5t-26.5 -10.5h-313q-16 0 -26.5 10t-10.5 27zM217 1462 q0 23 16.5 39.5t39.5 16.5t39 -16.5t16 -39.5t-16.5 -39t-38.5 -16q-23 0 -39.5 16.5t-16.5 38.5zM389 1462q0 23 16.5 39.5t39.5 16.5t39 -16.5t16 -39.5t-16.5 -39t-38.5 -16q-23 0 -39.5 16.5t-16.5 38.5z" />
<glyph unicode="&#xd0;" horiz-adv-x="1236" d="M45 571q0 10 7 17.5t18 7.5h106v524q0 14 11.5 25.5t25.5 11.5h293q117 0 223.5 -44t190.5 -128t127 -190.5t43 -223.5t-43 -223t-127 -190t-190.5 -127t-223.5 -43h-293q-14 0 -25.5 10t-11.5 27v522h-106q-10 0 -17.5 7t-7.5 17zM250 61h256q102 0 195 39t165 111 t111 164t39 196t-39 196.5t-111 164.5q-72 74 -165 112.5t-195 38.5h-256v-487h209q25 0 24 -25q0 -25 -24 -24h-209v-486z" />
<glyph unicode="&#xd1;" horiz-adv-x="1241" d="M186 23v1095q0 29 25 35q29 6 43 -14l725 -1002v981q0 16 10 26.5t27 10.5q14 0 25.5 -10t11.5 -27v-1095q0 -16 -11.5 -26.5t-25.5 -10.5q-20 0 -31 16l-725 1002v-981q0 -16 -10 -26.5t-27 -10.5q-16 0 -26.5 10t-10.5 27zM393 1467l5 12t15.5 27.5t27 31t40.5 21.5 q70 20 160 -60q59 -57 107 -47q14 4 25 13.5t20 19.5q8 12 14 27q8 23 33 14q23 -12 12 -33q-10 -37 -45 -63.5t-74 -26.5q-61 0 -127 59q-66 61 -110 50q-29 -8 -43 -33q-8 -12 -13 -27q-6 -23 -30 -16q-23 8 -17 31z" />
<glyph unicode="&#xd2;" horiz-adv-x="1449" d="M141 569q0 119 46 225.5t126 186.5t186.5 126t225.5 46t225.5 -46t186.5 -126t127 -186.5t47 -225.5q0 -121 -47 -226t-127 -185t-186.5 -126t-225.5 -46t-225.5 46t-186.5 126t-126 186.5t-46 224.5zM215 569q0 -104 41 -197t109.5 -162t162 -110t197.5 -41t197.5 41 t163 110t110.5 162t41 197t-41 197.5t-110.5 163t-163 109.5t-197.5 40t-197.5 -41t-162 -109.5t-109.5 -161.5t-41 -198zM575 1548q8 23 33 15l305 -111q23 -10 15 -33q-7 -16 -25 -16q-2 0 -3 1t-5 1l-305 113q-23 8 -15 30z" />
<glyph unicode="&#xd3;" horiz-adv-x="1449" d="M141 569q0 119 46 225.5t126 186.5t186.5 126t225.5 46t225.5 -46t186.5 -126t127 -186.5t47 -225.5q0 -121 -47 -226t-127 -185t-186.5 -126t-225.5 -46t-225.5 46t-186.5 126t-126 186.5t-46 224.5zM215 569q0 -104 41 -197t109.5 -162t162 -110t197.5 -41t197.5 41 t163 110t110.5 162t41 197t-41 197.5t-110.5 163t-163 109.5t-197.5 40t-197.5 -41t-162 -109.5t-109.5 -161.5t-41 -198zM575 1419q-8 23 15 33l305 111q25 8 33 -15t-15 -30l-305 -113q-4 0 -5 -1t-3 -1q-18 0 -25 16z" />
<glyph unicode="&#xd4;" horiz-adv-x="1449" d="M141 569q0 119 46 225.5t126 186.5t186.5 126t225.5 46t225.5 -46t186.5 -126t127 -186.5t47 -225.5q0 -121 -47 -226t-127 -185t-186.5 -126t-225.5 -46t-225.5 46t-186.5 126t-126 186.5t-46 224.5zM215 569q0 -104 41 -197t109.5 -162t162 -110t197.5 -41t197.5 41 t163 110t110.5 162t41 197t-41 197.5t-110.5 163t-163 109.5t-197.5 40t-197.5 -41t-162 -109.5t-109.5 -161.5t-41 -198zM524 1426q-10 23 11 32l204 113q8 4 13 4q4 0 12 -4l205 -113q20 -10 10 -32q-4 -10 -14.5 -12.5t-20.5 1.5l-192 107l-195 -107q-23 -10 -33 11z" />
<glyph unicode="&#xd5;" horiz-adv-x="1449" d="M141 569q0 119 46 225.5t126 186.5t186.5 126t225.5 46t225.5 -46t186.5 -126t127 -186.5t47 -225.5q0 -121 -47 -226t-127 -185t-186.5 -126t-225.5 -46t-225.5 46t-186.5 126t-126 186.5t-46 224.5zM215 569q0 -104 41 -197t109.5 -162t162 -110t197.5 -41t197.5 41 t163 110t110.5 162t41 197t-41 197.5t-110.5 163t-163 109.5t-197.5 40t-197.5 -41t-162 -109.5t-109.5 -161.5t-41 -198zM520 1467l5 12t15.5 27.5t27 31t40.5 21.5q70 20 160 -60q59 -57 107 -47q14 4 25 13.5t20 19.5q8 12 14 27q8 23 33 14q23 -12 12 -33 q-10 -37 -45 -63.5t-74 -26.5q-61 0 -127 59q-66 61 -110 50q-29 -8 -43 -33q-8 -12 -13 -27q-6 -23 -30 -16q-23 8 -17 31z" />
<glyph unicode="&#xd6;" horiz-adv-x="1449" d="M141 569q0 119 46 225.5t126 186.5t186.5 126t225.5 46t225.5 -46t186.5 -126t127 -186.5t47 -225.5q0 -121 -47 -226t-127 -185t-186.5 -126t-225.5 -46t-225.5 46t-186.5 126t-126 186.5t-46 224.5zM215 569q0 -104 41 -197t109.5 -162t162 -110t197.5 -41t197.5 41 t163 110t110.5 162t41 197t-41 197.5t-110.5 163t-163 109.5t-197.5 40t-197.5 -41t-162 -109.5t-109.5 -161.5t-41 -198zM608 1462q0 23 16.5 39.5t39.5 16.5t39 -16.5t16 -39.5t-16.5 -39t-38.5 -16q-23 0 -39.5 16.5t-16.5 38.5zM780 1462q0 23 16.5 39.5t39.5 16.5 t39 -16.5t16 -39.5t-16.5 -39t-38.5 -16q-23 0 -39.5 16.5t-16.5 38.5z" />
<glyph unicode="&#xd7;" horiz-adv-x="1228" d="M307 528q-25 29 0 54l258 258l-258 260q-25 25 0 53q10 10 25.5 10t25.5 -10l260 -260l261 260q25 25 53 0q10 -10 10 -25.5t-10 -25.5l-262 -262l262 -260q10 -10 10 -25.5t-10 -26.5q-29 -25 -53 0l-261 260l-260 -260q-10 -10 -25.5 -10t-25.5 10z" />
<glyph unicode="&#xd8;" horiz-adv-x="1449" d="M143 631q0 119 43 224.5t127 188.5q84 84 190.5 128.5t223.5 44.5q80 0 160 -23q6 12 19.5 18.5t27.5 1.5q33 -14 22 -45q101 -43 183 -125q84 -84 128 -189t44 -224q0 -117 -44 -222.5t-128 -189.5q-82 -84 -188.5 -128t-223.5 -44q-78 0 -162 23q-6 -23 -33 -23 q-16 0 -27 14.5t-7 32.5q-102 43 -185 125q-84 84 -127 189.5t-43 222.5zM217 631q0 -102 39 -195.5t111 -165.5q70 -70 155 -106l340 960q-66 18 -135 19q-104 0 -196.5 -39t-163.5 -111q-72 -72 -111 -165t-39 -197zM592 139q63 -18 135 -18q102 0 195 38.5t165 110.5 t111 165t39 196q0 104 -39 197.5t-111 164.5q-35 35 -73.5 60.5t-81.5 46.5z" />
<glyph unicode="&#xd9;" horiz-adv-x="1193" d="M156 432v688q0 16 10 26.5t27 10.5q14 0 25 -10t11 -27v-688q0 -76 29 -143.5t79 -117.5t116.5 -79t144.5 -29q76 0 143.5 29t117.5 79t79 117.5t29 143.5v688q0 16 10 26.5t27 10.5q16 0 26 -10t10 -27v-688q0 -92 -34.5 -172t-95 -140.5t-140.5 -95t-172 -34.5 t-172 34.5t-140.5 95t-95 140.5t-34.5 172zM426 1548q8 23 33 15l305 -111q23 -10 15 -33q-7 -16 -25 -16q-2 0 -3 1t-5 1l-305 113q-23 8 -15 30z" />
<glyph unicode="&#xda;" horiz-adv-x="1193" d="M156 432v688q0 16 10 26.5t27 10.5q14 0 25 -10t11 -27v-688q0 -76 29 -143.5t79 -117.5t116.5 -79t144.5 -29q76 0 143.5 29t117.5 79t79 117.5t29 143.5v688q0 16 10 26.5t27 10.5q16 0 26 -10t10 -27v-688q0 -92 -34.5 -172t-95 -140.5t-140.5 -95t-172 -34.5 t-172 34.5t-140.5 95t-95 140.5t-34.5 172zM426 1419q-8 23 15 33l305 111q25 8 33 -15t-15 -30l-305 -113q-4 0 -5 -1t-3 -1q-18 0 -25 16z" />
<glyph unicode="&#xdb;" horiz-adv-x="1193" d="M156 432v688q0 16 10 26.5t27 10.5q14 0 25 -10t11 -27v-688q0 -76 29 -143.5t79 -117.5t116.5 -79t144.5 -29q76 0 143.5 29t117.5 79t79 117.5t29 143.5v688q0 16 10 26.5t27 10.5q16 0 26 -10t10 -27v-688q0 -92 -34.5 -172t-95 -140.5t-140.5 -95t-172 -34.5 t-172 34.5t-140.5 95t-95 140.5t-34.5 172zM376 1426q-10 23 11 32l204 113q8 4 13 4q4 0 12 -4l205 -113q20 -10 10 -32q-4 -10 -14.5 -12.5t-20.5 1.5l-192 107l-195 -107q-23 -10 -33 11z" />
<glyph unicode="&#xdc;" horiz-adv-x="1193" d="M156 432v688q0 16 10 26.5t27 10.5q14 0 25 -10t11 -27v-688q0 -76 29 -143.5t79 -117.5t116.5 -79t144.5 -29q76 0 143.5 29t117.5 79t79 117.5t29 143.5v688q0 16 10 26.5t27 10.5q16 0 26 -10t10 -27v-688q0 -92 -34.5 -172t-95 -140.5t-140.5 -95t-172 -34.5 t-172 34.5t-140.5 95t-95 140.5t-34.5 172zM459 1462q0 23 16.5 39.5t39.5 16.5t39 -16.5t16 -39.5t-16.5 -39t-38.5 -16q-23 0 -39.5 16.5t-16.5 38.5zM631 1462q0 23 16.5 39.5t39.5 16.5t39 -16.5t16 -39.5t-16.5 -39t-38.5 -16q-23 0 -39.5 16.5t-16.5 38.5z" />
<glyph unicode="&#xdd;" horiz-adv-x="1241" d="M126 1128.5q3 14.5 15 22.5q14 10 28.5 6t23.5 -16l428 -666l428 666q8 12 22.5 16t28.5 -6q12 -8 16 -22.5t-6 -26.5l-453 -705v-372q0 -16 -10 -26.5t-26 -10.5t-26.5 10t-10.5 27v372l-453 705q-8 12 -5 26.5zM440 1419q-8 23 15 33l305 111q25 8 33 -15t-15 -30 l-305 -113q-4 0 -5 -1t-3 -1q-18 0 -25 16z" />
<glyph unicode="&#xde;" horiz-adv-x="1054" d="M174 29v1454q0 16 10.5 26.5t26.5 10.5t26.5 -10.5t10.5 -26.5v-322h352q63 0 119.5 -24.5t98.5 -66.5t66.5 -99.5t24.5 -120.5t-24.5 -119.5t-66.5 -98.5t-98 -66.5t-120 -24.5h-352v-512q0 -16 -10.5 -26.5t-26.5 -10.5t-26.5 10t-10.5 27zM248 614h352q49 0 92 18.5 t75 51.5t50.5 75t18.5 91t-18.5 92t-50.5 76t-75 51t-92 18h-352v-473z" />
<glyph unicode="&#xdf;" horiz-adv-x="1200" d="M144.5 12.5q-3.5 14.5 5.5 28.5q43 61 43 137v811q0 82 31.5 156t86 128t127 86t156.5 32q57 0 107.5 -21.5t88 -59.5t59 -88.5t21.5 -107.5q0 -72 -33.5 -132t-88.5 -97q96 -33 174 -111q66 -66 100.5 -149.5t34.5 -175.5q0 -94 -35 -178.5t-100 -149.5 q-66 -66 -151 -101.5t-177 -35.5q-16 0 -26.5 10t-10.5 26t10.5 26.5t26.5 10.5q80 0 150.5 31t124 84t84 125t30.5 152t-30.5 150.5t-84 123.5t-124 84t-150.5 31q-16 0 -26.5 10t-10.5 26t10.5 26.5t26.5 10.5q41 0 78 15.5t64.5 43t44 64.5t16.5 80t-16.5 80t-44 64.5 t-64.5 43t-78 15.5q-68 0 -127 -25.5t-104.5 -70.5t-71 -104.5t-25.5 -127.5v-811q0 -47 -13 -93t-42 -85q-8 -16 -31 -16q-12 0 -20 6q-12 8 -15.5 22.5z" />
<glyph unicode="&#xe0;" horiz-adv-x="1230" d="M147 432q0 88 34 169t95 144q63 61 144.5 95t169.5 34q90 0 171 -33.5t142 -95.5q33 -33 58 -69v162q0 16 10 26t26 10t26.5 -10t10.5 -26v-672q0 -66 45 -115q10 -10 10.5 -26.5t-10.5 -26.5q-14 -10 -24 -10q-14 0 -27 12q-33 33 -50 76t-17 90v20q-63 -92 -161 -145 t-210 -53q-90 0 -171 34.5t-141.5 95t-95.5 141.5t-35 173zM221 432q0 -78 29 -144.5t79 -117.5t117.5 -80t143.5 -29t143.5 29t118.5 80t80 117.5t29 144.5q0 76 -29 143.5t-80 117.5t-118.5 79t-143.5 29t-143.5 -29t-117.5 -79t-79 -117.5t-29 -143.5zM454 1384 q8 23 33 15l305 -111q23 -10 15 -33q-7 -16 -25 -16q-2 0 -3 1t-5 1l-305 113q-23 8 -15 30z" />
<glyph unicode="&#xe1;" horiz-adv-x="1230" d="M147 432q0 88 34 169t95 144q63 61 144.5 95t169.5 34q90 0 171 -33.5t142 -95.5q33 -33 58 -69v162q0 16 10 26t26 10t26.5 -10t10.5 -26v-672q0 -66 45 -115q10 -10 10.5 -26.5t-10.5 -26.5q-14 -10 -24 -10q-14 0 -27 12q-33 33 -50 76t-17 90v20q-63 -92 -161 -145 t-210 -53q-90 0 -171 34.5t-141.5 95t-95.5 141.5t-35 173zM221 432q0 -78 29 -144.5t79 -117.5t117.5 -80t143.5 -29t143.5 29t118.5 80t80 117.5t29 144.5q0 76 -29 143.5t-80 117.5t-118.5 79t-143.5 29t-143.5 -29t-117.5 -79t-79 -117.5t-29 -143.5zM454 1255 q-8 23 15 33l305 111q25 8 33 -15t-15 -30l-305 -113q-4 0 -5 -1t-3 -1q-18 0 -25 16z" />
<glyph unicode="&#xe2;" horiz-adv-x="1230" d="M147 432q0 88 34 169t95 144q63 61 144.5 95t169.5 34q90 0 171 -33.5t142 -95.5q33 -33 58 -69v162q0 16 10 26t26 10t26.5 -10t10.5 -26v-672q0 -66 45 -115q10 -10 10.5 -26.5t-10.5 -26.5q-14 -10 -24 -10q-14 0 -27 12q-33 33 -50 76t-17 90v20q-63 -92 -161 -145 t-210 -53q-90 0 -171 34.5t-141.5 95t-95.5 141.5t-35 173zM221 432q0 -78 29 -144.5t79 -117.5t117.5 -80t143.5 -29t143.5 29t118.5 80t80 117.5t29 144.5q0 76 -29 143.5t-80 117.5t-118.5 79t-143.5 29t-143.5 -29t-117.5 -79t-79 -117.5t-29 -143.5zM403 1262 q-10 23 11 32l204 113q8 4 13 4q4 0 12 -4l205 -113q20 -10 10 -32q-4 -10 -14.5 -12.5t-20.5 1.5l-192 107l-195 -107q-23 -10 -33 11z" />
<glyph unicode="&#xe3;" horiz-adv-x="1230" d="M147 432q0 88 34 169t95 144q63 61 144.5 95t169.5 34q90 0 171 -33.5t142 -95.5q33 -33 58 -69v162q0 16 10 26t26 10t26.5 -10t10.5 -26v-672q0 -66 45 -115q10 -10 10.5 -26.5t-10.5 -26.5q-14 -10 -24 -10q-14 0 -27 12q-33 33 -50 76t-17 90v20q-63 -92 -161 -145 t-210 -53q-90 0 -171 34.5t-141.5 95t-95.5 141.5t-35 173zM221 432q0 -78 29 -144.5t79 -117.5t117.5 -80t143.5 -29t143.5 29t118.5 80t80 117.5t29 144.5q0 76 -29 143.5t-80 117.5t-118.5 79t-143.5 29t-143.5 -29t-117.5 -79t-79 -117.5t-29 -143.5zM399 1303l5 12 t15.5 27.5t27 31t40.5 21.5q70 20 160 -60q59 -57 107 -47q14 4 25 13.5t20 19.5q8 12 14 27q8 23 33 14q23 -12 12 -33q-10 -37 -45 -63.5t-74 -26.5q-61 0 -127 59q-66 61 -110 50q-29 -8 -43 -33q-8 -12 -13 -27q-6 -23 -30 -16q-23 8 -17 31z" />
<glyph unicode="&#xe4;" horiz-adv-x="1230" d="M147 432q0 88 34 169t95 144q63 61 144.5 95t169.5 34q90 0 171 -33.5t142 -95.5q33 -33 58 -69v162q0 16 10 26t26 10t26.5 -10t10.5 -26v-672q0 -66 45 -115q10 -10 10.5 -26.5t-10.5 -26.5q-14 -10 -24 -10q-14 0 -27 12q-33 33 -50 76t-17 90v20q-63 -92 -161 -145 t-210 -53q-90 0 -171 34.5t-141.5 95t-95.5 141.5t-35 173zM221 432q0 -78 29 -144.5t79 -117.5t117.5 -80t143.5 -29t143.5 29t118.5 80t80 117.5t29 144.5q0 76 -29 143.5t-80 117.5t-118.5 79t-143.5 29t-143.5 -29t-117.5 -79t-79 -117.5t-29 -143.5zM487 1298 q0 23 16.5 39.5t39.5 16.5t39 -16.5t16 -39.5t-16.5 -39t-38.5 -16q-23 0 -39.5 16.5t-16.5 38.5zM659 1298q0 23 16.5 39.5t39.5 16.5t39 -16.5t16 -39.5t-16.5 -39t-38.5 -16q-23 0 -39.5 16.5t-16.5 38.5z" />
<glyph unicode="&#xe5;" horiz-adv-x="1230" d="M147 432q0 88 34 169t95 144q63 61 144.5 95t169.5 34q90 0 171 -33.5t142 -95.5q33 -33 58 -69v162q0 16 10 26t26 10t26.5 -10t10.5 -26v-672q0 -66 45 -115q10 -10 10.5 -26.5t-10.5 -26.5q-14 -10 -24 -10q-14 0 -27 12q-33 33 -50 76t-17 90v20q-63 -92 -161 -145 t-210 -53q-90 0 -171 34.5t-141.5 95t-95.5 141.5t-35 173zM221 432q0 -78 29 -144.5t79 -117.5t117.5 -80t143.5 -29t143.5 29t118.5 80t80 117.5t29 144.5q0 76 -29 143.5t-80 117.5t-118.5 79t-143.5 29t-143.5 -29t-117.5 -79t-79 -117.5t-29 -143.5zM463 1298 q0 70 48.5 118t117.5 48q68 0 117 -48t49 -118t-49 -117.5t-117 -47.5q-70 0 -118 48t-48 117zM512 1298q0 -47 34 -81.5t83 -34.5q47 0 82 34.5t35 81.5t-35 82t-82 35q-49 0 -83 -34.5t-34 -82.5z" />
<glyph unicode="&#xe6;" horiz-adv-x="1982" d="M147 432q0 90 34 170t98 143q63 63 143 97.5t170 34.5t170 -34t143 -98q31 -31 56 -67v162q0 16 10 26.5t26 10.5t26.5 -10.5t10.5 -26.5v-162q27 39 58 67q61 63 142 97.5t171 34.5q74 0 142.5 -25t126 -68t98.5 -103t61 -134q6 -25 6 -47q0 -37 -13.5 -69t-37 -55.5 t-55 -36.5t-66.5 -13h-616q16 -57 50 -105.5t81 -83.5t103 -54.5t120 -19.5q16 0 26.5 -10t10.5 -26t-10.5 -26.5t-26.5 -10.5q-90 0 -171 32.5t-142 96.5q-33 33 -58 69v-161q0 -16 -10 -26.5t-27 -10.5q-16 0 -26 10t-10 27v161q-23 -33 -56 -69q-63 -63 -143 -96 t-170 -33t-170 32.5t-143 96.5q-63 63 -97.5 143t-34.5 170zM221 432q0 -76 29 -143.5t80 -117.5t117.5 -79t144.5 -29q76 0 143.5 29t117.5 79t79 117.5t29 143.5t-29 143.5t-79 118.5t-117.5 80t-143.5 29q-78 0 -144.5 -29t-117.5 -80t-80 -118.5t-29 -143.5zM1034 417 q0 -7 2 -18h631q41 0 69.5 30t28.5 71q0 12 -4 28q-16 61 -50 111.5t-82 86.5t-105.5 56.5t-118.5 20.5q-78 0 -144.5 -29t-117.5 -80t-80 -118.5t-29 -143.5v-15z" />
<glyph unicode="&#xe7;" horiz-adv-x="1054" d="M147 432q0 90 34 170t95 143q63 63 144.5 97.5t169.5 34.5q90 0 171 -34t142 -98q10 -10 10 -25t-10 -26q-10 -10 -25.5 -10t-25.5 10q-53 53 -119.5 81t-142.5 28q-152 0 -260 -109q-53 -55 -81 -122.5t-28 -138.5t27.5 -139.5t81.5 -121.5q109 -109 260 -109 q76 0 142.5 28t119.5 81q10 10 25.5 10t25.5 -10t10 -26.5t-10 -26.5q-61 -63 -142 -96t-171 -33q-88 0 -169 32.5t-145 96.5q-61 63 -95 143t-34 170zM557 -194q0 10 7.5 17t17.5 7t17.5 -7t7.5 -17v-60q35 -8 56 -35.5t21 -64.5q0 -41 -29.5 -72t-72.5 -31 q-10 0 -17.5 7.5t-7.5 17.5q0 25 25 25q23 0 38 15t15 38t-15.5 39t-37.5 16q-25 0 -25 25v80z" />
<glyph unicode="&#xe8;" horiz-adv-x="1167" d="M147 436q0 90 33 170t96 144q63 63 144.5 96t169.5 33q76 0 144.5 -25t126 -68t98 -103t59.5 -132q4 -10 4 -21.5v-27.5q0 -35 -13.5 -67t-36 -55.5t-53 -36.5t-67.5 -13h-616q18 -57 52 -105.5t80 -84.5t103 -55t119 -19q16 0 26.5 -10.5t10.5 -26.5q0 -14 -10.5 -25.5 t-26.5 -11.5q-88 0 -169 33.5t-145 97.5q-63 63 -96 143t-33 170zM221 419.5q0 -8.5 2 -16.5h629q41 0 70.5 29t29.5 70v10q0 4 -4 20q-16 59 -50 109.5t-82 86.5t-105.5 56.5t-120.5 20.5q-76 0 -143.5 -28.5t-117.5 -79t-79 -118t-29 -143.5v-16.5zM458 1384q8 23 33 15 l305 -111q23 -10 15 -33q-7 -16 -25 -16q-2 0 -3 1t-5 1l-305 113q-23 8 -15 30z" />
<glyph unicode="&#xe9;" horiz-adv-x="1167" d="M147 436q0 90 33 170t96 144q63 63 144.5 96t169.5 33q76 0 144.5 -25t126 -68t98 -103t59.5 -132q4 -10 4 -21.5v-27.5q0 -35 -13.5 -67t-36 -55.5t-53 -36.5t-67.5 -13h-616q18 -57 52 -105.5t80 -84.5t103 -55t119 -19q16 0 26.5 -10.5t10.5 -26.5q0 -14 -10.5 -25.5 t-26.5 -11.5q-88 0 -169 33.5t-145 97.5q-63 63 -96 143t-33 170zM221 419.5q0 -8.5 2 -16.5h629q41 0 70.5 29t29.5 70v10q0 4 -4 20q-16 59 -50 109.5t-82 86.5t-105.5 56.5t-120.5 20.5q-76 0 -143.5 -28.5t-117.5 -79t-79 -118t-29 -143.5v-16.5zM458 1255q-8 23 15 33 l305 111q25 8 33 -15t-15 -30l-305 -113q-4 0 -5 -1t-3 -1q-18 0 -25 16z" />
<glyph unicode="&#xea;" horiz-adv-x="1167" d="M147 436q0 90 33 170t96 144q63 63 144.5 96t169.5 33q76 0 144.5 -25t126 -68t98 -103t59.5 -132q4 -10 4 -21.5v-27.5q0 -35 -13.5 -67t-36 -55.5t-53 -36.5t-67.5 -13h-616q18 -57 52 -105.5t80 -84.5t103 -55t119 -19q16 0 26.5 -10.5t10.5 -26.5q0 -14 -10.5 -25.5 t-26.5 -11.5q-88 0 -169 33.5t-145 97.5q-63 63 -96 143t-33 170zM221 419.5q0 -8.5 2 -16.5h629q41 0 70.5 29t29.5 70v10q0 4 -4 20q-16 59 -50 109.5t-82 86.5t-105.5 56.5t-120.5 20.5q-76 0 -143.5 -28.5t-117.5 -79t-79 -118t-29 -143.5v-16.5zM407 1262q-10 23 11 32 l204 113q8 4 13 4q4 0 12 -4l205 -113q20 -10 10 -32q-4 -10 -14.5 -12.5t-20.5 1.5l-192 107l-195 -107q-23 -10 -33 11z" />
<glyph unicode="&#xeb;" horiz-adv-x="1167" d="M147 436q0 90 33 170t96 144q63 63 144.5 96t169.5 33q76 0 144.5 -25t126 -68t98 -103t59.5 -132q4 -10 4 -21.5v-27.5q0 -35 -13.5 -67t-36 -55.5t-53 -36.5t-67.5 -13h-616q18 -57 52 -105.5t80 -84.5t103 -55t119 -19q16 0 26.5 -10.5t10.5 -26.5q0 -14 -10.5 -25.5 t-26.5 -11.5q-88 0 -169 33.5t-145 97.5q-63 63 -96 143t-33 170zM221 419.5q0 -8.5 2 -16.5h629q41 0 70.5 29t29.5 70v10q0 4 -4 20q-16 59 -50 109.5t-82 86.5t-105.5 56.5t-120.5 20.5q-76 0 -143.5 -28.5t-117.5 -79t-79 -118t-29 -143.5v-16.5zM491 1298 q0 23 16.5 39.5t39.5 16.5t39 -16.5t16 -39.5t-16.5 -39t-38.5 -16q-23 0 -39.5 16.5t-16.5 38.5zM663 1298q0 23 16.5 39.5t39.5 16.5t39 -16.5t16 -39.5t-16.5 -39t-38.5 -16q-23 0 -39.5 16.5t-16.5 38.5z" />
<glyph unicode="&#xec;" horiz-adv-x="448" d="M53 1384q8 23 33 15l305 -111q23 -10 15 -33q-7 -16 -25 -16q-2 0 -3 1t-5 1l-305 113q-23 8 -15 30zM188 176v662q0 16 10.5 26t26.5 10t26.5 -10t10.5 -26v-662q0 -16 -10 -26.5t-27 -10.5q-16 0 -26.5 10.5t-10.5 26.5z" />
<glyph unicode="&#xed;" horiz-adv-x="448" d="M53 1255q-8 23 15 33l305 111q25 8 33 -15t-15 -30l-305 -113q-4 0 -5 -1t-3 -1q-18 0 -25 16zM188 176v662q0 16 10.5 26t26.5 10t26.5 -10t10.5 -26v-662q0 -16 -10 -26.5t-27 -10.5q-16 0 -26.5 10.5t-10.5 26.5z" />
<glyph unicode="&#xee;" horiz-adv-x="448" d="M4 1262q-10 23 11 32l204 113q8 4 13 4q4 0 12 -4l205 -113q20 -10 10 -32q-4 -10 -14.5 -12.5t-20.5 1.5l-192 107l-195 -107q-23 -10 -33 11zM188 176v662q0 16 10.5 26t26.5 10t26.5 -10t10.5 -26v-662q0 -16 -10 -26.5t-27 -10.5q-16 0 -26.5 10.5t-10.5 26.5z" />
<glyph unicode="&#xef;" horiz-adv-x="448" d="M86 1298q0 23 16.5 39.5t39.5 16.5t39 -16.5t16 -39.5t-16.5 -39t-38.5 -16q-23 0 -39.5 16.5t-16.5 38.5zM188 176v662q0 16 10.5 26t26.5 10t26.5 -10t10.5 -26v-662q0 -16 -10 -26.5t-27 -10.5q-16 0 -26.5 10.5t-10.5 26.5zM258 1298q0 23 16.5 39.5t39.5 16.5 t39 -16.5t16 -39.5t-16.5 -39t-38.5 -16q-23 0 -39.5 16.5t-16.5 38.5z" />
<glyph unicode="&#xf0;" horiz-adv-x="1185" d="M137 434q0 90 33 170t96 144q63 63 143 97t171 34q90 0 169.5 -34t143.5 -97q31 -29 57 -68v428h-209q-10 0 -17 7t-7 18q0 25 24 24h209v117q0 16 10.5 26.5t26.5 10.5t26.5 -10.5t10.5 -26.5v-117h106q10 0 17.5 -7t7.5 -17t-7 -17.5t-18 -7.5h-106v-1079 q0 -16 -10 -26.5t-27 -10.5q-16 0 -26.5 10t-10.5 27v161q-25 -37 -57 -69q-63 -63 -143 -96t-170 -33t-170 32.5t-144 96.5q-63 63 -96 144t-33 169zM211 434q0 -76 28.5 -143.5t79 -117.5t118 -78.5t143.5 -28.5t143.5 28.5t118.5 78.5t79.5 117.5t28.5 143.5t-28.5 143.5 t-79.5 119t-119 80t-143 28.5q-76 0 -143.5 -28.5t-118 -80t-79 -119t-28.5 -143.5z" />
<glyph unicode="&#xf1;" horiz-adv-x="1183" d="M156 174v662q0 16 10 26t27 10q16 0 26 -10t10 -26v-162q25 37 58 69q63 63 144 96t171 33t171.5 -33t144.5 -96q63 -66 97 -145.5t34 -171.5v-252q0 -16 -10.5 -26.5t-26.5 -10.5t-26.5 10.5t-10.5 26.5v252q0 78 -30 145.5t-80 118.5t-118.5 80t-144.5 29 q-78 0 -145.5 -29t-117.5 -80t-80 -118.5t-30 -145.5v-252q0 -16 -10 -26.5t-26 -10.5t-26.5 10.5t-10.5 26.5zM389 1303l5 12t15.5 27.5t27 31t40.5 21.5q70 20 160 -60q59 -57 107 -47q14 4 25 13.5t20 19.5q8 12 14 27q8 23 33 14q23 -12 12 -33q-10 -37 -45 -63.5 t-74 -26.5q-61 0 -127 59q-66 61 -110 50q-29 -8 -43 -33q-8 -12 -13 -27q-6 -23 -30 -16q-23 8 -17 31z" />
<glyph unicode="&#xf2;" d="M145 432q0 90 34 170t95 143q63 63 144.5 97.5t169.5 34.5q90 0 171 -34t142 -98q63 -63 97 -143t34 -170t-33.5 -170t-97.5 -143q-61 -63 -142 -96t-171 -33q-88 0 -169 32.5t-145 96.5q-61 63 -95 143t-34 170zM219 432q0 -76 28.5 -143.5t79 -117.5t118 -79t143.5 -29 t143.5 29t118.5 79t79.5 117.5t28.5 143.5t-28.5 143.5t-79.5 118.5t-118.5 80t-143.5 29t-143.5 -29t-118 -80t-79 -118.5t-28.5 -143.5zM413 1384q8 23 33 15l305 -111q23 -10 15 -33q-7 -16 -25 -16q-2 0 -3 1t-5 1l-305 113q-23 8 -15 30z" />
<glyph unicode="&#xf3;" d="M145 432q0 90 34 170t95 143q63 63 144.5 97.5t169.5 34.5q90 0 171 -34t142 -98q63 -63 97 -143t34 -170t-33.5 -170t-97.5 -143q-61 -63 -142 -96t-171 -33q-88 0 -169 32.5t-145 96.5q-61 63 -95 143t-34 170zM219 432q0 -76 28.5 -143.5t79 -117.5t118 -79t143.5 -29 t143.5 29t118.5 79t79.5 117.5t28.5 143.5t-28.5 143.5t-79.5 118.5t-118.5 80t-143.5 29t-143.5 -29t-118 -80t-79 -118.5t-28.5 -143.5zM413 1255q-8 23 15 33l305 111q25 8 33 -15t-15 -30l-305 -113q-4 0 -5 -1t-3 -1q-18 0 -25 16z" />
<glyph unicode="&#xf4;" d="M145 432q0 90 34 170t95 143q63 63 144.5 97.5t169.5 34.5q90 0 171 -34t142 -98q63 -63 97 -143t34 -170t-33.5 -170t-97.5 -143q-61 -63 -142 -96t-171 -33q-88 0 -169 32.5t-145 96.5q-61 63 -95 143t-34 170zM219 432q0 -76 28.5 -143.5t79 -117.5t118 -79t143.5 -29 t143.5 29t118.5 79t79.5 117.5t28.5 143.5t-28.5 143.5t-79.5 118.5t-118.5 80t-143.5 29t-143.5 -29t-118 -80t-79 -118.5t-28.5 -143.5zM366 1262q-10 23 11 32l204 113q8 4 13 4q4 0 12 -4l205 -113q20 -10 10 -32q-4 -10 -14.5 -12.5t-20.5 1.5l-192 107l-195 -107 q-23 -10 -33 11z" />
<glyph unicode="&#xf5;" d="M145 432q0 90 34 170t95 143q63 63 144.5 97.5t169.5 34.5q90 0 171 -34t142 -98q63 -63 97 -143t34 -170t-33.5 -170t-97.5 -143q-61 -63 -142 -96t-171 -33q-88 0 -169 32.5t-145 96.5q-61 63 -95 143t-34 170zM219 432q0 -76 28.5 -143.5t79 -117.5t118 -79t143.5 -29 t143.5 29t118.5 79t79.5 117.5t28.5 143.5t-28.5 143.5t-79.5 118.5t-118.5 80t-143.5 29t-143.5 -29t-118 -80t-79 -118.5t-28.5 -143.5zM362 1303l5 12t15.5 27.5t27 31t40.5 21.5q70 20 160 -60q59 -57 107 -47q14 4 25 13.5t20 19.5q8 12 14 27q8 23 33 14 q23 -12 12 -33q-10 -37 -45 -63.5t-74 -26.5q-61 0 -127 59q-66 61 -110 50q-29 -8 -43 -33q-8 -12 -13 -27q-6 -23 -30 -16q-23 8 -17 31z" />
<glyph unicode="&#xf6;" d="M145 432q0 90 34 170t95 143q63 63 144.5 97.5t169.5 34.5q90 0 171 -34t142 -98q63 -63 97 -143t34 -170t-33.5 -170t-97.5 -143q-61 -63 -142 -96t-171 -33q-88 0 -169 32.5t-145 96.5q-61 63 -95 143t-34 170zM219 432q0 -76 28.5 -143.5t79 -117.5t118 -79t143.5 -29 t143.5 29t118.5 79t79.5 117.5t28.5 143.5t-28.5 143.5t-79.5 118.5t-118.5 80t-143.5 29t-143.5 -29t-118 -80t-79 -118.5t-28.5 -143.5zM446 1298q0 23 16.5 39.5t39.5 16.5t39 -16.5t16 -39.5t-16.5 -39t-38.5 -16q-23 0 -39.5 16.5t-16.5 38.5zM618 1298q0 23 16.5 39.5 t39.5 16.5t39 -16.5t16 -39.5t-16.5 -39t-38.5 -16q-23 0 -39.5 16.5t-16.5 38.5z" />
<glyph unicode="&#xf7;" horiz-adv-x="1239" d="M178 838q0 -16 10.5 -26.5t26.5 -10.5h809q16 0 26.5 10t10.5 27q0 16 -10.5 26t-26.5 10h-809q-16 0 -26.5 -10t-10.5 -26zM563 397q0 23 16.5 39.5t38.5 16.5q23 0 39.5 -16.5t16.5 -39.5t-16.5 -39t-39.5 -16t-39 16.5t-16 38.5zM563 1280q0 23 16.5 39t38.5 16 q23 0 39.5 -16t16.5 -39t-16.5 -39t-39.5 -16t-39 16t-16 39z" />
<glyph unicode="&#xf8;" d="M145 430q0 90 33 171t96 142q63 63 144.5 97t169.5 34q29 0 57.5 -4t56.5 -10l46 131q6 14 19 20.5t28 0.5q16 -4 22 -17.5t0 -27.5l-45 -131q35 -16 67.5 -40t61.5 -53q63 -61 97 -142t34 -171q0 -88 -33.5 -169t-97.5 -144q-63 -61 -143 -95t-170 -34q-61 0 -113 14 l-47 -131q-6 -25 -35 -25q-4 0 -6 1t-6 1q-33 14 -23 48l48 131q-72 35 -132 90q-63 63 -96 144t-33 169zM219 430q0 -111 58.5 -200t152.5 -134l246 695q-45 10 -88 10q-76 0 -143.5 -29t-118 -80t-79 -118.5t-28.5 -143.5zM500 72q47 -11 88 -11q76 0 143.5 29t118.5 79 t79.5 117.5t28.5 143.5q0 111 -59 201t-154 133z" />
<glyph unicode="&#xf9;" horiz-adv-x="1064" d="M152 508v332q0 16 10 26.5t26 10.5t26.5 -10.5t10.5 -26.5v-332q0 -61 22.5 -114.5t62.5 -93.5t94.5 -63.5t115.5 -23.5t114.5 23.5t93.5 63.5t63.5 93t23.5 115v332q0 16 10.5 26.5t26.5 10.5q14 0 25.5 -10.5t11.5 -26.5v-664q0 -14 -11.5 -25.5t-25.5 -11.5 q-16 0 -26.5 11.5t-10.5 25.5v113q-51 -68 -128 -109t-167 -41q-78 0 -144.5 29t-116.5 79t-78.5 117.5t-28.5 143.5zM360 1384q8 23 33 15l305 -111q23 -10 15 -33q-7 -16 -25 -16q-2 0 -3 1t-5 1l-305 113q-23 8 -15 30z" />
<glyph unicode="&#xfa;" horiz-adv-x="1064" d="M152 508v332q0 16 10 26.5t26 10.5t26.5 -10.5t10.5 -26.5v-332q0 -61 22.5 -114.5t62.5 -93.5t94.5 -63.5t115.5 -23.5t114.5 23.5t93.5 63.5t63.5 93t23.5 115v332q0 16 10.5 26.5t26.5 10.5q14 0 25.5 -10.5t11.5 -26.5v-664q0 -14 -11.5 -25.5t-25.5 -11.5 q-16 0 -26.5 11.5t-10.5 25.5v113q-51 -68 -128 -109t-167 -41q-78 0 -144.5 29t-116.5 79t-78.5 117.5t-28.5 143.5zM360 1255q-8 23 15 33l305 111q25 8 33 -15t-15 -30l-305 -113q-4 0 -5 -1t-3 -1q-18 0 -25 16z" />
<glyph unicode="&#xfb;" horiz-adv-x="1064" d="M152 508v332q0 16 10 26.5t26 10.5t26.5 -10.5t10.5 -26.5v-332q0 -61 22.5 -114.5t62.5 -93.5t94.5 -63.5t115.5 -23.5t114.5 23.5t93.5 63.5t63.5 93t23.5 115v332q0 16 10.5 26.5t26.5 10.5q14 0 25.5 -10.5t11.5 -26.5v-664q0 -14 -11.5 -25.5t-25.5 -11.5 q-16 0 -26.5 11.5t-10.5 25.5v113q-51 -68 -128 -109t-167 -41q-78 0 -144.5 29t-116.5 79t-78.5 117.5t-28.5 143.5zM309 1262q-10 23 11 32l204 113q8 4 13 4q4 0 12 -4l205 -113q20 -10 10 -32q-4 -10 -14.5 -12.5t-20.5 1.5l-192 107l-195 -107q-23 -10 -33 11z" />
<glyph unicode="&#xfc;" horiz-adv-x="1064" d="M152 508v332q0 16 10 26.5t26 10.5t26.5 -10.5t10.5 -26.5v-332q0 -61 22.5 -114.5t62.5 -93.5t94.5 -63.5t115.5 -23.5t114.5 23.5t93.5 63.5t63.5 93t23.5 115v332q0 16 10.5 26.5t26.5 10.5q14 0 25.5 -10.5t11.5 -26.5v-664q0 -14 -11.5 -25.5t-25.5 -11.5 q-16 0 -26.5 11.5t-10.5 25.5v113q-51 -68 -128 -109t-167 -41q-78 0 -144.5 29t-116.5 79t-78.5 117.5t-28.5 143.5zM393 1298q0 23 16.5 39.5t39.5 16.5t39 -16.5t16 -39.5t-16.5 -39t-38.5 -16q-23 0 -39.5 16.5t-16.5 38.5zM565 1298q0 23 16.5 39.5t39.5 16.5t39 -16.5 t16 -39.5t-16.5 -39t-38.5 -16q-23 0 -39.5 16.5t-16.5 38.5z" />
<glyph unicode="&#xfd;" horiz-adv-x="1150" d="M124 847.5q5 14.5 17 22.5q14 8 28.5 4t23.5 -18l370 -680l393 680q8 14 23 18t29 -4q18 -10 18 -32q0 -6 -4 -19l-633 -1093q-10 -18 -31 -19q-16 0 -27.5 10.5t-11.5 24.5q0 2 1.5 9t5.5 11l194 338l-393 721q-8 12 -3 26.5zM407 1255q-8 23 15 33l305 111q25 8 33 -15 t-15 -30l-305 -113q-4 0 -5 -1t-3 -1q-18 0 -25 16z" />
<glyph unicode="&#xfe;" horiz-adv-x="1206" d="M170 -252v692v836q0 16 10 26.5t27 10.5q16 0 26.5 -10.5t10.5 -26.5v-594q25 37 55 68q63 63 143 96t170 33t170.5 -33t143.5 -96t97 -143.5t34 -170.5t-34 -170t-97 -143t-143.5 -96t-170.5 -33t-170 32.5t-143 96.5q-31 31 -55 67v-442q0 -16 -10.5 -26.5t-26.5 -10.5 t-26.5 10.5t-10.5 26.5zM244 436q0 -76 28.5 -143.5t78.5 -117.5t117.5 -78.5t143.5 -28.5t143.5 28.5t119 78.5t80 117.5t28.5 143.5t-28.5 143.5t-80 118t-119 79t-143.5 28.5t-143.5 -28.5t-117.5 -79t-78.5 -118t-28.5 -143.5z" />
<glyph unicode="&#xff;" horiz-adv-x="1150" d="M124 847.5q5 14.5 17 22.5q14 8 28.5 4t23.5 -18l370 -680l393 680q8 14 23 18t29 -4q18 -10 18 -32q0 -6 -4 -19l-633 -1093q-10 -18 -31 -19q-16 0 -27.5 10.5t-11.5 24.5q0 2 1.5 9t5.5 11l194 338l-393 721q-8 12 -3 26.5zM440 1298q0 23 16.5 39.5t39.5 16.5 t39 -16.5t16 -39.5t-16.5 -39t-38.5 -16q-23 0 -39.5 16.5t-16.5 38.5zM612 1298q0 23 16.5 39.5t39.5 16.5t39 -16.5t16 -39.5t-16.5 -39t-38.5 -16q-23 0 -39.5 16.5t-16.5 38.5z" />
<glyph unicode="&#x152;" horiz-adv-x="2052" d="M143 631q0 119 44 224.5t126 188.5q84 84 190.5 128.5t223.5 44.5t223.5 -44.5t190.5 -128.5q61 -61 96 -129v265q0 16 10 26.5t27 10.5h610q16 0 26.5 -10.5t10.5 -26.5t-10 -26.5t-27 -10.5h-573v-473h389q16 0 26.5 -10.5t10.5 -26.5t-10.5 -26.5t-26.5 -10.5h-389 v-475h573q16 0 26.5 -10.5t10.5 -26.5t-10 -26.5t-27 -10.5h-610q-16 0 -26.5 10.5t-10.5 26.5v262q-37 -68 -96 -127q-84 -84 -190.5 -128t-223.5 -44t-223.5 44t-190.5 128q-82 84 -126 189.5t-44 222.5zM217 631q0 -102 39 -195.5t111 -165.5t164 -110.5t196 -38.5 t196 38.5t164 110.5t111 165t39 196q0 104 -39 197.5t-111 164.5q-72 72 -164 111t-196 39t-196.5 -39t-163.5 -111q-72 -72 -111 -165t-39 -197z" />
<glyph unicode="&#x153;" horiz-adv-x="1980" d="M145 434q0 90 34 170t97 144q61 63 142.5 96t171.5 33q88 0 169 -33t144 -96q29 -29 52.5 -64t39.5 -72q16 37 40 72t52 64q63 63 144.5 96t169.5 33q76 0 144.5 -25t126 -68t98.5 -103t59 -132q4 -10 6 -21.5t2 -25.5q0 -72 -51 -123t-123 -51h-616q18 -57 52 -105.5 t80 -83.5t103 -54t119 -19q16 0 26.5 -10.5t10.5 -26.5t-10.5 -26.5t-26.5 -10.5q-88 0 -169 32.5t-145 96.5q-59 61 -92 135q-35 -74 -92 -135q-63 -63 -144 -96t-169 -33q-90 0 -171 32.5t-143 96.5q-63 63 -97 143t-34 170zM219 434q0 -76 28.5 -143.5t80 -117.5 t118 -78.5t144.5 -28.5q76 0 143.5 28.5t117.5 78.5t78.5 117.5t28.5 143.5t-28.5 143.5t-78.5 117.5t-117.5 79t-143.5 29q-78 0 -144.5 -29t-118 -79t-80 -117.5t-28.5 -143.5zM1032 419q0 -7 2 -18h629q41 0 70.5 30t29.5 71q0 12 -4 28q-16 61 -50 111.5t-82 86.5 t-105.5 55.5t-120.5 19.5q-76 0 -143.5 -29t-117.5 -79t-79 -117.5t-29 -143.5v-15z" />
<glyph unicode="&#x178;" horiz-adv-x="1241" d="M126 1128.5q3 14.5 15 22.5q14 10 28.5 6t23.5 -16l428 -666l428 666q8 12 22.5 16t28.5 -6q12 -8 16 -22.5t-6 -26.5l-453 -705v-372q0 -16 -10 -26.5t-26 -10.5t-26.5 10t-10.5 27v372l-453 705q-8 12 -5 26.5zM473 1462q0 23 16.5 39.5t39.5 16.5t39 -16.5t16 -39.5 t-16.5 -39t-38.5 -16q-23 0 -39.5 16.5t-16.5 38.5zM645 1462q0 23 16.5 39.5t39.5 16.5t39 -16.5t16 -39.5t-16.5 -39t-38.5 -16q-23 0 -39.5 16.5t-16.5 38.5z" />
<glyph unicode="&#x2c6;" horiz-adv-x="1253" d="M401 1262q-10 23 11 32l204 113q8 4 13 4q4 0 12 -4l205 -113q20 -10 10 -32q-4 -10 -14.5 -12.5t-20.5 1.5l-192 107l-195 -107q-23 -10 -33 11z" />
<glyph unicode="&#x2dc;" horiz-adv-x="1781" d="M393 1303l5 12t15.5 27.5t27 31t40.5 21.5q70 20 160 -60q59 -57 107 -47q14 4 25 13.5t20 19.5q8 12 14 27q8 23 33 14q23 -12 12 -33q-10 -37 -45 -63.5t-74 -26.5q-61 0 -127 59q-66 61 -110 50q-29 -8 -43 -33q-8 -12 -13 -27q-6 -23 -30 -16q-23 8 -17 31z" />
<glyph unicode="&#x2000;" horiz-adv-x="814" />
<glyph unicode="&#x2001;" horiz-adv-x="1628" />
<glyph unicode="&#x2002;" horiz-adv-x="814" />
<glyph unicode="&#x2003;" horiz-adv-x="1628" />
<glyph unicode="&#x2004;" horiz-adv-x="542" />
<glyph unicode="&#x2005;" horiz-adv-x="407" />
<glyph unicode="&#x2006;" horiz-adv-x="271" />
<glyph unicode="&#x2007;" horiz-adv-x="271" />
<glyph unicode="&#x2008;" horiz-adv-x="203" />
<glyph unicode="&#x2009;" horiz-adv-x="325" />
<glyph unicode="&#x200a;" horiz-adv-x="90" />
<glyph unicode="&#x2010;" horiz-adv-x="1077" d="M170 840q0 16 10 26.5t27 10.5h663q16 0 26.5 -10.5t10.5 -26.5t-10 -26.5t-27 -10.5h-663q-16 0 -26.5 10t-10.5 27z" />
<glyph unicode="&#x2011;" horiz-adv-x="1077" d="M170 840q0 16 10 26.5t27 10.5h663q16 0 26.5 -10.5t10.5 -26.5t-10 -26.5t-27 -10.5h-663q-16 0 -26.5 10t-10.5 27z" />
<glyph unicode="&#x2012;" horiz-adv-x="1077" d="M170 840q0 16 10 26.5t27 10.5h663q16 0 26.5 -10.5t10.5 -26.5t-10 -26.5t-27 -10.5h-663q-16 0 -26.5 10t-10.5 27z" />
<glyph unicode="&#x2013;" horiz-adv-x="1175" d="M154 840q0 16 10 26.5t26 10.5h799q16 0 26.5 -10.5t10.5 -26.5t-10 -26.5t-27 -10.5h-799q-16 0 -26 10t-10 27z" />
<glyph unicode="&#x2014;" horiz-adv-x="1619" d="M154 840q0 16 10 26.5t26 10.5h1240q16 0 26 -10.5t10 -26.5t-10 -26.5t-26 -10.5h-1240q-16 0 -26 10t-10 27z" />
<glyph unicode="&#x2018;" horiz-adv-x="851" d="M342 1071q6 162 102 285q9 14 29 14q23 0 33 -20.5t-4 -38.5q-84 -109 -86 -240q0 -16 -10.5 -26.5t-26.5 -10.5t-26.5 10.5t-10.5 26.5z" />
<glyph unicode="&#x2019;" horiz-adv-x="851" d="M348 1046.5q-10 20.5 4 38.5q82 106 86 240q0 16 10.5 26.5t26.5 10.5t26.5 -10.5t10.5 -26.5q-6 -162 -102 -285q-9 -14 -29 -14q-23 0 -33 20.5z" />
<glyph unicode="&#x201a;" horiz-adv-x="851" d="M344 -190.5q-2 14.5 8 26.5q82 106 86 240q0 16 10.5 26.5t26.5 10.5t26.5 -10.5t10.5 -26.5q-6 -162 -102 -285q-9 -14 -29 -14q-14 0 -23 8q-12 10 -14 24.5z" />
<glyph unicode="&#x201c;" horiz-adv-x="1183" d="M342 1071q6 162 102 285q9 14 29 14q23 0 33 -20.5t-4 -38.5q-84 -109 -86 -240q0 -16 -10.5 -26.5t-26.5 -10.5t-26.5 10.5t-10.5 26.5zM672 1071q6 162 102 285q9 14 29 14q23 0 33 -20.5t-5 -38.5q-84 -109 -86 -240q0 -16 -10 -26.5t-26 -10.5t-26.5 10.5t-10.5 26.5 z" />
<glyph unicode="&#x201d;" horiz-adv-x="1183" d="M354 1046.5q-10 20.5 4 38.5q82 106 86 240q0 16 10.5 26.5t26.5 10.5t26.5 -10.5t10.5 -26.5q-6 -162 -102 -285q-9 -14 -29 -14q-23 0 -33 20.5zM686 1046.5q-10 20.5 4 38.5q82 106 86 240q0 16 10.5 26.5t26.5 10.5t26.5 -10.5t10.5 -26.5q-6 -162 -102 -285 q-9 -14 -29 -14q-23 0 -33 20.5z" />
<glyph unicode="&#x201e;" horiz-adv-x="1183" d="M350.5 -190.5q-2.5 14.5 7.5 26.5q82 106 86 240q0 16 10.5 26.5t26.5 10.5t26.5 -10.5t10.5 -26.5q-6 -162 -102 -285q-9 -14 -29 -14q-14 0 -22 8q-12 10 -14.5 24.5zM682 -190.5q-2 14.5 8 26.5q82 106 86 240q0 16 10.5 26.5t26.5 10.5t26.5 -10.5t10.5 -26.5 q-6 -162 -102 -285q-9 -14 -29 -14q-14 0 -23 8q-12 10 -14 24.5z" />
<glyph unicode="&#x2022;" horiz-adv-x="1150" d="M477 573q0 41 30 70t71 29t69.5 -29t28.5 -70t-29 -70.5t-69 -29.5q-41 0 -71 29.5t-30 70.5z" />
<glyph unicode="&#x2026;" horiz-adv-x="1286" d="M158 838q0 35 23.5 58.5t58.5 23.5t58.5 -24t23.5 -58q0 -35 -24 -58.5t-58 -23.5q-35 0 -58.5 23.5t-23.5 58.5zM557 838q0 35 23.5 58.5t58.5 23.5t58.5 -24t23.5 -58q0 -35 -23.5 -58.5t-58.5 -23.5t-58.5 23.5t-23.5 58.5zM958 838q0 35 24 58.5t58 23.5 q35 0 58.5 -24t23.5 -58q0 -35 -23.5 -58.5t-58.5 -23.5t-58.5 23.5t-23.5 58.5z" />
<glyph unicode="&#x202f;" horiz-adv-x="325" />
<glyph unicode="&#x2039;" horiz-adv-x="841" d="M264 537q-8 14 0 28l271 404q6 8 16 10t18 -4q10 -4 11.5 -14.5t-5.5 -18.5l-260 -391l260 -391q10 -12 2 -24.5t-22 -12.5q-12 0 -20 10z" />
<glyph unicode="&#x203a;" horiz-adv-x="841" d="M263 960.5q1 10.5 11 14.5q8 6 18.5 4t16.5 -10l271 -404q6 -14 0 -28l-271 -404q-8 -10 -20 -10q-16 0 -22.5 13.5t1.5 23.5l260 391l-260 391q-6 8 -5 18.5z" />
<glyph unicode="&#x205f;" horiz-adv-x="407" />
<glyph unicode="&#x20ac;" horiz-adv-x="1447" d="M160 451q0 10 7 17t17 7h115q-4 25 -6 48.5t-2 47.5q0 27 2 51.5t6 49.5h-115q-10 0 -17 7t-7 17t7 17.5t17 7.5h127q37 154 152 264q84 84 189.5 128t224.5 44q104 0 202.5 -37t177.5 -104q10 -10 12.5 -25.5t-7.5 -25.5q-25 -29 -54 -4q-70 59 -154.5 90.5t-176.5 31.5 q-104 0 -197.5 -38.5t-165.5 -110.5q-90 -94 -127 -213h309q25 0 25 -25t-25 -24h-321q-4 -25 -7 -49.5t-3 -51.5q0 -25 3 -48t7 -48h321q25 0 25 -24q0 -25 -25 -25h-309q16 -59 49 -113.5t78 -101.5q72 -72 165 -111t198 -39q92 0 177 32t154 91q29 25 54 -4 q10 -10 8 -25.5t-13 -25.5q-80 -70 -178 -105.5t-202 -35.5q-119 0 -224.5 44t-189.5 128q-57 55 -95 122.5t-59 143.5h-125q-10 0 -17 7t-7 18z" />
<glyph unicode="&#x2122;" horiz-adv-x="1660" d="M258 1483q0 10 7 17t18 7h348q10 0 17 -7t7 -17q0 -25 -24 -25h-150v-465q0 -25 -24 -24q-10 0 -17.5 7t-7.5 17v465h-149q-10 0 -17.5 7.5t-7.5 17.5zM801 993v490q0 18 18 22q16 6 29 -10l256 -414l254 414q12 16 28 10q18 -4 19 -22v-490q0 -10 -7 -17t-18 -7 q-25 0 -24 24v402l-232 -373q-8 -14 -21 -12t-22 12l-231 373v-402q0 -25 -25 -24q-10 0 -17 7t-7 17z" />
<glyph unicode="&#x25fc;" horiz-adv-x="880" d="M0 0v881h881v-881h-881z" />
</font>
</defs>
</svg>
